<?xml version="1.0" standalone="no"?>
<!DOCTYPE svg PUBLIC "-//W3C//DTD SVG 1.1//EN" "http://www.w3.org/Graphics/SVG/1.1/DTD/svg11.dtd" >
<!--
2013-9-30: Created.
-->
<svg>
<metadata>
Created by iconfont
</metadata>
<defs>

<font id="iconfont" horiz-adv-x="1024" >
  <font-face
    font-family="iconfont"
    font-weight="500"
    font-stretch="normal"
    units-per-em="1024"
    ascent="896"
    descent="-128"
  />
    <missing-glyph />
    
    <glyph glyph-name="x" unicode="x" horiz-adv-x="1001"
d="M281 543q-27 -1 -53 -1h-83q-18 0 -36.5 -6t-32.5 -18.5t-23 -32t-9 -45.5v-76h912v41q0 16 -0.5 30t-0.5 18q0 13 -5 29t-17 29.5t-31.5 22.5t-49.5 9h-133v-97h-438v97zM955 310v-52q0 -23 0.5 -52t0.5 -58t-10.5 -47.5t-26 -30t-33 -16t-31.5 -4.5q-14 -1 -29.5 -0.5
t-29.5 0.5h-32l-45 128h-439l-44 -128h-29h-34q-20 0 -45 1q-25 0 -41 9.5t-25.5 23t-13.5 29.5t-4 30v167h911zM163 247q-12 0 -21 -8.5t-9 -21.5t9 -21.5t21 -8.5q13 0 22 8.5t9 21.5t-9 21.5t-22 8.5zM316 123q-8 -26 -14 -48q-5 -19 -10.5 -37t-7.5 -25t-3 -15t1 -14.5
t9.5 -10.5t21.5 -4h37h67h81h80h64h36q23 0 34 12t2 38q-5 13 -9.5 30.5t-9.5 34.5q-5 19 -11 39h-368zM336 498v228q0 11 2.5 23t10 21.5t20.5 15.5t34 6h188q31 0 51.5 -14.5t20.5 -52.5v-227h-327z" />
    

    
    <glyph glyph-name="succeed" unicode="&#58880;" d="M948.64 701.171c-18.742 18.867-49.138 18.867-67.882 0l-486.672-490.131-246.67 248.411c-18.743 18.868-49.139 18.868-67.883 0-18.743-18.868-18.743-49.471 0-68.36l305.476-307.632c3.282-3.307 5.878-4.982 8.032-5.402 0.116-0.026 0.234-0.042 0.353-0.059 0.040-0.005 0.080-0.013 0.119-0.018 0.128-0.015 0.259-0.022 0.391-0.025 0.061-0.003 0.124-0.008 0.184-0.008s0.123 0.005 0.184 0.008c0.132 0.004 0.263 0.010 0.391 0.025 0.039 0.005 0.080 0.013 0.119 0.018 0.119 0.017 0.238 0.033 0.353 0.059 2.154 0.42 4.75 2.095 8.032 5.402l545.471 549.329c18.743 18.89 18.743 49.493 0 68.383z"  horiz-adv-x="1024" />

    
    <glyph glyph-name="PC-close" unicode="&#58970;" d="M568.32 381.583l341.924 341.924c14.858 14.868 14.858 38.963 0 53.832-14.868 14.848-38.963 14.848-53.832 0l-341.924-341.924-341.924 341.934c-14.868 14.848-38.963 14.848-53.832 0-14.858-14.868-14.858-38.963 0-53.832l341.924-341.934-341.924-341.924c-14.858-14.868-14.858-38.963 0-53.832 7.434-7.424 17.183-11.162 26.911-11.162s19.487 3.738 26.911 11.162l341.924 341.924 341.924-341.924c7.434-7.424 17.183-11.162 26.911-11.162s19.487 3.738 26.911 11.162c14.858 14.868 14.858 38.963 0 53.832l-341.903 341.924z"  horiz-adv-x="1024" />

    
    <glyph glyph-name="computer" unicode="&#58947;" d="M822.650179 209.45670800000005L203.557092 209.45670800000005c-48.846498 0-88.442308 39.59581-88.442308 88.437192L115.114784 740.104417c0 48.846498 39.59581 88.446401 88.442308 88.446401L822.650179 828.550819c48.846498 0 88.442308-39.599903 88.442308-88.446401l0-442.209494C911.092487 249.05251799999996 871.496677 209.45670800000005 822.650179 209.45670800000005zM822.650179 740.104417L203.557092 740.104417l0-442.209494L822.650179 297.89492299999995 822.650179 740.104417zM291.998377 121.01440000000002l442.209494 0c24.423249 0 44.221154-19.801998 44.221154-44.225247l0-44.217061-44.221154 0L291.998377 32.572092 247.777223 32.572092l0 44.217061C247.777223 101.212402 267.575128 121.01440000000002 291.998377 121.01440000000002z"  horiz-adv-x="1024" />

    
    <glyph glyph-name="PC-set" unicode="&#59046;" d="M662.252-76.666c-0.001 0-0.001 0-0.003 0-17.982 0.001-35.457 7.438-46.746 19.89-15.38 16.862-64.109 60.708-103.997 60.708-39.611 0-89.092-44.1-103.305-59.549-11.262-12.242-28.617-19.551-46.423-19.551-8.481 0-16.485 1.628-23.791 4.839l-1.279 0.561-121.241 67.795-1.204 0.842c-22.073 15.451-30.471 45.67-19.537 70.294 0.083 0.191 11.182 25.798 11.182 49.149 0 70.864-57.652 128.517-128.516 128.517h-4.297c-0.26-0.005-0.522-0.010-0.782-0.010-20.299 0-36.827 18.032-42.107 45.938-0.422 2.234-10.347 55.169-10.347 96.875 0 41.706 9.922 94.641 10.345 96.875 5.346 28.262 22.235 46.417 42.89 45.929h4.298c70.865 0 128.516 57.652 128.516 128.517 0 23.345-11.093 48.947-11.206 49.203-10.923 24.599-2.468 54.816 19.695 70.219l1.257 0.873 127.953 70.279 1.331 0.566c7.204 3.071 15.097 4.629 23.456 4.629 17.765 0 35.156-7.15 46.522-19.127 15.143-15.857 63.012-57.095 101.756-57.095 38.38 0 85.955 40.425 101.049 56.001 11.3 11.735 28.567 18.761 46.16 18.761 8.529 0 16.567-1.614 23.888-4.796l1.296-0.563 123.58-68.658 1.221-0.852c22.109-15.431 30.53-45.651 19.586-70.293-0.082-0.189-11.181-25.797-11.181-49.147 0-70.865 57.652-128.517 128.516-128.517h4.297c20.628 0.459 37.541-17.665 42.89-45.926 0.421-2.235 10.346-55.17 10.346-96.876 0-41.707-9.925-94.641-10.347-96.875-5.348-28.263-22.257-46.351-42.89-45.927h-4.295c-70.864 0-128.516-57.653-128.516-128.517 0-23.345 11.092-48.946 11.205-49.202 10.917-24.583 2.482-54.802-19.648-70.223l-1.238-0.863-125.666-69.456-1.312-0.565c-7.189-3.102-15.051-4.673-23.36-4.673zM658.434-17.46c0.561-0.368 2.147-0.992 3.815-0.992 0.068 0 0.132 0.001 0.19 0.003l117.409 64.893c-2.833 6.585-15.794 38.535-15.794 71.868 0 99.677 78.511 181.364 176.938 186.478 1.417 7.821 9.109 51.822 9.109 84.842 0 33.012-7.69 76.999-9.108 84.842-98.427 5.114-176.94 86.801-176.94 186.478 0 33.377 12.999 65.375 15.81 71.904l-115.504 64.174c-0.134 0.010-0.294 0.016-0.482 0.016-1.968 0-3.809-0.717-4.419-1.127-1.938-1.993-18.683-18.972-42.731-35.889-35.6-25.044-69.262-37.745-100.058-37.745-31.094 0-65.028 12.949-100.858 38.487-24.196 17.247-41.017 34.549-42.959 36.577-0.615 0.42-2.476 1.158-4.46 1.158-0.158 0-0.295-0.004-0.413-0.013l-119.637-65.711c2.865-6.667 15.78-38.563 15.78-71.831 0-99.677-78.513-181.364-176.941-186.478-1.418-7.829-9.107-51.826-9.107-84.842 0-33.012 7.69-76.999 9.109-84.842 98.427-5.114 176.938-86.801 176.938-186.478 0-33.44-13.050-65.495-15.828-71.942l113.232-63.316c0.074-0.003 0.158-0.005 0.251-0.005 1.655 0 3.226 0.607 3.782 0.966 2.116 2.275 19.031 20.175 43.39 38.028 36.311 26.611 70.816 40.106 102.557 40.106 32.044 0 66.811-13.751 103.334-40.871 24.498-18.193 41.478-36.431 43.594-38.737zM511.924 219.13c-94.373 0-171.151 76.779-171.151 171.151s76.779 171.151 171.151 171.151c94.373 0 171.151-76.779 171.151-171.151 0-94.372-76.779-171.151-171.151-171.151zM511.924 503.216c-62.274 0-112.937-50.663-112.937-112.937s50.663-112.937 112.937-112.937c62.274 0 112.937 50.663 112.937 112.937 0 62.274-50.661 112.937-112.937 112.937z"  horiz-adv-x="1024" />

    
    <glyph glyph-name="msnui-group" unicode="&#59097;" d="M634.065 750.771q22.513-4.894 37.195-23.981t16.64-47.473q0-8.809 0.979-27.407t0.979-39.153-1.468-37.195-5.384-20.555q-5.873-6.852-11.256-6.362t-5.384-5.384q0-2.936-1.468-20.555t-8.32-48.941q-3.915-16.64-11.256-29.854t-15.172-23.981q-9.788-11.746-19.576-21.534-0.979-12.725-0.979-24.471v-20.555q0-10.767 0.979-16.64 0.979-11.746 5.873-16.64t19.576-8.809q4.894-1.958 17.619-5.873t30.344-10.278 36.706-13.214 36.706-13.214 31.322-11.746 20.555-8.32q19.576-9.788 25.939-20.555t11.256-27.407q1.958-8.809 5.384-32.301t7.341-48.941 6.362-47.962 3.426-28.386q0.979-12.725-4.405-21.534t-24.96-13.704q-16.64-3.915-48.452-8.32t-73.901-8.32-92.499-6.362-106.202-2.447-106.692 1.958-93.478 5.384-75.369 7.831-51.388 9.299q-3.915 0.979-9.788 3.915t-11.256 7.341-8.32 10.767-1.958 14.193q0.979 6.852 5.384 30.833t10.278 51.388 10.767 51.388 6.852 29.854q3.915 11.746 11.256 24.471t24.96 26.428q8.809 6.852 32.301 14.682t48.941 14.682 47.962 11.746 29.365 6.852q14.682 2.936 25.939 7.341t11.256 12.235v56.772q-10.767 8.809-20.555 19.576-8.809 8.809-17.619 21.045t-15.661 25.939q-13.704 26.428-17.619 48.452t-4.894 25.939-7.341 6.362-9.299 10.278q-7.831 16.64-7.341 35.238t2.447 52.856q2.936 34.259 11.256 65.581t36.706 57.751q14.682 12.725 39.153 21.045t49.92 12.235 48.452 3.915 34.748-2.936q12.725-3.915 20.555-8.32t12.235-8.32 7.341-7.341 5.873-5.384q4.894-3.915 12.725-2.447t27.407-2.447zM544.013 214.376l26.428-101.798 43.068 115.501-41.111 29.365zM473.538 259.402l-39.153-31.322 44.047-115.501 23.492 102.776zM821.999 642.122q13.704-1.958 22.024-13.704t9.299-28.386q0-4.894 0.979-16.151t0.979-23.002-0.979-22.024-2.936-12.235q-3.915-3.915-7.341-3.426t-3.426-3.426q0-1.958-0.489-12.235t-5.384-29.854q-1.958-9.788-5.873-17.619t-8.809-13.704q-4.894-6.852-11.746-12.725-0.979-7.831-0.979-14.682v-22.513q0.979-6.852 3.915-9.788t11.746-4.894q3.915-0.979 18.598-5.873t31.812-11.256 31.812-11.746 20.555-8.32q11.746-5.873 16.151-12.235t6.362-17.129q0.979-4.894 2.936-18.598t3.915-29.365 3.915-28.386 1.958-16.64q0.979-7.831-2.447-13.214t-15.172-7.341q-9.788-1.958-25.449-4.894t-41.111-4.894q-1.958 11.746-5.873 22.513-2.936 9.788-6.852 20.555t-9.788 18.598q-10.767 14.682-22.513 23.492t-23.492 14.682-23.492 9.299-23.492 7.341q-49.92 17.619-80.264 24.471t-34.259 11.746q-1.958 2.936-2.447 6.852t-0.489 8.809 0.979 10.767q13.704 3.915 20.555 4.894t10.767 1.958q7.831 1.958 14.682 4.405t6.852 7.341v34.259l-5.873 2.936q-1.958 0.979-3.915 4.894 5.873 12.725 11.746 30.344 4.894 15.661 10.278 38.174t9.299 53.835q2.936 24.471 3.915 44.047t0.979 34.259v30.344q11.746 1.958 24.96 1.958t21.045-1.958q16.64-4.894 20.066-9.788t7.341-7.831q3.915-1.958 8.32-1.468t16.151-1.468zM772.079 328.898l6.852-26.428 17.619-5.873 13.704 35.238-20.555 17.619zM721.18 346.517l-16.64-16.64 0.979-3.915 30.344-8.809 3.915 10.767zM286.583 663.656q-15.661 1.958-31.322 0.979-13.704-0.979-29.854-4.894t-29.854-13.704q-11.746-7.831-18.598-18.598t-10.278-22.024-4.405-21.045-0.979-15.661q-0.979-12.725-1.958-23.002t0.979-18.108 2.936-10.767 3.915-4.894 4.894-2.447 3.915-13.214q0.979-12.725 6.362-24.96t11.256-20.066q2.936-4.894 7.341-9.299t8.32-9.299 9.788-9.788v-28.386q-0.979-5.873-4.405-9.788t-13.214-5.873q-4.894-0.979-16.151-3.915t-24.471-6.362-26.428-7.341-21.045-6.852q-28.386-13.704-34.259-46.984-3.915-15.661-8.809-39.153t-6.852-33.28 0.489-20.555 16.151-13.704q6.852-1.958 17.129-2.936t20.066-2.936q10.767-1.958 22.513-2.936 1.958 11.746 5.873 23.492 2.936 10.767 8.32 21.534t13.214 20.555q7.831 8.809 19.087 17.129t22.024 16.151q11.746 8.809 25.449 16.64l-9.788 24.471 21.534 16.64 22.513-25.449 11.746 2.936q1.958 0 5.873 1.958 1.958 0.979 3.915 0.979l18.598 21.534 16.64-13.704q4.894 0.979 8.809 1.958t8.809 1.958l9.788 1.958q10.767 1.958 18.108 3.915t8.32 9.788q0 3.915 0.489 6.362t0.489 4.405v2.936q-8.809 2.936-16.64 5.873l-13.704 3.915q-6.852 1.958-10.767 3.915-7.831 2.936-8.809 8.32t-0.979 14.193v9.788q0 4.894 0.979 9.788 0 4.894 0.979 11.746-7.831 11.746-15.661 25.449-6.852 11.746-13.214 26.918t-10.278 31.812q-4.894 22.513-6.852 47.962t-0.979 46.005q0 24.471 2.936 47.962z"  horiz-adv-x="1024" />

    
    <glyph glyph-name="uc-message-board" unicode="&#59375;" d="M83.55397404444443-32.289038791111125l529.8543786666667 0 0 52.84153116444444 244.54969685333336 0 0-52.84153116444444 81.51928263111111 0L939.4773321955554 801.2391037155555 83.55397404444443 801.2391037155555 83.55397404444443-32.289038791111125zM845.2008686933333 75.1998452622222L389.4398987377778 75.1998452622222l0 71.62044529777776 455.76096995555554 0L845.2008686933333 75.1998452622222zM845.2008686933333 436.5539498666667L389.4398987377778 436.5539498666667l0 104.17413575111111 455.76096995555554 0L845.2008686933333 436.5539498666667zM177.83742350222218 703.4988623644444l455.76096995555554 0 0-104.17413575111111L177.83742350222218 599.3247266133334 177.83742350222218 703.4988623644444zM177.83742350222218 374.70077496888894l455.76096995555554 0 0-169.28384341333333L177.83742350222218 205.4169315555556 177.83742350222218 374.70077496888894zM919.09518336 882.5581272177778L103.93495893333335 882.5581272177778c-56.28085816888889 0-101.89793848888888-45.50880028444444-101.89793848888888-101.65343687111111l0-792.8604808533333c0-56.14347150222222 45.61708032-101.65343687111111 101.89793848888888-101.65343687111111l815.1602232888889 0c56.276201244444444 0 101.89677454222222 45.509965368888885 101.89677454222222 101.65343687111111L1020.9919567644445 780.9046903466667C1020.9919567644445 837.0493269333333 975.3713846044443 882.5581272177778 919.09518336 882.5581272177778zM980.22882304 28.702557297777844c0-56.134157653333325-45.62173724444445-101.64761486222221-101.89561059555557-101.64761486222221L144.69110783999997-72.94505756444437c-56.27387221333333 0-101.89444551111112 45.51345834666667-101.89444551111112 101.64761486222221L42.79666232888894 740.2451785955556c0 56.139978524444444 45.62173724444445 101.65343687111111 101.89444551111112 101.65343687111111l733.643269688889 0c56.27387221333333 0 101.89561059555557-45.51345834666667 101.89561059555557-101.65343687111111L980.2299869866665 28.702557297777844z"  horiz-adv-x="1024" />

    
    <glyph glyph-name="search" unicode="&#58891;" d="M448.381072 32.09881800000005c-229.418858 0-416.078862 186.660004-416.078862 416.077839 0 229.418858 186.658981 416.078862 416.078862 416.078862 229.418858 0 416.077839-186.661028 416.077839-416.078862C864.458911 218.758822 677.79993 32.09881800000005 448.381072 32.09881800000005zM448.381072 736.232749c-158.843161 0-288.056093-129.214979-288.056093-288.056093s129.212932-288.053023 288.056093-288.053023c158.841114 0 288.053023 129.210885 288.053023 288.053023S607.222186 736.232749 448.381072 736.232749zM992.483727-31.91512499999999c0-35.379439-28.694882-64.00985-64.01292-64.00985-35.322131 0-64.011897 28.630411-64.011897 64.00985 0 35.381486 28.690789 64.013943 64.011897 64.013943C963.789868 32.09881800000005 992.483727 3.4663600000000088 992.483727-31.91512499999999zM777.966988 209.12014599999998l192.033546-192.033546-90.516217-90.516217-192.033546 192.033546 90.516217 90.516217Z"  horiz-adv-x="1025" />

    
    <glyph glyph-name="rotate" unicode="&#58949;" d="M954.738 379.013l-22.322-21.357c-0.279 5.934-3.643 29.418-4.144 35.283-19.966 234.070-213.732 413.86-451.95 413.86-250.382 0-454.107-203.39-454.107-453.392 0-250.020 203.727-453.408 454.107-453.408 133.443 0 259.722 58.965 346.010 161.214 3.839 2.934 6.954 6.458 9.305 10.431 0.311 0.378 3.22 4.628 3.22 4.628 0 0 1.454 8.084 1.454 11.914 0 18.898-15.362 34.266-34.286 34.266-11.383 0-22.038-6.043-28.231-15.822-73.935-88.706-182.362-139.586-297.468-139.586-213.361 0-387.005 173.337-387.005 386.359 0 213.008 173.642 386.378 387.005 386.378 211.975 0 386.043-173.396 388.289-384.485l-23.522 15.327c-12.422 12.489-34.181 12.523-46.603 0.106-12.94-12.835-12.94-33.731-0.069-46.598l64.966-55.803c6.193-6.254 16.625-14.997 32.918-14.997s22.142 0 32.621 11.009l76.037 67.673c6.298 6.166 9.826 14.492 9.897 23.283 0.067 8.773-3.324 17.029-9.517 23.282 0 0-19.213 21.187-46.604 0.432z"  horiz-adv-x="1024" />

    
    <glyph glyph-name="PC-create" unicode="&#59111;" d="M972.824 435.176c0 0-409.673 0-409.673 0s0 409.551 0 409.551c0 28.282-22.869 51.176-51.151 51.273-28.282-0.098-51.176-22.991-51.176-51.273 0 0 0-409.551 0-409.551 0 0-409.649 0-409.649 0-28.233 0-51.176-22.894-51.176-51.127 0-28.331 22.942-51.2 51.176-51.2 0 0 409.649 0 409.649 0 0 0 0-409.624 0-409.624 0-28.282 22.894-51.224 51.176-51.224 28.282 0 51.151 22.942 51.151 51.224 0 0 0 409.624 0 409.624 0 0 409.673 0 409.673 0 28.282 0 51.224 22.869 51.176 51.2 0 28.233-22.942 51.127-51.176 51.127 0 0 0 0 0 0z"  horiz-adv-x="1025" />

    
    <glyph glyph-name="connect" unicode="&#59228;" d="M913.646 642.84l-150.681-255.056c-23.775-40.234-76.41-54.040-117.604-30.774l-37.294 21.029 43.079 72.862c20.581-11.632 46.914-4.73 58.802 15.404l107.601 182.19c11.889 20.102 4.827 45.859-15.755 57.46l-149.115 84.144c-20.58 11.632-46.913 4.731-58.802-15.403l-107.632-182.159c-11.889-20.134-4.825-45.859 15.755-57.492l-43.047-72.863-37.263 21.028c-41.194 23.233-55.287 74.685-31.51 114.952l150.649 255.054c23.775 40.234 76.442 54.041 117.604 30.807l223.703-126.232c41.164-23.233 55.288-74.684 31.511-114.951zM404.37 201.473c-20.581 11.631-27.644 37.359-15.755 57.491l172.189 291.486c11.888 20.134 38.222 27.004 58.802 15.404 20.612-11.633 27.642-37.358 15.755-57.492l-172.189-291.486c-11.89-20.101-38.191-27.003-58.802-15.403zM372.858 316.425v0c-20.581 11.633-46.914 4.731-58.802-15.405l-107.632-182.19c-11.855-20.101-4.825-45.827 15.756-57.46l149.146-84.112c20.582-11.633 46.914-4.731 58.802 15.339l107.633 182.193c11.888 20.133 4.825 45.89-15.788 57.491v0l43.047 72.863 37.293-21.030c41.194-23.232 55.286-74.684 31.511-114.951l-150.649-255.054c-23.775-40.267-76.442-54.072-117.636-30.808l-223.67 126.233c-41.194 23.201-55.287 74.684-31.511 114.951l150.682 255.054c23.745 40.235 76.41 54.042 117.604 30.808l37.263-21.060-43.049-72.863z"  horiz-adv-x="1024" />

    
    <glyph glyph-name="phone" unicode="&#59730;" d="M671.28888853 884.62222187l-364.08888853 0C244.39466667 884.62222187 193.42222187 833.64977813 193.42222187 770.8444448l0-773.68888853C193.42222187-65.64977812999996 244.39466667-116.62222186999998 307.2-116.62222186999998l364.08888853 0c62.80533333 0 113.77777813 50.9724448 113.77777814 113.77777814l0 773.68888853C785.06666667 833.64977813 734.09422187 884.62222187 671.28888853 884.62222187zM489.2444448-71.11111146999997c-37.77422187 0-68.26666667 30.4924448-68.26666667 68.26666667s30.4924448 68.26666667 68.26666667 68.26666667 68.26666667-30.4924448 68.26666667-68.26666667S527.01866667-71.11111146999997 489.2444448-71.11111146999997zM694.0444448 110.93333332999998L284.4444448 110.93333332999998 284.4444448 748.08888853l409.6 0L694.0444448 110.93333332999998z"  horiz-adv-x="1024" />

    
    <glyph glyph-name="flow-path" unicode="&#58979;" d="M17.48992 398.41792l187.31008-192.47104 197.55008 192.47104L204.84096 590.848 17.48992 398.41792zM942.8992 567.82848L942.8992 813.34272l-370.40128 0 0-81.34656-162.44736 0 0-654.29504 161.5872 0 0-123.16672 369.54112 0 0 251.4944-369.54112 0 0-46.24384-79.50336 0L492.1344 652.45184l80.36352 0 0-84.62336L942.8992 567.82848z"  horiz-adv-x="1024" />

    
    <glyph glyph-name="message-loading" unicode="&#58952;" d="M249.45664 894.04416c57.37472 0 103.87456-46.51008 103.87456-103.8848 0-57.36448-46.51008-103.87456-103.87456-103.87456s-103.8848 46.51008-103.8848 103.87456C145.57184 847.53408 192.08192 894.04416 249.45664 894.04416L249.45664 894.04416zM98.12992 642.85696c52.97152 0 95.90784-42.92608 95.90784-95.8976 0-52.98176-42.93632-95.90784-95.90784-95.90784s-95.90784 42.92608-95.90784 95.90784C2.22208 599.93088 45.1584 642.85696 98.12992 642.85696L98.12992 642.85696zM100.46464 382.8224c48.56832 0 87.94112-39.3728 87.94112-87.95136 0-48.55808-39.3728-87.93088-87.94112-87.93088s-87.94112 39.3728-87.94112 87.93088C12.51328 343.44960000000003 51.88608 382.8224 100.46464 382.8224L100.46464 382.8224zM209.8176 178.24767999999995c44.16512 0 79.9744-35.79904 79.9744-79.98464 0-44.15488-35.80928-79.98464-79.9744-79.98464-44.17536 0-79.98464 35.81952-79.98464 79.98464C129.83296 142.44863999999995 165.64224 178.24767999999995 209.8176 178.24767999999995L209.8176 178.24767999999995zM375.47008 52.705280000000016c39.76192 0 72.01792-32.23552 72.01792-72.01792 0-39.77216-32.24576-72.00768-72.01792-72.00768-39.77216 0-72.01792 32.23552-72.01792 72.00768C303.45216 20.46975999999995 335.68768 52.705280000000016 375.47008 52.705280000000016L375.47008 52.705280000000016zM556.4416 5.939200000000028c35.36896 0 64.04096-28.68224 64.04096-64.0512s-28.672-64.0512-64.04096-64.0512c-35.36896 0-64.04096 28.68224-64.04096 64.0512S521.07264 5.939200000000028 556.4416 5.939200000000028L556.4416 5.939200000000028zM724.35712 24.432639999999992c30.976 0 56.08448-25.10848 56.08448-56.08448 0-30.95552-25.09824-56.07424-56.08448-56.07424-30.95552 0-56.07424 25.10848-56.07424 56.07424C668.29312-0.6758399999999938 693.4016 24.432639999999992 724.35712 24.432639999999992L724.35712 24.432639999999992zM862.44352 91.52512000000002c26.58304 0 48.11776-21.54496 48.11776-48.10752s-21.54496-48.11776-48.11776-48.11776c-26.56256 0-48.09728 21.54496-48.09728 48.11776S835.88096 91.52512000000002 862.44352 91.52512000000002L862.44352 91.52512000000002zM962.99008 189.63455999999996c22.1696 0 40.1408-17.98144 40.1408-40.15104s-17.9712-40.15104-40.1408-40.15104-40.15104 17.98144-40.15104 40.15104S940.82048 189.63455999999996 962.99008 189.63455999999996L962.99008 189.63455999999996zM1024.256 303.68768c17.7664 0 32.18432-14.39744 32.18432-32.18432 0-17.7664-14.40768-32.17408-32.18432-32.17408-17.77664 0-32.18432 14.39744-32.18432 32.17408C992.08192 289.29024000000004 1006.47936 303.68768 1024.256 303.68768L1024.256 303.68768zM1048.46336 421.56032c13.37344 0 24.19712-10.84416 24.19712-24.20736s-10.83392-24.20736-24.19712-24.20736c-13.38368 0-24.2176 10.84416-24.2176 24.20736S1035.07968 421.56032 1048.46336 421.56032L1048.46336 421.56032z"  horiz-adv-x="1076" />

    
    <glyph glyph-name="chengchang" unicode="&#58946;" d="M510.910374 895.12198c-282.16734 0-510.910397-229.034368-510.910397-511.562523 0-282.528156 228.743057-511.559457 510.910397-511.559457 282.169384 0 510.911419 229.031301 510.911419 511.559457C1021.821793 666.087613 793.079758 895.12198 510.910374 895.12198zM429.581621 46.527637c0.506982 9.622442 1.267456 22.285756 2.278354 37.986876 0.506982 13.170296 1.014987 30.392363 1.521969 51.668243 0.503916 21.273836 0.756385 47.359916 0.756385 78.259261 0 39.507823 2.533889 77.245296 7.598602 113.208331 5.067779 35.965079 10.889898 68.383327 17.47658 97.254743-19.755956-4.55773-40.777323-4.307305-63.061035 0.761496-22.288823 5.06369-44.577646 13.546445-66.863402 25.450307-22.288823 11.904885-43.81615 26.594084-64.584026 44.065553-20.766854 17.477602-39.255354 36.346338-55.463455 56.60621-10.637429 13.169274-17.732115 26.339571-21.274858 39.508845-3.546832 13.173363-4.18056 26.088124-1.902206 38.751438 2.278354 12.662292 6.840173 24.567177 13.677279 35.711588 6.83915 11.139301 14.817989 21.273836 23.933449 30.388274 8.104562 7.59758 17.730071 13.423788 28.871416 17.477602 11.144411 4.050748 23.176042 6.329102 36.091825 6.836084s26.08608-0.506982 39.508845-3.03985c13.422765-2.532867 26.466316-6.582593 39.127586-12.15531 12.667403-6.078677 26.215892-14.311007 40.650577-24.694945 14.437752-10.382916 28.364433-22.288823 41.787199-35.711588 13.422765-13.422765 25.836677-27.730706 37.23458-42.928931 11.393814-15.194137 20.892577-30.389296 28.490157-45.584455 8.105584 14.180172 18.741991 27.729683 31.912287 40.646489 13.169274 12.916805 27.729683 24.440431 43.685316 34.570878 15.959721 10.132491 32.671739 18.614223 50.14934 25.454396 17.473513 6.836084 34.569856 11.017666 51.282896 12.535546 24.82169 2.532867 46.475763 0.506982 64.964263-6.078677 18.4885-6.583615 33.93715-15.828887 46.349017-27.730706 12.409823-11.904885 21.401604-25.707887 26.974321-41.411051 5.572717-15.702142 7.470834-31.27856 5.695374-46.726188-1.771372-15.447628-7.090597-30.138872-15.955633-44.069641-8.861969-13.926681-21.652029-24.944347-38.367113-33.047887-22.289845-11.145434-44.069641-21.148113-65.345522-30.013148-21.273836-8.866058-41.660453-16.209124-61.162918-22.036354-19.498376-5.825186-37.610728-9.748166-54.322745-11.775073-16.716106-2.025885-31.657774-1.522991-44.831137 1.516858-6.582593-30.392363-12.15531-63.693741-16.712018-99.910267-4.561819-36.218571-6.840173-73.322316-6.840173-111.31328 0-17.725982 0.380237-35.454009 1.139688-53.183057 0.761496-17.728026 1.644626-33.938172 2.660635-48.629416 1.010898-16.712018 2.278354-32.922164 3.797257-48.623283L429.581621 46.523548z"  horiz-adv-x="1025" />

    
    <glyph glyph-name="emoji" unicode="&#58958;" d="M288.0289 495.711604c0-30.777933 24.953082-55.731014 55.732613-55.731014s55.733013 24.953082 55.733013 55.731014c0 30.778532-24.953482 55.731014-55.733013 55.731014S288.0289 526.490136 288.0289 495.711604zM622.406792 495.711604c0-30.777933 24.953881-55.731014 55.733013-55.731014 30.779132 0 55.732014 24.953082 55.732014 55.731014 0 30.778532-24.953082 55.731014-55.732014 55.731014C647.360873 551.442618 622.406792 526.490136 622.406792 495.711604zM510.941765 133.48859100000004c-78.007911 0-156.033809 39.054521-200.61998 100.314787-16.763035 22.293685-27.822536 50.114822-39.05632 72.407708-5.528652 16.763634 5.525654 33.437329 16.763634 39.054521 16.763634 5.53025 27.823136-5.529251 33.440327-16.761636 5.528652-22.292885 16.763035-39.05552 27.822137-55.731014 44.586171-55.731014 100.318784-83.640092 161.558463-83.640092 61.266261 0 122.616666 27.820937 156.055794 78.0229 11.146443 16.762635 22.293685 38.968579 27.822936 55.731014 5.616192 16.761636 22.292885 22.292885 33.438329 16.761636 16.764634-5.528252 22.294884-22.290887 16.764634-33.437329-5.617192-27.822137-22.292885-50.114023-39.05652-72.407708C666.993562 172.45717000000002 588.966665 133.48859100000004 510.941765 133.48859100000004zM510.941765-60.900214000000005c-243.33382 0-445.129003 201.789787-445.129003 445.149589 0 243.344412 201.795183 445.134998 445.129003 445.134998 243.351408 0 445.14719-201.790586 445.14719-445.134998C956.088756 140.88957300000004 754.293173-60.900214000000005 510.941765-60.900214000000005zM510.941765 770.000436c-213.638553 0-385.743466-172.100316-385.743466-385.751061 0-213.665135 172.104913-385.761054 385.743466-385.761054 213.655542 0 385.756457 172.095919 385.756457 385.761054C896.698223 597.90012 724.597307 770.000436 510.941765 770.000436z"  horiz-adv-x="1024" />

    
    <glyph glyph-name="uc-schedule-fill" unicode="&#58939;" d="M179.143 689.123v110.986c0 15.309 12.386 27.7 27.743 27.7 15.358 0 27.733-12.391 27.733-27.7v-110.986c0-15.353-12.376-27.743-27.733-27.743s-27.743 12.39-27.743 27.743v0zM650.695 661.38c15.358 0 27.734 12.39 27.734 27.743l-0 110.986c0 15.309-12.376 27.7-27.734 27.7-15.357 0-27.723-12.391-27.723-27.7v-110.986c0-15.353 12.367-27.743 27.723-27.743v0zM955.809 162.13c0-122.592-99.361-221.938-221.904-221.938-122.547 0-221.885 99.346-221.885 221.938 0 122.5 99.337 221.871 221.885 221.871 122.543-0.001 221.904-99.371 221.904-221.871v0zM900.332 162.13c0 91.752-74.632 166.423-166.428 166.423-91.796 0-166.428-74.672-166.428-166.423 0-91.839 74.633-166.428 166.428-166.428 91.797-0 166.428 74.589 166.428 166.428v0zM290.095 494.952h-110.952v-110.952h110.952v110.952zM179.143 217.572h110.952v110.982h-110.952v-110.982zM345.572 384h110.971l-0 110.952h-110.971v-110.952zM345.572 217.572h110.971l-0 110.982h-110.971v-110.982zM123.668 167.629v382.799h610.237v-110.952h55.496l-0 216.39c0 33.723-26.89 61.019-60.118 61.019h-23.11v-27.761c0-30.613-24.863-55.476-55.476-55.476-30.632 0-55.476 24.863-55.476 55.476v27.761l-332.857 0v-27.761c0-30.613-24.892-55.476-55.476-55.476-30.584 0-55.476 24.863-55.476 55.476v27.761h-23.13c-33.132 0-60.090-27.296-60.090-61.019v-488.238c0-33.608 26.958-61.008 60.090-61.008h328.262v55.509l-328.261-0c-2.499 0-4.613 2.581-4.613 5.499v0zM622.971 384v110.952h-110.952v-110.952h110.952zM817.123 162.13h-83.219v83.186c0 15.337-12.424 27.761-27.734 27.761-15.357 0-27.743-12.425-27.743-27.761v-110.952c0-15.343 12.386-27.743 27.743-27.743h110.952c15.31 0 27.733 12.4 27.733 27.743 0.001 15.356-12.422 27.766-27.732 27.766v0zM817.123 162.13z"  horiz-adv-x="1024" />

    
    <glyph glyph-name="uc-systemMsg-fill" unicode="&#58904;" d="M1023.544 97.018c0 287.429-255.492 223.556-255.492 447.112 0 18.523-1.788 34.364-5.046 47.841-16.767 112.768-91.977 203.276-189.384 230.933 0.862 3.928 1.309 7.984 1.309 12.168 0 33.182-28.743 60.392-63.873 60.392-35.13 0-63.873-27.21-63.873-60.392 0-4.184 0.447-8.24 1.309-12.232-109.255-30.947-190.534-141.032-192.865-272.898-0.032-1.916-0.064-3.864-0.064-5.844 0-223.524-255.492-159.651-255.492-447.080 0-76.073 170.254-139.722 398.185-155.787 21.461-40.336 63.937-67.769 112.8-67.769 48.863 0 91.339 27.434 112.8 67.801 227.931 16.032 398.185 79.682 398.185 155.755 0 0.224-0.032 0.447-0.032 0.671l1.533-0.671zM824.675 43.013c-54.132-14.403-117.91-24.783-186.414-30.563-5.717 65.31-60.488 116.505-127.203 116.505-66.715 0-121.519-51.226-127.235-116.505-68.44 5.781-132.281 16.16-186.414 30.627-74.444 19.833-110.021 42.060-123.083 53.973 13.030 11.88 48.639 34.108 123.083 53.973 86.58 23.154 197.975 35.865 313.617 35.865 115.642 0 227.037-12.743 313.617-35.865 74.476-19.833 110.053-42.060 123.083-53.973-12.966-11.912-48.576-34.14-123.052-54.037v0z"  horiz-adv-x="1024" />

    
    <glyph glyph-name="uc-hr-fill" unicode="&#58906;" d="M1024 384c0-282.77-229.232-512-512.001-512-282.767 0-511.999 229.23-511.999 512 0 282.768 229.232 512 511.999 512 282.769 0 512.001-229.232 512.001-512v0zM493.962 398.32c0 91.634 2.019 174.914 6.065 249.842h-76.814c3.232-91.364 4.852-166.298 4.852-224.779h-243.782c0 72.772 1.619 147.694 4.852 224.779h-76.808c3.768-76.547 5.659-159.827 5.659-249.842 0-85.981-1.891-178.158-5.659-276.529h76.808c-2.697 107.268-4.040 190.824-4.040 250.654h242.163c0-73.851-1.353-157.4-4.044-250.654h76.814c-4.046 83.82-6.065 175.996-6.065 276.529v0zM844.388 319.888c-18.33 32.347-42.315 52.963-71.963 61.855v4.046c66.304 27.488 99.45 75.058 99.45 142.708 0 81.395-59.020 122.091-177.071 122.091-23.99 0-45.277-0.4-63.873-1.213-18.602-0.806-33.965-1.212-46.089-1.212h-57.006c4.046-71.696 6.065-154.974 6.065-249.842 0-100.803-2.019-192.98-6.065-276.529h75.196c-3.234 62.797-4.853 137.719-4.853 224.779 17.79 0.542 38.135 0.812 61.046 0.812 39.076 0 66.162-3.638 81.261-10.917 19.137-9.163 36.243-29.509 51.34-61.043 11.859-25.068 30.727-76.277 56.601-153.625h78.027c-39.352 105.107-66.704 171.138-82.067 198.090v0zM643.868 399.933c-14.828 0-30.325 0.272-46.495 0.813 0 80.582-0.949 144.327-2.827 191.224 21.021 3.498 47.025 5.253 78.022 5.253 86.784 0 130.176-32.076 130.176-96.216 0-67.385-52.955-101.075-158.877-101.075v0z"  horiz-adv-x="1024" />

    
    <glyph glyph-name="uc-talk" unicode="&#58909;" d="M935.883 99.425c56.887 84.351 86.898 182.835 86.898 285.259 0 282.009-229.412 511.302-511.307 511.302-281.891 0-511.302-229.412-511.302-511.421 0-282.009 229.412-511.307 511.302-511.307 89.797 0 178.202 23.637 255.594 68.362 164.064-63.26 185.5-53.416 198.244-47.502l4.983 2.315 4.172 3.59c9.15 7.766 18.654 15.876 14.827 44.493-3.821 28.27-20.737 77.511-53.411 154.909v0zM845.859 109.505l8.918-20.855c15.758-36.727 32.098-78.324 42.986-109.028-33.137 10.199-79.018 26.533-119.916 42.642l-18.654 7.298-16.916-10.661c-68.942-43.562-148.768-66.619-230.686-66.619-238.448 0-432.403 193.954-432.403 432.403 0 238.443 193.954 432.398 432.403 432.398 238.447 0 432.403-193.954 432.403-432.403 0-93.269-29.197-182.137-84.583-256.984l-13.552-18.19zM266.772 384.566c0-30.969 25.11-56.079 56.079-56.079 30.969 0 56.074 25.11 56.074 56.079 0 30.971-25.105 56.076-56.074 56.076-30.975 0-56.079-25.105-56.079-56.076v0zM453.542 384.566c0-30.969 25.11-56.079 56.079-56.079 30.971 0 56.081 25.11 56.081 56.079 0 30.971-25.11 56.076-56.081 56.076-30.969 0-56.079-25.105-56.079-56.076v0zM642.401 384.566c0-30.969 25.109-56.079 56.079-56.079 30.969 0 56.074 25.11 56.074 56.079 0 30.971-25.105 56.076-56.074 56.076-30.971 0-56.079-25.105-56.079-56.076v0z"  horiz-adv-x="1024" />

    
    <glyph glyph-name="uc-notice-fill" unicode="&#58940;" d="M1088.727 441.857h-213.981c-24.273 0-43.94-21.289-43.94-47.51v-14.825c0-26.257 19.667-47.51 43.94-47.51h213.981c24.273 0 43.94 21.253 43.94 47.51v14.825c0 26.221-19.667 47.51-43.94 47.51v0zM592.239 849.585c-66.55-56.993-205.824-136.88-306.051-213.672l-0.143-0.073c-1.145-0.749-2.289-5.005-3.429-5.716-11.863-7.171-17.171-27.001-81.535-27.001h-125.582c-32.214 0-52.227-16.248-52.227-52.883v-325.675c0-36.64 18.344-54.716 52.227-54.716h126.101c64.055-0.111 69.255-19.793 81.044-26.968 1.145-0.705 2.255-4.963 3.435-5.71l0.142-0.074c97.067-76.79 237.281-162.917 306.052-217.554 20.703-16.469 89.577-45.417 89.577 56.36v821.658c0 101.809-69.426 69.278-89.612 52.024v0zM789.85 625.046c11.374-21.584 33.882-27.001 50.319-12.102l175.901 159.666c16.437 14.899 20.532 44.479 9.192 66.107l-6.452 12.211c-11.34 21.584-33.882 27.006-50.29 12.102l-175.896-159.629c-16.437-14.937-20.566-44.517-9.192-66.102l6.418-12.254zM840.136 160.099c-16.437 14.903-38.945 9.488-50.319-12.060l-6.418-12.216c-11.374-21.584-7.211-51.166 9.192-66.102l175.896-159.629c16.437-14.899 38.949-9.489 50.289 12.064l6.452 12.212c11.34 21.588 7.211 51.165-9.191 66.106l-175.901 159.624z"  horiz-adv-x="1164" />

    
    <glyph glyph-name="arrow-down1" unicode="&#58941;" d="M262.2476672200521 696.1834666666666c19.361066666666666 19.825066666666665 50.50773333333333 19.721600000000002 69.67253333333333-0.31146666666666667l504.8639999999999-528.4288 511.9093333333334 526.1834666666667c19.3632 19.879466666666666 50.50773333333333 19.732266666666664 69.72693333333333-0.3029333333333333 19.175466666666665-20.09173333333333 19.022933333333334-52.441599999999994-0.29333333333333333-72.3296l-544.0853333333333-559.2032c-0.8416-0.8629333333333332-1.9264-1.070933333333333-2.7605333333333335-1.888-0.2026666666666667-0.2026666666666667-0.24853333333333336-0.45653333333333324-0.44266666666666665-0.6655999999999999-9.6096-9.863466666666666-22.182399999999998-14.825599999999996-34.69546666666667-14.825599999999996-12.663466666666666 0-25.379199999999997 5.0624-34.986666666666665 15.130666666666666l-539.1594666666666 564.3114666666667c-19.2192 20.08853333333333-19.069866666666663 52.43946666666667 0.24853333333333336 72.32639999999999v0 0z"  horiz-adv-x="1639" />

    
    <glyph glyph-name="combinedshape" unicode="&#58910;" d="M896.002341 767.97124 447.998025 767.97124C447.998025 838.388436 390.400512 896 320.000366 896L127.997659 896C57.597586 896 0 838.388436 0 767.97124L0 575.921854 1024 575.921854 1024 639.936234C1024 710.354673 966.402414 767.97124 896.002341 767.97124ZM0 0.02876C0-70.388436 57.597586-128 127.997659-128L896.002341-128C966.402414-128 1024-70.388436 1024 0.02876L1024 512.156292 0 512.156292 0 0.02876Z"  horiz-adv-x="1024" />

    
    <glyph glyph-name="icann" unicode="&#58911;" d="M0 749.69393C0 830.496541 65.515703 896 146.30607 896L877.69393 896C958.496541 896 1024 830.484297 1024 749.69393L1024 18.30607C1024-62.496541 958.484297-128 877.69393-128L146.30607-128C65.503459-128 0-62.484297 0 18.30607L0 749.69393ZM517.115611 623.579136 588.342126 552.352622 635.817691 552.352622 540.840229 647.303753 493.390994 647.303753 398.439863 552.352622 445.915429 552.352622 517.115611 623.579136ZM707.017874 481.152439 327.213349 481.152439C314.047634 481.152439 303.488731 470.540873 303.488731 457.40149L303.488731 196.299045C303.488731 183.159662 314.047634 172.548096 327.213349 172.548096L707.017874 172.548096C720.157257 172.548096 730.768823 183.159662 730.768823 196.299045L730.768823 457.40149C730.768823 470.540873 720.157257 481.152439 707.017874 481.152439ZM754.519771 172.548096C754.519771 159.435045 743.881874 148.797147 730.768823 148.797147L303.488731 148.797147C290.323017 148.797147 279.737783 159.435045 279.737783 172.548096L279.737783 481.152439C279.737783 494.26549 290.323017 504.877056 303.488731 504.877056L730.768823 504.877056C743.881874 504.877056 754.519771 494.26549 754.519771 481.152439L754.519771 172.548096ZM754.519771 528.628005 279.737783 528.628005C266.572069 528.628005 255.986834 518.016439 255.986834 504.877056L255.986834 148.797147C255.986834 135.684096 266.572069 125.07253 279.737783 125.07253L754.519771 125.07253C767.632823 125.07253 778.244389 135.684096 778.244389 148.797147L778.244389 504.877056C778.244389 518.016439 767.632823 528.628005 754.519771 528.628005L754.519771 528.628005Z"  horiz-adv-x="1024" />

    
    <glyph glyph-name="iccol" unicode="&#58912;" d="M0 749.69393C0 830.496541 65.515703 896 146.30607 896L877.69393 896C958.496541 896 1024 830.484297 1024 749.69393L1024 18.30607C1024-62.496541 958.484297-128 877.69393-128L146.30607-128C65.503459-128 0-62.484297 0 18.30607L0 749.69393ZM691.743722 307.700868C646.761757 307.700868 607.370781 284.259306 584.794851 248.966722L448.686416 326.798102C457.510166 344.027355 462.89487 363.247557 462.89487 384 462.89487 396.798369 460.492946 408.851646 456.928497 420.531163L598.506576 501.469096C621.742651 476.285762 654.712598 460.25464 691.702469 460.25464 761.829742 460.25464 818.781667 517.168538 818.781667 587.333837 818.781667 657.501564 761.829742 714.413034 691.702469 714.413034 621.493482 714.413034 564.623265 657.501564 564.623265 587.333837 564.623265 574.534663 567.065637 562.440931 570.545145 550.802673L428.970299 469.905189C405.734224 495.088523 372.764277 511.079197 335.815665 511.079197 265.606678 511.079197 208.695216 454.208987 208.695216 384 208.695216 313.791013 265.606678 256.920803 335.774413 256.920803 364.768936 256.920803 391.152823 267.02682 412.528201 283.304689L412.029045 282.435825 565.991285 194.415916C565.410421 189.903316 564.623265 185.428743 564.623265 180.581222 564.623265 110.538884 621.493482 53.586966 691.702469 53.586966 761.829742 53.586966 818.781667 110.538884 818.781667 180.581222 818.822927 250.831462 761.870197 307.700868 691.743722 307.700868ZM691.743722 663.632157C733.82705 663.632157 768.04205 629.458417 768.04205 587.375097 768.04205 545.249704 733.82705 511.120457 691.743722 511.120457 649.577882 511.120457 615.44783 545.249704 615.44783 587.375097 615.44783 629.458417 649.577882 663.632157 691.743722 663.632157ZM335.815665 307.700868C293.690273 307.700868 259.602293 341.83416 259.602293 384 259.602293 426.124581 293.731533 460.25464 335.815665 460.25464 377.940253 460.25464 412.070305 426.124581 412.070305 384 412.070305 341.83416 377.940253 307.700868 335.815665 307.700868ZM691.743722 104.326583C649.577882 104.326583 615.44783 138.541583 615.44783 180.539963 615.44783 222.790751 649.577882 256.920803 691.743722 256.920803 733.82705 256.920803 768.04205 222.790751 768.04205 180.539963 768.04205 138.541583 733.82705 104.326583 691.743722 104.326583Z"  horiz-adv-x="1024" />

    
    <glyph glyph-name="icdiscuss" unicode="&#58913;" d="M497.503086 371.982629l-125.176686 0c-7.445943 0-13.502171-5.946514-13.502171-13.2608s6.056229-13.253486 13.502171-13.253486l125.176686 0c7.453257 0 13.509486 5.931886 13.509486 13.253486C511.005257 366.043429 504.956343 371.982629 497.503086 371.982629zM877.692343 896l-731.384686 0C65.514057 896 0 830.493257 0 749.692343l0-731.384686c0-80.7936 65.506743-146.307657 146.307657-146.307657l731.384686 0c80.7936 0 146.307657 65.499429 146.307657 146.307657l0 731.384686C1024 830.485943 958.500571 896 877.692343 896zM614.436571 211.031771l-65.572571 0-122.711771-125.827657c-5.193143-5.332114-12.280686-8.162743-19.499886-8.162743-3.386514 0-6.802286 0.621714-10.064457 1.916343-10.232686 4.022857-16.9472 13.7728-16.9472 24.590629L379.640686 213.650286c-109.933714 17.005714-192.687543 116.538514-192.687543 237.568 0 132.447086 101.412571 240.215771 226.040686 240.215771l201.442743 0c124.628114 0 226.040686-107.761371 226.040686-240.215771S739.064686 211.031771 614.436571 211.031771zM645.997714 456.374857l-273.678629 0c-7.445943 0-13.502171-5.946514-13.502171-13.253486 0-7.314286 6.056229-13.268114 13.502171-13.268114l273.678629 0c7.445943 0 13.502171 5.946514 13.502171 13.268114C659.499886 450.421029 653.443657 456.374857 645.997714 456.374857zM645.997714 558.833371l-273.678629 0c-7.445943 0-13.502171-5.931886-13.502171-13.246171 0-7.314286 6.056229-13.253486 13.502171-13.253486l273.678629 0c7.445943 0 13.502171 5.9392 13.502171 13.253486C659.499886 552.894171 653.443657 558.833371 645.997714 558.833371z"  horiz-adv-x="1024" />

    
    <glyph glyph-name="icdoc" unicode="&#58914;" d="M0 749.69393C0 830.496541 65.515703 896 146.30607 896L877.69393 896C958.496541 896 1024 830.484297 1024 749.69393L1024 18.30607C1024-62.496541 958.484297-128 877.69393-128L146.30607-128C65.503459-128 0-62.484297 0 18.30607L0 749.69393ZM646.048549 550.687203 690.518967 550.687203 639.226748 324.289339 572.521121 642.662341 465.367369 642.662341 387.817648 324.289339 329.703629 642.662341 217.723129 642.662341 331.409079 130.215717 440.847499 130.215717 517.560576 433.243509 586.196904 130.215717 687.140242 130.215717 817.494557 642.662341 646.080724 642.662341 646.080724 550.687203 646.048549 550.687203Z"  horiz-adv-x="1024" />

    
    <glyph glyph-name="icet" unicode="&#58915;" d="M877.692343 896l-731.384686 0C65.514057 896 0 830.493257 0 749.692343l0-731.384686c0-80.7936 65.506743-146.307657 146.307657-146.307657l731.384686 0c80.7936 0 146.307657 65.499429 146.307657 146.307657l0 731.384686C1024 830.485943 958.500571 896 877.692343 896zM559.659886 601.973029l-268.6976 0 0-166.114743 266.327771 0 0-51.909486-266.327771 0L290.962286 174.811429l266.327771 0 0-52.655543L234.057143 122.155886 234.057143 654.628571l325.602743 0L559.659886 601.973029zM799.202743 404.392229l-75.044571 0 0-285.205943-34.245486 0 0 285.205943L614.4 404.392229 614.4 435.2l184.802743 0L799.202743 404.392229z"  horiz-adv-x="1024" />

    
    <glyph glyph-name="icform" unicode="&#58916;" d="M0 749.69393C0 830.496541 65.515703 896 146.306048 896L877.693952 896C958.496549 896 1024 830.484297 1024 749.69393L1024 18.30607C1024-62.496541 958.484261-128 877.693952-128L146.306048-128C65.503459-128 0-62.484297 0 18.30607L0 749.69393ZM219.428571 112.362562 807.308361 112.362562 807.308361 654.628571 219.428571 654.628571 219.428571 112.362562ZM623.606565 460.982374 770.59072 460.982374 770.59072 577.170096 623.606565 577.170096 623.606565 460.982374ZM439.876389 460.982374 586.860544 460.982374 586.860544 577.170096 439.876389 577.170096 439.876389 460.982374ZM256.174592 460.982374 403.158747 460.982374 403.158747 577.170096 256.174592 577.170096 256.174592 460.982374ZM623.606565 306.037087 770.59072 306.037087 770.59072 422.253136 623.606565 422.253136 623.606565 306.037087ZM439.876389 306.037087 586.860544 306.037087 586.860544 422.253136 439.876389 422.253136 439.876389 306.037087ZM256.174592 306.037087 403.158747 306.037087 403.158747 422.253136 256.174592 422.253136 256.174592 306.037087ZM623.606565 151.0918 770.59072 151.0918 770.59072 267.279521 623.606565 267.279521 623.606565 151.0918ZM439.876389 151.0918 586.860544 151.0918 586.860544 267.279521 439.876389 267.279521 439.876389 151.0918ZM256.174592 151.0918 403.158747 151.0918 403.158747 267.279521 256.174592 267.279521 256.174592 151.0918Z"  horiz-adv-x="1024" />

    
    <glyph glyph-name="ichtm" unicode="&#58918;" d="M0 749.69393C0 830.496541 65.515739 896 146.306048 896L877.693952 896C958.496549 896 1024 830.484297 1024 749.69393L1024 18.30607C1024-62.496541 958.484261-128 877.693952-128L146.306048-128C65.503451-128 0-62.484297 0 18.30607L0 749.69393ZM668.904375 333.624525 820.462446 333.624525C821.633463 344.163942 822.106039 354.867712 822.106039 365.859109 822.106039 417.364604 808.279479 465.665119 784.11893 507.268081 809.080686 573.606824 808.197266 629.89922 774.771127 663.530847 742.988507 695.169638 657.748626 690.033474 561.35307 647.362194 554.224055 647.896349 547.033454 648.183976 539.76064 648.183976 407.452891 648.183976 296.491154 557.129999 265.797413 434.478314 307.297646 487.606828 350.955081 526.128091 409.240283 554.171568 403.939767 549.199755 372.999534 518.444383 367.781157 513.226035 214.004297 359.510806 165.498368 158.645563 217.702327 106.441552 257.374135 66.790341 329.259886 73.487901 411.808402 113.91981 450.206354 94.361285 493.658331 83.349343 539.740087 83.349343 663.727177 83.349343 768.792576 163.165389 806.88245 274.31206L654.153362 274.31206C633.136128 235.544261 592.046811 209.16491 544.876251 209.16491 497.705691 209.16491 456.616302 235.544261 435.599141 274.31206 426.251264 291.836665 420.889161 311.908805 420.889161 333.151993L420.889161 333.603979 668.904375 333.624525ZM421.135653 408.119501C424.64885 470.472572 476.482999 520.211222 539.76064 520.211222 603.038208 520.211222 654.87243 470.472572 658.365001 408.119501L421.135653 408.119501ZM773.394578 632.179683C794.925422 610.422872 794.370706 570.401858 775.962697 520.457757 744.406089 568.552836 698.570898 606.437208 644.476782 628.070744 702.351141 652.888708 749.398455 656.175857 773.394578 632.179683ZM257.538487 116.344086C230.070272 143.812308 238.349751 201.481201 273.727634 270.942735 295.751534 209.144364 338.669349 157.248527 393.996142 123.822343 332.75253 96.045948 282.602935 91.320678 257.538487 116.344086Z"  horiz-adv-x="1024" />

    
    <glyph glyph-name="icmail" unicode="&#58919;" d="M0 749.69393C0 830.496541 65.515703 896 146.30607 896L877.69393 896C958.496541 896 1024 830.484297 1024 749.69393L1024 18.30607C1024-62.496541 958.484297-128 877.69393-128L146.30607-128C65.503459-128 0-62.484297 0 18.30607L0 749.69393ZM507.583539 340.711746 789.010293 603.428571 226.419836 603.428571 507.583539 340.711746ZM201.213557 177.001794C201.213557 165.830444 209.789352 157.257143 220.444584 157.257143L796.283326 157.257143C806.941052 157.257143 815.777397 165.830444 815.777397 177.001794L815.777397 581.342062 635.695024 413.473243 776.275624 222.738754 602.174113 381.77122 507.583539 293.679506 411.437129 383.5901 235.774179 222.738754 377.39512 415.55268 201.213557 580.0393 201.213557 177.001794Z"  horiz-adv-x="1024" />

    
    <glyph glyph-name="icmetting" unicode="&#58920;" d="M0 749.69393C0 830.496541 65.515703 896 146.30607 896L877.69393 896C958.496541 896 1024 830.484297 1024 749.69393L1024 18.30607C1024-62.496541 958.484297-128 877.69393-128L146.30607-128C65.503459-128 0-62.484297 0 18.30607L0 749.69393ZM522.453855 409.048049C568.295212 414.07578 603.931816 451.193008 603.19322 496.294298 602.291588 543.910437 560.900447 582.358996 510.918744 581.470625 460.787756 580.732028 420.714686 541.249741 421.600607 493.335998 422.341164 448.382523 459.161278 412.301488 505.298271 408.752413 417.165612 403.131941 347.958901 332.448044 349.438047 247.271717 350.339679 198.47206 434.614374 178.064998 517.721264 179.248516 600.975477 180.727669 684.525327 203.647612 683.799991 252.447269 682.292363 337.623589 610.733839 406.08975 522.453855 409.048049ZM754.175005 434.33502C788.777377 437.438683 815.986461 465.388325 815.395686 499.104293 814.65513 534.595043 784.060504 562.985677 746.780233 562.394902 709.664483 561.80412 680.088371 532.523147 680.681114 497.034854 681.25666 463.171072 709.354123 435.961498 744.414676 434.187205 702.269718 431.967503 664.709047 410.229599 643.416071 374.888631 642.08474 372.521604 642.675515 369.713086 644.760664 368.086118 674.765005 344.130472 693.249953 309.083173 695.630241 272.113766 695.778063 269.453063 697.700169 267.381175 700.347611 266.938214 716.332939 264.572657 734.063579 263.536962 752.105077 263.832101 783.764868 264.277519 813.339509 269.008143 835.210006 277.141504 868.646049 289.414707 875.448079 306.125371 875.300747 317.955123 874.249333 381.543329 820.260381 432.708059 754.175005 434.33502ZM382.400197 365.128309C384.336055 366.902601 384.928797 369.860901 383.434423 372.078153 360.972661 406.680525 322.656702 427.235401 280.513704 428.123282 315.411222 431.081582 342.620306 459.177077 342.029531 493.040859 341.436789 528.383298 310.841673 556.776389 273.56337 556.183647 236.446149 555.592872 206.706995 526.313867 207.314959 490.823117 207.890512 457.107149 235.853407 430.045389 270.737664 427.975958 204.637067 424.426884 152.438118 371.635193 153.619668 307.899663 153.915304 296.069413 161.175998 279.656353 195.039781 268.269553 217.368949 260.876259 246.945068 257.030078 278.738922 257.622821 296.468092 257.770635 314.361776 259.544927 330.199281 262.502736 332.859984 262.946187 334.784059 265.163432 334.784059 267.678281 335.966098 304.794032 353.267039 340.284292 382.400197 365.128309Z"  horiz-adv-x="1024" />

    
    <glyph glyph-name="icmp3" unicode="&#58921;" d="M877.692343 896 146.307657 896C65.514057 896 0 830.493257 0 749.692343l0-731.384686C0-62.485943 65.506743-128 146.307657-128l731.384686 0c80.7936 0 146.307657 65.499429 146.307657 146.307657L1024 749.692343C1024 830.485943 958.500571 896 877.692343 896zM768.768 608.095086l0-63.809829 0-271.2064c0-44.046629-50.219886-79.762286-112.171886-79.762286-61.944686 0-112.171886 35.715657-112.171886 79.762286S594.658743 352.841143 656.603429 352.841143c17.217829 0 33.506743-2.757486 48.069486-7.672686L704.672914 509.469257l-224.336457-60.913371L480.336457 209.261714c0-44.046629-50.219886-79.762286-112.164571-79.762286C306.219886 129.499429 256 165.215086 256 209.261714s50.219886 79.762286 112.164571 79.762286c17.210514 0 33.506743-2.757486 48.069486-7.672686l0 167.204571L416.234057 544.285257 768.768 640 768.768 608.095086z"  horiz-adv-x="1024" />

    
    <glyph glyph-name="icmp4" unicode="&#58922;" d="M0 749.69393C0 830.496541 65.515703 896 146.30607 896L877.69393 896C958.496541 896 1024 830.484297 1024 749.69393L1024 18.30607C1024-62.496541 958.484297-128 877.69393-128L146.30607-128C65.503459-128 0-62.484297 0 18.30607L0 749.69393ZM841.801969 625.371429 182.890686 625.371429C153.770693 625.371429 130.182268 601.779273 130.182268 572.677683L130.182268 188.004827C130.182268 158.907509 153.770693 135.314286 182.890686 135.314286L841.801969 135.314286C870.910223 135.314286 894.510387 158.907509 894.510387 188.004827L894.510387 572.677683C894.510387 601.779273 870.910223 625.371429 841.801969 625.371429ZM388.470287 556.869566 485.994789 556.869566 485.994789 583.217503 388.470287 583.217503 388.470287 556.869566ZM580.584346 387.188027C583.034763 385.775462 584.54065 383.166917 584.54065 380.340721 584.54065 377.515593 583.034763 374.907048 580.584346 373.493416L452.017723 299.295422C450.804261 298.585936 449.437104 298.235999 448.061418 298.235999 446.701736 298.235999 445.330315 298.585936 444.121117 299.295422 441.665368 300.699451 440.160541 303.316531 440.160541 306.138463L440.160541 454.544055C440.160541 457.370251 441.665368 459.983067 444.121117 461.39136 446.556592 462.803924 449.57478 462.803924 452.017723 461.39136L580.584346 387.188027ZM238.245895 172.197771 335.761861 172.197771 335.761861 198.54464 238.245895 198.54464 238.245895 172.197771ZM238.245895 556.869566 335.761861 556.869566 335.761861 583.217503 238.245895 583.217503 238.245895 556.869566ZM388.470287 172.197771 485.994789 172.197771 485.994789 198.54464 388.470287 198.54464 388.470287 172.197771ZM636.214908 172.197771 538.710682 172.197771 538.710682 198.54464 636.218105 198.54464 636.218105 172.197771 636.214908 172.197771ZM636.214908 556.869566 538.710682 556.869566 538.710682 583.217503 636.218105 583.217503 636.218105 556.869566 636.214908 556.869566ZM688.943601 172.197771 786.459568 172.197771 786.459568 198.54464 688.943601 198.54464 688.943601 172.197771ZM688.943601 556.869566 786.459568 556.869566 786.459568 583.217503 688.943601 583.217503 688.943601 556.869566Z"  horiz-adv-x="1024" />

    
    <glyph glyph-name="icnews" unicode="&#58923;" d="M877.692343 896 146.307657 896C65.514057 896 0 830.493257 0 749.692343l0-731.384686C0-62.485943 65.506743-128 146.307657-128l731.384686 0c80.7936 0 146.307657 65.499429 146.307657 146.307657L1024 749.692343C1024 830.485943 958.500571 896 877.692343 896zM348.664686 561.013029l130.6112 0 0-24.795429L381.834971 536.2176l0-75.015314 81.656686 0 0-24.480914L381.834971 436.721371l0-84.648229 104.235886 0 0-24.802743L348.664686 327.2704 348.664686 561.013029zM109.714286 561.013029l32.533943 0 117.6576-180.516571 0 180.516571 28.430629 0 0-233.742629-32.373029 0-117.818514 180.516571 0-180.516571L109.714286 327.2704 109.714286 561.013029zM124.394057 274.285714l350.983314 0C483.488914 274.285714 490.057143 267.790629 490.057143 259.657143c0-8.074971-6.597486-14.628571-14.679771-14.628571L124.394057 245.028571C116.282514 245.028571 109.714286 251.523657 109.714286 259.657143 109.714286 267.732114 116.311771 274.285714 124.394057 274.285714zM621.706971 168.630857 124.350171 168.630857c-8.082286 0-14.635886 6.495086-14.635886 14.628571 0 8.074971 6.560914 14.628571 14.635886 14.628571l497.3568 0c8.074971 0 14.635886-6.495086 14.635886-14.628571C636.342857 175.177143 629.781943 168.630857 621.706971 168.630857zM704.490057 327.2704l-33.009371 0-41.223314 180.202057-43.125029-180.202057-32.841143 0-60.174629 233.742629 31.904914 0 47.857371-184.6272 44.053943 184.6272 31.8976 0 41.698743-182.096457 51.485257 182.096457 27.004343 0L704.490057 327.2704zM906.093714 339.909486c-15.008914-12.324571-34.881829-18.475886-59.618743-18.475886-15.689143 0-35.744914 3.423086-60.174629 10.261943L786.300343 364.544c26.331429-12.214857 47.959771-18.314971 64.914286-18.314971 13.056 0 23.559314 3.415771 31.509943 10.254629 7.950629 6.853486 11.922286 15.850057 11.922286 27.011657 0 9.157486-2.603886 16.954514-7.811657 23.376457-5.215086 6.421943-14.818743 13.582629-28.8256 21.482057l-16.106057 9.3184c-19.902171 11.373714-33.930971 22.081829-42.093714 32.138971-8.155429 10.057143-12.2368 21.767314-12.2368 35.137829 0 18.000457 6.531657 32.826514 19.587657 44.463543 13.048686 11.629714 29.696 17.451886 49.905371 17.451886 18.000457 0 37.010286-2.998857 57.014857-9.003886l0-30.325029c-24.641829 9.684114-43.015314 14.526171-55.120457 14.526171-11.476114 0-20.948114-3.050057-28.430629-9.157486s-11.205486-13.794743-11.205486-23.054629c0-7.789714 2.728229-14.687086 8.206629-20.692114 5.4784-5.997714 15.477029-13.1584 30.010514-21.482057l16.7424-9.472c20.216686-11.476114 34.318629-22.3232 42.327771-32.533943 8.001829-10.210743 12.002743-22.4768 12.002743-36.798171C928.599771 368.544914 921.102629 352.226743 906.093714 339.909486z"  horiz-adv-x="1024" />

    
    <glyph glyph-name="icoffdoc" unicode="&#58924;" d="M513.104457 653.538743c-149.496686 0-270.6432-121.1392-270.6432-270.621257s121.153829-270.635886 270.6432-270.635886c149.4528 0 270.621257 121.168457 270.621257 270.635886S662.557257 653.538743 513.104457 653.538743zM713.9328 431.967086c0.8192-2.625829 1.272686-5.280914 1.243429-7.936 0-6.692571-2.589257-13.216914-7.511771-18.0736L627.7632 326.026971l22.9376-114.592914c1.9456-9.771886-1.952914-19.821714-9.998629-25.7024-4.461714-3.2768-9.771886-4.9152-15.111314-4.9152-4.264229 0-8.528457 1.067886-12.426971 3.218286L510.376229 241.152 407.625143 184.042057c-3.898514-2.1504-8.192-3.218286-12.456229-3.218286-5.280914 0-10.620343 1.6384-15.082057 4.9152-8.053029 5.880686-11.973486 15.901257-10.027886 25.7024l22.901029 114.592914-79.872 79.930514c-4.9152 4.856686-7.511771 11.381029-7.511771 18.0736 0 2.655086 0.394971 5.310171 1.243429 7.936 2.9696 9.150171 10.847086 15.850057 20.333714 17.342171l108.266057 17.115429 51.799771 109.3632c4.264229 8.923429 13.246171 14.628571 23.157029 14.628571s18.8928-5.675886 23.135086-14.628571l51.829029-109.3632 108.258743-17.115429C703.093029 447.817143 710.970514 441.095314 713.9328 431.967086zM877.692343 896 146.307657 896C65.514057 896 0 830.493257 0 749.692343l0-731.384686C0-62.485943 65.506743-128 146.307657-128l731.384686 0c80.7936 0 146.307657 65.499429 146.307657 146.307657L1024 749.692343C1024 830.485943 958.500571 896 877.692343 896zM513.104457 89.131886c-162.289371 0-293.800229 131.518171-293.800229 293.792914 0 162.267429 131.510857 293.770971 293.800229 293.770971 162.245486 0 293.763657-131.510857 293.763657-293.770971S675.342629 89.131886 513.104457 89.131886z"  horiz-adv-x="1024" />

    
    <glyph glyph-name="icpdf" unicode="&#58925;" d="M0 749.69393C0 830.496541 65.515739 896 146.306048 896L877.693952 896C958.496549 896 1024 830.484297 1024 749.69393L1024 18.30607C1024-62.496541 958.484261-128 877.693952-128L146.306048-128C65.503451-128 0-62.484297 0 18.30607L0 749.69393ZM809.646958 318.063587C797.963483 329.531582 772.018395 335.620535 732.524837 336.139323 705.811822 336.439676 673.64096 334.091469 639.824603 329.367749 624.685422 338.050655 609.052526 347.525405 596.82048 358.938785 563.854336 389.5747 536.345966 432.115485 519.204645 478.915803 520.329143 483.284568 521.261641 487.161841 522.166711 491.039108 522.166711 491.039108 540.734171 596.053138 535.824896 631.521997 535.139255 636.409541 534.727826 637.802086 533.411401 641.59744L531.793262 645.720459C526.746843 657.324968 516.846007 669.612105 501.322825 668.929485L492.244846 669.257143 491.997989 669.257143C474.692096 669.257143 460.567698 660.437709 456.865134 647.249525 445.593015 605.910148 457.221705 544.092219 478.284946 464.007417L472.881957 450.983058C457.797632 414.3674 438.928457 377.533308 422.253422 345.013365L420.086784 340.808433C402.561463 306.650207 386.626926 277.625271 372.228242 253.078309L357.335845 245.241849C356.238848 244.668453 330.732544 231.207212 324.753627 227.602988 273.960521 197.403948 240.308736 163.163802 234.741248 135.968285 232.958537 127.28538 234.274962 116.145042 243.325586 111.039056L257.72427 103.803304C263.977399 100.717868 270.559671 99.106889 277.306514 99.106889 313.481509 99.106889 355.470848 143.968571 413.312512 244.477316 480.095086 266.129979 556.147639 284.123802 622.792997 294.008115 673.586103 265.529271 736.035328 245.760636 775.474103 245.760636 782.46773 245.760636 788.501504 246.415952 793.410706 247.726577 800.980334 249.71983 807.343177 253.979363 811.237669 259.822577 818.889582 271.317877 820.425435 287.072709 818.368512 303.264417 817.655442 308.070056 813.815735 313.995184 809.646958 318.063587ZM269.380389 126.411622C275.962661 144.378141 302.072247 179.901608 340.688238 211.356665 343.101733 213.322613 349.080576 218.892778 354.565851 224.080677 314.194578 159.996453 287.152494 134.493828 269.380389 126.411622ZM498.031689 650.662612C509.660379 650.662612 516.27008 621.501155 516.818578 594.16911 517.367077 566.809761 510.949376 547.61453 502.968393 533.388763 496.358693 554.440719 493.177271 587.561362 493.177271 609.241329 493.177271 609.241329 492.711058 650.662612 498.031689 650.662612ZM429.823049 277.079172C437.913746 291.523379 446.360942 306.73212 454.972782 322.869226 475.953737 362.379184 489.227922 393.315452 499.10133 418.736165 518.738432 383.158089 543.202523 352.931738 571.945033 328.712433 575.537883 325.708917 579.322661 322.650785 583.326866 319.619957 524.82699 308.124665 474.308169 294.117332 429.823049 277.079172ZM798.402267 280.355745C794.836919 278.144059 784.634368 276.860738 778.079525 276.860738 756.906642 276.860738 730.714697 286.499313 693.991131 302.172233 708.115602 303.209808 721.033289 303.728603 732.634551 303.728603 753.86229 303.728603 760.17035 303.810516 780.931877 298.568002 801.693403 293.270886 801.967689 282.594736 798.402267 280.355745Z"  horiz-adv-x="1024" />

    
    <glyph glyph-name="icpicture" unicode="&#58926;" d="M877.692343 896 146.307657 896C65.514057 896 0 830.493257 0 749.692343l0-731.384686C0-62.485943 65.506743-128 146.307657-128l731.384686 0c80.7936 0 146.307657 65.499429 146.307657 146.307657L1024 749.692343C1024 830.485943 958.500571 896 877.692343 896zM809.040457 153.6 212.114286 153.6 212.114286 610.742857l596.926171 0L809.040457 153.6zM771.730286 575.575771 249.424457 575.575771l0-386.816 522.305829 0L771.730286 575.575771zM286.727314 223.926857l111.9232 281.322057 149.233371-175.8208 74.613029 52.743314 111.930514-158.244571L286.727314 223.926857zM678.465829 434.914743c-30.910171 0-55.9616 23.617829-55.9616 52.743314 0 29.1328 25.058743 52.750629 55.9616 52.750629s55.9616-23.617829 55.9616-52.750629C734.427429 458.532571 709.368686 434.914743 678.465829 434.914743z"  horiz-adv-x="1024" />

    
    <glyph glyph-name="icplan" unicode="&#58927;" d="M0 749.69393C0 830.496541 65.515703 896 146.30607 896L877.69393 896C958.496541 896 1024 830.484297 1024 749.69393L1024 18.30607C1024-62.496541 958.484297-128 877.69393-128L146.30607-128C65.503459-128 0-62.484297 0 18.30607L0 749.69393ZM621.716246 234.262462 507.641271 234.262462C488.179792 234.262462 472.19268 218.318285 472.19268 198.735506 472.19268 179.228526 488.179792 163.233814 507.641271 163.233814L621.716246 163.233814C641.152549 163.233814 657.03895 179.228526 657.03895 198.735506 657.064126 218.318285 641.177724 234.262462 621.716246 234.262462ZM781.086362 408.40015 507.668963 408.40015C488.232667 408.40015 472.321083 392.506507 472.321083 372.999526 472.321083 353.391477 488.232667 337.497841 507.668963 337.497841L781.086362 337.497841C800.54784 337.497841 816.358715 353.391477 816.358715 372.999526 816.358715 392.506507 800.54784 408.40015 781.086362 408.40015ZM507.648827 511.766916 695.868752 511.766916C715.380582 511.766916 731.191464 527.711093 731.191464 547.192803 731.191464 566.750318 715.380582 582.643961 695.868752 582.643961L507.648827 582.643961C488.212524 582.643961 472.200236 566.750318 472.200236 547.192803 472.200236 527.711093 488.212524 511.766916 507.648827 511.766916ZM294.728177 484.03012 402.232064 622.802556C404.850432 626.163215 405.958195 630.256655 405.404314 634.249011L403.415369 641.905247 382.216704 658.380054C379.371754 660.654182 375.972923 661.942857 372.246791 661.942857L363.384642 660.376232 291.178284 566.985311 255.301691 605.620246C252.381206 608.753496 248.40331 610.421189 244.04777 610.421189L236.746569 609.359931 217.108853 590.964743C210.814713 585.102548 210.411893 575.121642 216.227672 568.85515L294.728177 484.03012ZM382.231808 280.407077C379.386858 282.681212 375.962851 284.020421 372.261895 284.020421L363.424922 282.479067 291.143036 189.11341 255.392322 227.748345C252.396317 230.805789 248.368062 232.498747 244.062874 232.498747L236.761673 231.361682 217.123957 213.042308C210.804641 207.23064 210.426997 197.199206 216.242783 190.88218L294.718106 106.057143 402.222 244.930655C404.84036 248.089168 405.948123 252.233143 405.444593 256.225499L403.430473 263.932277 382.231808 280.407077ZM382.231808 468.361362C379.386858 470.660762 375.962851 471.898902 372.261895 471.898902L363.424922 470.307006 291.143036 377.092966 255.392322 415.626825C252.396317 418.633728 248.368062 420.427769 244.062874 420.427769L236.761673 419.391773 217.123957 401.021857C210.804641 395.10912 210.426997 385.153492 216.242783 378.861729L294.718106 293.986158 402.222 432.809136C404.84036 436.018191 405.948123 440.136887 405.444593 444.179785L403.430473 451.861292 382.231808 468.361362Z"  horiz-adv-x="1024" />

    
    <glyph glyph-name="icppt" unicode="&#58928;" d="M0 749.69393C0 830.496541 65.515703 896 146.30607 896L877.69393 896C958.496541 896 1024 830.484297 1024 749.69393L1024 18.30607C1024-62.496541 958.484297-128 877.69393-128L146.30607-128C65.503459-128 0-62.484297 0 18.30607L0 749.69393ZM686.621155 562.781945C698.988559 556.748112 709.756204 548.187429 717.647353 537.666516 734.244908 515.506739 738.905761 485.322284 731.506849 447.955427 724.031027 410.129145 707.279645 378.214173 682.88324 355.089598 678.42236 350.449371 673.623069 346.11543 668.546896 342.133716 642.427663 321.643198 609.417143 310.816 573.130181 310.816L567.300272 310.816 457.716414 310.816 426.674834 165.942857 363.022672 165.942857 367.868116 188.102627 390.049463 188.102627 421.091043 332.97577 511.585404 332.97577C598.24956 332.97577 670.685038 386.131661 690.066798 476.516571 712.032797 578.846632 638.335956 625.371429 574.976066 625.371429L359.007883 625.371429 263.314286 188.102627 336.395827 188.102627 324.843681 135.314286 451.578858 135.314286 482.605056 280.187429 573.099418 280.187429C659.763573 280.187429 732.199051 333.343312 751.580811 423.72823 767.79381 499.19703 731.968322 544.297596 686.621155 562.781945ZM466.330529 536.318859 528.398307 536.318859C559.439887 536.318859 580.113766 509.733259 571.068943 476.516571 563.316239 443.284568 530.982546 416.714284 498.664229 416.714284L439.180683 416.714284 466.330529 536.318859Z"  horiz-adv-x="1024" />

    
    <glyph glyph-name="icschedule" unicode="&#58929;" d="M0 749.69393C0 830.496541 65.515703 896 146.30607 896L877.69393 896C958.496541 896 1024 830.484297 1024 749.69393L1024 18.30607C1024-62.496541 958.484297-128 877.69393-128L146.30607-128C65.503459-128 0-62.484297 0 18.30607L0 749.69393ZM739.135371 592.975067 682.186957 592.975067 682.186957 573.976942C682.186957 553.024724 665.183788 535.98069 644.221352 535.98069 623.258909 535.98069 606.25574 553.024724 606.25574 573.976942L606.25574 592.975067 416.427688 592.975067 416.427688 573.976942C416.427688 553.024724 399.424519 535.98069 378.462076 535.98069 357.499641 535.98069 340.496472 553.024724 340.496472 573.976942L340.496472 592.975067 283.548058 592.975067C262.666971 592.975067 245.582446 575.876754 245.582446 554.978816L245.582446 137.020043C245.582446 116.149248 262.666971 99.023792 283.548058 99.023792L739.135371 99.023792C760.016457 99.023792 777.100983 116.149248 777.100983 137.020043L777.100983 554.978816C777.100983 575.876754 760.016457 592.975067 739.135371 592.975067ZM739.135371 137.101466C739.108257 137.074322 739.108257 137.047186 739.054021 137.020043L283.629407 137.020043C283.602293 137.047186 283.575172 137.074322 283.548058 137.101466L283.548058 478.986313 739.135371 478.986313 739.135371 137.101466ZM625.238543 175.016294 663.204155 175.016294 663.204155 440.990062 587.272931 440.990062 587.272931 402.99381 625.238543 402.99381 625.238543 175.016294ZM549.307326 440.990062 359.479274 440.990062 359.479274 402.99381 511.341714 402.99381 511.341714 327.0013 359.479274 327.0013 359.479274 289.005049 511.341714 289.005049 511.341714 213.012546 359.479274 213.012546 359.479274 175.016294 549.307326 175.016294 549.307326 440.990062ZM644.221352 554.978816C654.689009 554.978816 663.204155 563.500829 663.204155 573.976942L663.204155 649.969445C663.204155 660.445557 654.689009 668.96757 644.221352 668.96757 633.753688 668.96757 625.238543 660.445557 625.238543 649.969445L625.238543 573.976942C625.238543 563.500829 633.753688 554.978816 644.221352 554.978816ZM378.462076 554.978816C388.929741 554.978816 397.444886 563.500829 397.444886 573.976942L397.444886 649.969445C397.444886 660.445557 388.929741 668.96757 378.462076 668.96757 367.994419 668.96757 359.479274 660.445557 359.479274 649.969445L359.479274 573.976942C359.479274 563.500829 367.994419 554.978816 378.462076 554.978816Z"  horiz-adv-x="1024" />

    
    <glyph glyph-name="icsurvey" unicode="&#58930;" d="M327.131429 174.826057l373.8112 0L700.942629 474.5216 327.131429 474.5216 327.131429 174.826057zM437.065143 380.357486l64.329143-64.760686 107.242057 107.936914 42.890971-43.183543L501.394286 229.215086 394.144914 337.181257 437.065143 380.357486zM877.692343 896 146.307657 896C65.514057 896 0 830.493257 0 749.692343l0-731.384686C0-62.485943 65.506743-128 146.307657-128l731.384686 0c80.7936 0 146.307657 65.499429 146.307657 146.307657L1024 749.692343C1024 830.485943 958.500571 896 877.692343 896zM381.871543 609.031314l82.1248 0 0 30.976 112.888686 0 0-30.976 71.8336 0 0-72.389486L381.871543 536.641829 381.871543 609.031314zM750.101943 124.430629 277.942857 124.430629 277.942857 588.405029l88.546743 0.1536L366.4896 508.928l295.0656 0L661.5552 588.119771l88.539429 0.131657L750.094629 124.430629z"  horiz-adv-x="1024" />

    
    <glyph glyph-name="ictask" unicode="&#58931;" d="M877.692343 896 146.307657 896C65.514057 896 0 830.493257 0 749.692343l0-731.384686C0-62.485943 65.506743-128 146.307657-128l731.384686 0c80.7936 0 146.307657 65.499429 146.307657 146.307657L1024 749.692343C1024 830.485943 958.500571 896 877.692343 896zM773.485714 122.514286 248.685714 122.514286 248.685714 647.314286l524.8 0L773.485714 122.514286zM740.703086 614.524343 281.504914 614.524343l0-459.198171 459.198171 0L740.703086 614.524343zM478.266514 237.319314 314.294857 401.290971l65.609143 65.6384 98.369829-98.435657 164.030171 164.008229 65.579886-65.572571L478.266514 237.319314z"  horiz-adv-x="1024" />

    
    <glyph glyph-name="ictxt" unicode="&#58932;" d="M0 749.69393C0 830.496541 65.515739 896 146.306048 896L877.693952 896C958.496549 896 1024 830.484297 1024 749.69393L1024 18.30607C1024-62.496541 958.484261-128 877.693952-128L146.306048-128C65.503451-128 0-62.484297 0 18.30607L0 749.69393ZM241.371429 319.456 778.784183 319.456 778.784183 354.742857 241.371429 354.742857 241.371429 319.456ZM241.371429 220.907886 778.784183 220.907886 778.784183 256.152232 241.371429 256.152232 241.371429 220.907886ZM241.371429 115.176689 778.784183 115.176689 778.784183 150.463547 241.371429 150.463547 241.371429 115.176689ZM212.114286 654.628571 212.114286 613.432225 280.92416 613.432225 280.92416 411.149253 327.716571 411.149253 327.716571 613.432225 396.356754 613.432225 396.356754 654.628571 212.114286 654.628571ZM556.4928 654.628571 510.930651 576.402286 464.4352 654.628571 409.709714 654.628571 481.489189 538.181947 402.285714 411.149253 458.411154 411.149253 509.997349 495.370057 561.371429 411.149253 617.836251 411.149253 538.632777 536.396347 610.751634 654.628571 556.4928 654.628571ZM629.028571 654.628571 629.028571 613.432225 697.880869 613.432225 697.880869 411.149253 744.67328 411.149253 744.67328 613.432225 813.313463 613.432225 813.313463 654.628571 629.028571 654.628571Z"  horiz-adv-x="1024" />

    
    <glyph glyph-name="icunkown" unicode="&#58933;" d="M877.692343 896 146.307657 896C65.514057 896 0 830.493257 0 749.692343l0-731.384686C0-62.485943 65.506743-128 146.307657-128l731.384686 0c80.7936 0 146.307657 65.499429 146.307657 146.307657L1024 749.692343C1024 830.485943 958.500571 896 877.692343 896zM556.500114 76.807314 478.376229 76.807314l0 79.177143 78.123886 0L556.500114 76.807314zM637.461943 367.301486c-50.695314-49.927314-71.109486-77.165714-80.961829-112.325486l0-29.703314L478.376229 225.272686l0 46.204343c0 39.555657 28.481829 84.618971 85.540571 135.241143 49.576229 43.973486 59.465143 80.2304 64.453486 108.843886-4.988343 57.153829-26.302171 81.130057-90.755657 87.720229C433.444571 607.670857 386.596571 571.662629 389.090743 479.305143L307.258514 479.305143c-2.494171 138.539886 71.877486 206.701714 223.1808 204.529371 131.408457-4.417829 186.741029-66.596571 191.729371-174.350629C722.168686 467.690057 694.454857 423.394743 637.461943 367.301486z"  horiz-adv-x="1024" />

    
    <glyph glyph-name="icvideo" unicode="&#58934;" d="M877.692343 896 146.307657 896C65.514057 896 0 830.493257 0 749.692343l0-731.384686C0-62.485943 65.506743-128 146.307657-128l731.384686 0c80.7936 0 146.307657 65.499429 146.307657 146.307657L1024 749.692343C1024 830.485943 958.500571 896 877.692343 896zM355.730286 285.096229 258.903771 285.096229c-17.759086 0-32.1536 21.109029-32.1536 37.558857L226.750171 451.7888c0 16.449829 14.394514 39.826286 32.1536 39.826286l96.826514 0L355.730286 285.096229zM551.745829 221.666743c0-6.158629-3.569371-11.8784-8.967314-16.632686-8.565029-9.662171-24.875886-16.288914-37.390629-16.288914L370.731886 281.973029 370.731886 493.4656l3.145143 2.1504 0 0.9728L508.525714 588.8c17.7664 0 43.2128-13.326629 43.2128-29.7984L551.738514 221.666743zM608.065829 303.5136l-15.352686 27.231086c17.941943 12.8 23.339886 34.238171 23.339886 57.870629 0 21.460114-9.647543 40.704-24.846629 53.650286L607.085714 474.506971c24.071314-20.9408 39.241143-51.6608 39.241143-85.920914C646.326857 354.801371 631.559314 324.425143 608.065829 303.5136zM644.052114 271.637943c30.646857 29.652114 50.190629 71.094857 50.190629 116.9408 0 44.968229-18.783086 85.694171-48.384 115.214629l19.953371 28.452571C701.630171 494.855314 724.114286 444.269714 724.114286 388.571429c0-56.714971-22.330514-106.7008-59.355429-144.259657L644.052114 271.637943zM725.313829 189.425371l-22.337829 27.574857c41.6256 45.224229 67.978971 105.457371 67.978971 171.5712 0 66.230857-26.426514 126.544457-68.154514 171.812571l22.367086 26.975086c47.403886-53.204114 76.602514-121.9072 76.602514-198.787657C801.762743 311.559314 772.922514 242.688 725.313829 189.425371z"  horiz-adv-x="1024" />

    
    <glyph glyph-name="icvsd" unicode="&#58935;" d="M788.539758 631.278994 788.558636 631.301398 571.006903 631.301398 571.006903 525.580361 609.015186 525.580361 481.806848 254.515895C473.302045 282.700281 361.853652 631.037908 361.853652 631.037908L234.04533 630.356985 298.86494 449.438128 369.502076 248.121125C383.558627 207.739297 391.590941 184.528633 393.539964 178.429908L407.360271 132.482267C442.294938 132.985556 464.501928 133.192792 473.951715 133.192792 484.641785 133.192792 505.72661 132.985556 537.265269 132.482267L537.696073 133.413815C537.860286 133.411204 538.024792 133.408585 538.189575 133.405952L559.274401 178.998338 758.192347 572.928351 789.465227 631.280677 788.539758 631.278994ZM0 749.69393C0 830.496541 65.515703 896 146.30607 896L877.69393 896C958.496541 896 1024 830.484297 1024 749.69393L1024 18.30607C1024-62.496541 958.484297-128 877.69393-128L146.30607-128C65.503459-128 0-62.484297 0 18.30607L0 749.69393Z"  horiz-adv-x="1024" />

    
    <glyph glyph-name="icwps" unicode="&#58936;" d="M591.330743 486.290286c-4.534857 2.157714-14.650514 3.232914-30.288457 3.232914l-34.5088 0L512.292571 401.4592l14.869943 0c25.468343 0 42.430171 2.0992 50.973257 6.261029 8.513829 4.161829 15.228343 10.825143 20.136229 20.011886 4.907886 9.128229 7.336229 19.207314 7.336229 30.164114 0 7.365486-1.258057 13.4144-3.759543 18.132114C599.339886 480.746057 595.829029 484.161829 591.330743 486.290286zM877.692343 896 146.307657 896C65.514057 896 0 830.493257 0 749.692343l0-731.384686C0-62.485943 65.506743-128 146.307657-128l731.384686 0c80.7936 0 146.307657 65.499429 146.307657 146.307657L1024 749.692343C1024 830.485943 958.500571 896 877.692343 896zM302.665143 234.474057 297.398857 457.6768 212.0704 234.474057l-49.678629 0L153.6 539.706514l47.118629 0 2.0992-213.584457 80.362057 213.584457 52.267886 0L340.845714 328.374857l77.187657 211.331657 46.657829 0-113.298286-305.232457L302.665143 234.474057zM646.985143 418.113829c-4.593371-14.555429-10.210743-26.207086-16.874057-34.9696-6.656-8.7552-13.816686-15.36-21.489371-19.858286-7.650743-4.534857-17.985829-7.957943-30.997943-10.335086-7.548343-1.3824-21.701486-2.091886-42.488686-2.091886l-30.837029 0-18.688-116.384914-48.259657 0 49.064229 305.232457 95.224686 0c16.925257 0 30.317714-2.589257 40.184686-7.804343 9.866971-5.178514 17.634743-13.816686 23.3984-25.775543 5.770971-12.053943 8.638171-26.368 8.638171-43.015314C653.867886 447.685486 651.585829 432.727771 646.985143 418.113829zM745.4208 441.2416c5.215086-5.829486 16.749714-13.816686 34.6624-23.9616 26.953143-15.111314 44.097829-27.384686 51.470629-36.849371 10.942171-13.845943 16.427886-31.700114 16.427886-53.474743 0-26.960457-8.170057-49.956571-24.517486-69.039543-16.369371-19.090286-39.131429-28.657371-68.3008-28.657371-20.143543 0-37.595429 4.439771-52.333714 13.2608-14.738286 8.791771-25.161143 21.035886-31.239314 36.754286-6.078171 15.6672-8.916114 33.704229-8.484571 54.096457l45.860571 3.145143c0.650971-19.031771 3.145143-31.882971 7.5264-38.546286 6.999771-10.8032 20.011886-16.2304 38.970514-16.2304 15.762286 0 27.172571 3.701029 34.2016 11.044571 7.036343 7.343543 10.5472 16.223086 10.5472 26.645943 0 9.003886-2.8672 16.654629-8.638171 22.8864-4.0448 4.593371-15.140571 12.032-33.338514 22.293943-18.132114 10.261943-31.392914 18.8416-39.753143 25.717029-8.382171 6.875429-14.957714 15.791543-19.733943 26.770286-4.805486 10.949486-7.211886 23.808-7.211886 38.517029 0 25.658514 7.153371 46.965029 21.438171 63.926857 14.270171 16.903314 34.933029 25.380571 61.981257 25.380571 27.479771 0 48.757029-8.389486 63.839086-25.1904 15.082057-16.808229 23.369143-39.138743 24.853943-67.013486l-46.197029-2.742857c-1.170286 14.584686-5.215086 25.7536-12.141714 33.550629-6.912 7.738514-17.152 11.658971-30.654171 11.658971-13.319314 0-22.849829-3.086629-28.525714-9.157486-5.697829-6.136686-8.543086-13.816686-8.543086-23.127771C737.5872 454.158629 740.213029 446.939429 745.4208 441.2416z"  horiz-adv-x="1024" />

    
    <glyph glyph-name="icxls" unicode="&#58937;" d="M0 749.69393C0 830.496541 65.515703 896 146.30607 896L877.69393 896C958.496541 896 1024 830.484297 1024 749.69393L1024 18.30607C1024-62.496541 958.484297-128 877.69393-128L146.30607-128C65.503459-128 0-62.484297 0 18.30607L0 749.69393ZM741.026136 640 605.128821 640 508.959291 498.976 412.78976 640 276.892445 640 439.757085 397.536 256 128 519.405509 128 519.405509 219.584 458.560285 219.584 508.927144 294.56 620.814219 128 761.886435 128 578.097211 397.536 741.026136 640Z"  horiz-adv-x="1024" />

    
    <glyph glyph-name="icziprar" unicode="&#58938;" d="M469.130971 426.057143l91.838171 0 0-45.714286-91.838171 0 0 45.714286ZM877.692343 896 146.307657 896C65.514057 896 0 830.493257 0 749.692343l0-731.384686C0-62.485943 65.506743-128 146.307657-128l731.384686 0c80.7936 0 146.307657 65.499429 146.307657 146.307657L1024 749.692343C1024 830.485943 958.500571 896 877.692343 896zM583.928686 791.771429l-68.878629 0 0-45.714286 68.878629 0 0-45.714286-68.878629 0L515.050057 654.628571l68.878629 0 0-45.714286-68.878629 0 0-45.714286 68.878629 0 0-205.714286c0-12.617143-10.283886-22.857143-22.966857-22.857143L469.130971 334.628571c-12.668343 0-22.959543 10.24-22.959543 22.857143L446.171429 517.485714l68.878629 0L515.050057 563.2 446.171429 563.2l0 45.714286 68.878629 0L515.050057 654.628571 446.171429 654.628571l0 45.714286 68.878629 0L515.050057 746.057143 446.171429 746.057143l0 45.714286 68.878629 0L515.050057 837.485714l68.878629 0L583.928686 791.771429z"  horiz-adv-x="1024" />

    
    <glyph glyph-name="uc-offlineDocument-fill" unicode="&#58965;" d="M892.191 718.101l-128.696 122.839c-17.572 16.384-37.069 24.576-60.457 22.528h-530.309c-35.103-2.007-54.6-22.528-58.532-61.44v-828.948c0-50.995 39.363-92.324 87.9-92.324h653.025c52.675 2.048 77.947 26.583 77.947 75.735v677.724c2.048 32.727-11.592 61.358-40.878 83.886v0zM237.036 699.956h122.88v122.88l52.634-0.287 111.206 0.287v-122.88h122.88l-204.8-245.76c-22.897 18.35-204.8 245.76-204.8 245.76v0zM298.476-37.857c-33.997 0-61.604 27.484-61.604 61.399 0 33.915 27.607 61.358 61.604 61.358 34.079 0 61.686-27.443 61.686-61.358 0-33.915-27.607-61.399-61.686-61.399v0zM298.476 127.007c-33.997 0-61.604 27.525-61.604 61.399 0 33.915 27.607 61.399 61.604 61.399 34.079 0 61.686-27.484 61.686-61.399 0-33.874-27.607-61.399-61.686-61.399v0zM298.476 290.561c-33.997 0-61.604 27.484-61.604 61.399 0 33.874 27.607 61.399 61.604 61.399 34.079 0 61.686-27.525 61.686-61.399 0-33.915-27.607-61.399-61.686-61.399v0zM810.476 3.636h-368.64v81.92h368.64v-81.92zM810.476 167.476h-368.64v81.92h368.64v-81.92zM810.476 331.316h-368.64v81.92h368.64v-81.92z"  horiz-adv-x="1024" />

    
    <glyph glyph-name="points" unicode="&#58886;" d="M64.276932 626.3363039999999c0-113.923656 200.099341-206.27704 446.934099-206.27704s446.934099 92.353384 446.934099 206.27704S758.046812 832.613344 511.211031 832.613344 64.276932 740.25996 64.276932 626.3363039999999zM511.211031 330.67244400000004c-192.525851 0-350.671685 55.007825-419.430698 130.642433-20.627806-27.503401-27.503401-48.131207-27.503401-75.634608 0-110.014626 199.401446-206.27704 446.934099-206.27704s446.935122 89.385796 446.935122 206.276016c0 27.503401-13.752212 48.131207-27.503401 75.634608-68.760037-75.634608-226.90587-130.641409-419.431721-130.641409zM511.211031 83.13979099999995c-192.525851 0-350.671685 55.006801-419.430698 130.642433-20.627806-20.627806-27.503401-48.131207-27.503401-75.634608 0-110.014626 199.401446-206.27704 446.934099-206.27704S958.146153 21.256372000000056 958.146153 138.14659300000005c0 27.503401-13.752212 48.131207-27.503401 75.634607-68.760037-75.634608-226.90587-130.641409-419.431721-130.641409z"  horiz-adv-x="1024" />

    
    <glyph glyph-name="caijian" unicode="&#58972;" d="M929.61792 49.92h-83.52256v-83.51744c0-15.3856-12.45184-27.84256-27.84256-27.84256s-27.84256 12.46208-27.84256 27.84256V49.92H177.90976V662.4H94.3872a27.8528 27.8528 0 0 0 0 55.68512h83.52256V801.59744A27.83232 27.83232 0 0 0 205.75232 829.44a27.83744 27.83744 0 0 0 27.84256-27.84256V718.08h441.6l-51.2512-55.68h-390.3488v-516.20864L840.4992 779.68896l39.36768-39.36256-608.0768-634.7264h518.62528V523.19744l55.68 55.68v-473.28256h83.52256a27.84256 27.84256 0 1 0 0-55.67488z"  horiz-adv-x="1024" />

    
    <glyph glyph-name="empty" unicode="&#58881;" d="M684.942 743.538v68.267c0 40.96-31.858 72.818-68.267 72.818h-209.351c-40.96 0-68.267-31.858-68.267-72.818v-72.818h-282.169v-72.818h104.675v-714.525c0-36.409 31.858-68.267 68.267-68.267h559.787c36.409 0 68.267 31.858 68.267 72.818v714.525h109.227v72.818h-282.169zM407.325 811.805h209.351v-72.818h-209.351v72.818zM794.169-43.805h-564.338v714.525h559.787v-714.525zM407.325 561.493h-68.267v-500.622h68.267v500.622zM548.409 561.493h-68.267v-500.622h68.267v500.622zM684.942 561.493h-68.267v-500.622h68.267v500.622z"  horiz-adv-x="1024" />

    
    <glyph glyph-name="m3-page-nodata" unicode="&#58971;" d="M714.764 638.524l-327.507 85.631c-1.964 0.559-4.219 0.881-6.549 0.881-11.285 0-20.808-7.54-23.807-17.858-3.628-13.060 4.287-26.415 17.514-29.871l327.465-85.695c2.176-0.512 4.331-0.811 6.4-0.811 10.987 0 21.013 7.211 24 17.984 3.563 13.013-4.267 26.304-17.515 29.738zM787.916 602.876c0.939 1.216 1.749 2.56 2.923 3.669-1.173-1.045-1.984-2.453-2.923-3.669zM785.91 599.057c-0.725-1.28-1.067-2.624-1.621-3.989 0.533 1.28 0.896 2.709 1.621 3.989zM799.052 611.601c-1.771-0.704-3.179-1.771-4.8-2.773 1.621 1.003 3.029 2.069 4.8 2.773zM1422.451 485.842l-154.495 263.742c-0.469 0.469-0.939 0.768-1.173 1.237v0.043c-2.534 3.551-5.885 6.363-9.788 8.194 4.988-3.031 4.284-2.327 3.452-1.751-3.223 2.095-7.058 3.537-11.182 4.045 4.633-0.995 3.929-0.589 3.204-0.419-0.107 0-0.213 0.064-0.213 0.064l-0.363 0.128-587.090 134.229c-1.728 0.409-3.712 0.643-5.751 0.643-2.737 0-5.375-0.422-7.852-1.206l-418.629-134.2c-0.529-0.236-0.97-0.587-1.306-1.022l0.432 0.553c-1.941-0.704-3.627-1.877-5.291-3.051-0.107 0-0.171-0.043-0.213-0.107-0.853-0.533-1.771-0.768-2.475-1.408l-215.295-189.183c-5.072-4.391-8.263-10.839-8.263-18.032 0-4.643 1.329-8.975 3.627-12.638 4.571-7.389 12.72-11.634 21.211-11.634 2.923 0 5.867 0.555 8.661 1.536l131.733 47.85c9.466 3.397 16.115 12.294 16.115 22.743 0 3.050-0.566 5.968-1.6 8.654-3.71 9.187-12.708 15.667-23.219 15.667-3.102 0-6.071-0.564-8.812-1.596l-9.129-3.356 76.778 67.477v-641.319c0-11.029 7.723-20.629 18.752-23.445l565.821-141.013c2.453-0.853 5.163-1.195 7.723-1.195h2.112c0.235 0 0.363 0 0.469 0.128 1.877 0.128 3.755 0.597 5.504 1.067 0.363 0.213 0.597 0.213 0.832 0.448l423.806 141.034c10.069 3.413 16.853 12.651 16.853 22.976v357.843l151.594 51.242c7.019 2.411 12.651 7.68 15.211 14.485 2.581 6.72 1.877 14.293-1.749 20.544zM265.124 719.952l-12.053-3.883-37.546-32.96v0.043l37.546 32.917 12.053 3.883zM785.569-89.003zM799.756 611.942c-0.235-0.064-0.363-0.213-0.597-0.341-1.877-0.704-3.285-1.771-4.907-2.773-1.173-0.747-2.347-1.344-3.413-2.283-1.173-1.109-1.984-2.453-2.923-3.691-0.832-1.28-1.877-2.389-2.56-3.797-0.491-1.28-0.725-2.688-0.96-3.989-0.576-1.749-1.173-3.392-1.173-5.269v-0.107c0-0.235-0.107-0.427-0.107-0.64v-657.575l-517.928 129.109v659.367l395.091 126.613 496.85-113.557-357.374-121.066zM825.163-117.12zM1225.332 440.039l2.112 0.533c-1.28-0.299-2.581-0.64-3.755-1.109 0.363 0.107 0.704 0.213 0.939 0.341l-215.295-72.789-99.114 139.733c-4.657 6.359-12.096 10.442-20.489 10.442-5.291 0-10.202-1.622-14.265-4.397-6.363-4.285-10.55-11.559-10.55-19.811 0-5.209 1.668-10.028 4.499-13.952l109.924-154.83c4.599-6.374 12.006-10.474 20.37-10.474 2.943 0 5.768 0.508 8.391 1.44l199.653 67.593v34.090-357.801l-375.059-124.863v637.586l402.238 136.234-10.197 17.451c-2.065 3.443-3.286 7.596-3.286 12.035 0 4.753 1.401 9.18 3.812 12.889-2.343-3.695-3.701-8.083-3.701-12.789 0-4.474 1.228-8.662 3.365-12.244l10.009-17.341v0l129.557-220.863-139.157-47.104zM1232.585 441.106c-0.704 0-1.515-0.085-2.347-0.192 0.832 0.085 1.643 0.192 2.347 0.192zM1230.025 440.914c-0.789-0.085-1.451-0.256-2.133-0.427 0.683 0.171 1.344 0.341 2.133 0.427zM1211.977 430.439zM1217.14 435.133c0.533 0.555 1.259 1.088 1.963 1.643-2.413-1.757-4.372-3.986-5.772-6.564zM1218.996 436.711c0.725 0.448 1.451 0.811 1.984 1.173-0.533-0.363-1.259-0.725-1.984-1.173zM1221.001 437.821c0.64 0.448 1.472 0.811 2.133 1.173-0.661-0.363-1.493-0.725-2.133-1.173zM784.865 595.068c-0.704-1.749-1.621-3.392-1.621-5.269 0 1.813 0.917 3.52 1.621 5.269z"  horiz-adv-x="1429" />

    
    <glyph glyph-name="create-group" unicode="&#58895;" d="M397.073 755.029c-97.69 0-177.152-82.773-177.152-187.187 0-104.38 79.462-180.634 177.152-180.634 14.882 0 29.082-20.719 29.082-35.601v-0.205c0-14.916-14.336-37.547-29.082-35.601-146.5 19.285-313.173-140.937-313.173-324.813 0-14.882-20.685-29.082-35.567-29.082-14.882 0-31.266 14.199-31.266 29.082 0 170.462 104.892 315.563 250.129 367.172-68.233 42.325-114.108 120.491-114.108 209.681 0 134.11 99.396 245.35 241.801 245.35 14.882 0 31.573-14.234 31.573-29.116s-14.507-29.082-29.389-29.082M689.732 810.496c-120.047 0-217.702-98.133-217.702-218.795s97.621-218.795 217.702-218.795l-0.341-1.229c125.747 0 218.078 99.362 218.078 220.023s-97.69 218.795-217.737 218.795M695.808 309.248c-1.813-0.412-3.896-0.647-6.033-0.647-0.844 0-1.68 0.037-2.505 0.109-193.634-6.459-372.834-188.765-376.554-398.412-0.273-14.882-25.054-29.082-39.936-29.082-14.848 0-33.417 14.199-33.417 29.082 0 203.093 134.485 375.296 319.078 432.23-89.338 48.566-148.974 141.691-149.026 248.749 0 155.492 126.464 282.024 281.941 282.024s281.941-126.532 281.941-282.078c0-153.395-122.982-278.562-275.49-281.975zM1140.053 152.576h-193.843v193.843h-77.483v-193.877h-193.877v-77.483h193.877v-193.877h77.483v193.877h193.877v77.483z"  horiz-adv-x="1160" />

    
    <glyph glyph-name="group-enter" unicode="&#58897;" d="M941.568 339.285c79.51 55.774 130.845 147.022 130.845 250.261 0 0.098-0 0.195-0 0.293 0 168.319-135.737 304.682-303.047 304.682s-302.99-136.363-302.99-304.697c0-101.262 49.436-190.862 125.156-246.215-183.922-57.458-324.779-204.402-324.779-377.173 0-32.427-0.228-89.771-0.228-89.771l107.065-0.171 0.171 67.925c0 175.047 207.474 316.928 401.636 316.928 194.048 0 374.443-141.881 374.443-316.871 0-23.097-0.91-59.449-1.138-69.12l108.316-0.171s-1.024 57.060-1.024 91.193c0 168.391-136.192 312.548-314.425 372.907zM770.617 372.224c-114.574 0-207.417 93.412-207.417 208.612 0 115.257 92.9 208.668 207.474 208.668 114.631 0 207.531-93.412 207.531-208.668 0-115.257-92.9-208.668-207.531-208.668zM1560.69-126.407s-0.74 40.391-0.74 64.569c0 119.239-96.427 221.298-222.606 263.964 56.28 39.48 92.615 104.070 92.615 177.146 0 0.082-0 0.164-0 0.246 0 119.113-96.028 215.71-214.471 215.71-0.107 0-0.234 0-0.36 0-30.167 0-58.868-6.278-84.867-17.6 18.838-17.558 35.108-38.266 49.842-61.249 10.742 2.802 23.075 4.411 35.783 4.411 81.375 0 147.342-65.967 147.342-147.342 0-0.091-0-0.182-0-0.272 0-0.066 0-0.162 0-0.257 0-62.485-38.791-115.91-93.605-137.507 0.548-18.533 1.432-39.702 1.432-61.077 0-11.214-0.243-22.372-0.725-33.468 116.677-19.297 214.526-109.807 214.526-218.237 0-16.327-0.683-42.098-0.853-48.924l76.686-0.114zM291.271 142.393c-0.424 9.506-0.666 20.654-0.666 31.859 0 21.404 0.882 42.603 2.612 63.561-55.938 19.227-94.675 72.622-94.675 135.064 0 0.091 0 0.182 0 0.272-0 0.063-0 0.153-0 0.244 0 81.375 65.967 147.342 147.342 147.342 12.708 0 25.041-1.609 36.805-4.634 13.769 23.263 29.983 43.97 47.448 61.947-24.662 10.824-53.409 17.124-83.626 17.124-0.060 0-0.12-0-0.18-0-118.49 0-214.462-96.54-214.462-215.666 0-73.557 36.636-138.468 92.558-177.38-126.18-42.724-222.606-144.782-222.606-263.964 0-24.178-0.683-64.626-0.683-64.626l76.686 0.114c-0.228 6.827-0.853 32.597-0.853 48.924 0 108.487 97.849 198.94 214.414 219.819z"  horiz-adv-x="1592" />

    
    <glyph glyph-name="group-gg" unicode="&#58900;" d="M589.162 891.894c-5.121 2.584-11.161 4.097-17.556 4.097-9.528 0-18.271-3.36-25.109-8.96-0.508-0.389-59.571-48.325-124.732-97.329-113.364-85.279-146.389-99.522-153.11-101.792l-235.585-0.089c-18.249 0-33.070-15.133-33.070-33.827v-539.713c0-18.694 14.821-33.827 33.115-33.827h261.845c6.587-2.448 37.743-17.18 138.378-100.946 58.485-48.693 111.049-96.317 111.583-96.762 7.054-6.425 16.474-10.36 26.814-10.36 5.961 0 11.617 1.308 16.696 3.653 13.883 6.622 23.477 20.785 23.477 37.189 0 0.081-0 0.162-0.001 0.242l0 941.392c0.001 0.087 0.001 0.189 0.001 0.291 0 15.988-9.133 29.843-22.467 36.632zM546.167-20.98c-17.804 15.356-37.743 32.269-58.128 49.093-134.327 111.094-167.531 120.396-190.052 120.396l-1.335-0.089-1.291 0.089h-201.002c-23.189 0-28.575 6.676-28.575 30.488v414.198c0 16.157 1.869 26.26 20.919 26.26h182.975c21.943 0 55.636 9.213 202.604 119.105 26.171 19.584 51.764 39.257 73.885 56.526v-816.068zM941.983 384.361c0.002 0.348 0.002 0.76 0.002 1.173 0 103.248-54.931 193.666-137.161 243.625-5.046 2.716-13.948 6.632-20.090 6.632-18.43-0.2-33.294-15.188-33.294-33.647 0-0.11 0.001-0.22 0.002-0.33-0-12.579 6.587-23.84 16.557-29.671 64.57-38.288 107.179-107.627 107.179-186.918 0-0.304-0.001-0.608-0.002-0.912 0.001-0.231 0.002-0.56 0.002-0.889 0-80.647-44.097-150.994-109.495-188.245-10.704-6.714-17.002-17.353-17.002-29.464 0-0.072 0-0.144 0.001-0.215-0-18.772 14.91-33.994 33.292-33.994 7.789-0.089 17.047 4.629 17.047 4.629 86.047 50.098 142.965 141.903 142.965 247.002 0 0.43-0.001 0.86-0.003 1.29zM903.528 802.61c-6.142 3.783-12.329 6.854-19.806 6.854-18.249 0-33.115-15.133-33.115-33.827 0-13.442 7.878-24.257 18.916-30.444 122.624-74.585 203.275-207.487 203.275-359.227 0-0.596-0.001-1.191-0.004-1.787 0.002-0.406 0.004-0.994 0.004-1.584 0-151.641-80.554-284.468-201.206-358.022-12.484-6.921-21.653-18.137-21.653-31.935 0-18.694 14.821-33.827 33.115-33.827 7.344 0 13.175 2.849 19.584 6.676 141.004 84.033 235.896 240.036 235.896 418.827 0 178.436-94.492 334.127-235.006 418.293z"  horiz-adv-x="1157" />

    
    <glyph glyph-name="group-photo" unicode="&#58903;" d="M1036.644-126.887h-1003.253c-15.182 0.051-27.47 12.37-27.47 27.559 0 0.016 0 0.031 0 0.047l-0 682.694c0 15.271 12.288 27.603 27.47 27.603s27.514-12.333 27.514-27.603v-655.004h948.313v774.856h-981.304c-15.182 0.051-27.47 12.37-27.47 27.559 0 0.016 0 0.031 0 0.047-0 15.313 12.288 27.646 27.514 27.646h1008.685c15.207-0.051 27.514-12.39 27.514-27.603 0-0-0-0-0-0l0-830.152c0-0.013 0-0.029 0-0.045 0-15.214-12.308-27.553-27.51-27.603zM1186.059 10.285h-42.162c-15.207 0.051-27.514 12.39-27.514 27.603 0 0 0 0 0 0-0 15.271 12.333 27.648 27.514 27.648h14.692v774.901h-953.745v-13.178c0-15.271-12.288-27.603-27.47-27.603-15.201 0.025-27.514 12.354-27.514 27.559 0 0.016 0 0.031 0 0.047l-0 40.824c0 15.271 12.333 27.603 27.514 27.603h1008.685c15.182 0 27.514-12.333 27.514-27.603v-830.197c0-15.226-12.333-27.603-27.514-27.603zM130.582-33.792c-0.014-0-0.031-0-0.048-0-6.279 0-12.061 2.127-16.665 5.7-6.544 5.084-10.753 13.027-10.753 21.953 0 6.315 2.107 12.137 5.656 16.803l342.679 451.338c5.069 6.606 12.968 10.823 21.852 10.823 8.565 0 16.214-3.92 21.252-10.063l150.923-185.526c3.862-4.728 6.202-10.831 6.202-17.481 0-8.587-3.902-16.262-10.029-21.35-4.737-3.922-10.817-6.278-17.448-6.278-8.574 0-16.227 3.941-21.248 10.109l-128.885 158.414-321.581-423.58c-5.060-6.629-12.965-10.863-21.86-10.863-0 0-0 0-0 0zM561.508-20.035c-15.163 0.203-27.376 12.543-27.376 27.735 0 6.438 2.193 12.364 5.874 17.071l186.678 237.863c5.025 6.381 12.732 10.455 21.392 10.508 8.618-0.355 16.355-4.326 21.689-10.446l188.922-230.507c3.908-4.744 6.277-10.882 6.277-17.573 0-8.56-3.878-16.215-9.973-21.303-4.75-3.964-10.863-6.349-17.533-6.349-8.525 0-16.141 3.896-21.162 10.005l-167.618 204.536-165.532-211.033c-5.058-6.422-12.834-10.507-21.564-10.507-0.026 0-0.052 0-0.078 0zM802.727 358.623c-80.762 0-146.432 66.070-146.432 147.233s65.67 147.189 146.432 147.189 146.477-66.026 146.477-147.189-65.714-147.233-146.477-147.233zM802.727 597.793c-50.549-0.202-91.448-41.226-91.448-91.803 0-0.047 0-0.094 0-0.142-0-50.703 41.005-91.93 91.448-91.93 50.568 0.177 91.492 41.211 91.492 91.803 0 0.047-0 0.094-0 0.141 0 0.032 0 0.080 0 0.127 0 50.592-40.925 91.626-91.475 91.803z"  horiz-adv-x="1246" />

    
    <glyph glyph-name="voice" unicode="&#58905;" d="M472.936 49.493c-159.289 20.48-283.307 166.722-283.307 343.457 0 23.211 17.522 42.060 39.14 42.060 21.618 0 39.102-18.849 39.102-42.098 0-144.308 109.227-261.727 243.522-261.727 134.258 0 243.522 117.419 243.522 261.765 0 23.211 17.522 42.060 39.14 42.060 21.618 0 39.14-18.849 39.14-42.098 0-176.204-123.259-322.067-281.979-343.23l1.783-100.883c0.417-23.249-16.763-42.439-38.343-42.856h-0.759c-21.276 0-38.684 18.28-39.14 41.225l-1.783 102.324zM511.393 207.341c-107.596 0-195.129 94.094-195.129 209.73v269.198c0.038 115.674 87.533 209.73 195.129 209.73s195.129-94.094 195.129-209.73v-269.16c0-115.674-87.533-209.73-195.129-209.73zM511.393 804.447c-62.578 0-113.512-54.765-113.512-122.046v-261.461c0-67.281 50.935-122.046 113.512-122.046s113.55 54.765 113.55 122.046v261.461c0 67.281-50.935 122.046-113.55 122.046z"  horiz-adv-x="1024" />

    
    <glyph glyph-name="uc-icon-create-alone" unicode="&#58945;" d="M440.32 310.033c3.072 0 6.042 0.375 8.875 1.092 161.041 5.291 289.929 134.144 289.929 292.352 0 161.553-134.417 292.523-300.203 292.523-165.854 0-300.237-130.97-300.237-292.523 0-105.643 57.481-198.212 143.633-249.617-84.231-33.059-153.597-88.717-202.601-159.538-29.151-18.865-78.302-128.36-78.35-249.334l-1.365 0.16v-73.148h763.153v73.182h-688.606c0.512 201.25 164.386 364.885 365.773 364.885zM211.866 603.477c0 58.231 23.381 113.084 65.843 154.453 41.288 40.16 97.732 64.925 159.959 64.925 0.452 0 0.904-0.001 1.356-0.004 60.927 0 118.202-23.040 161.176-64.921 42.462-41.37 65.843-96.222 65.843-154.453 0-58.266-23.381-113.118-65.877-154.487-41.288-40.16-97.732-64.925-159.959-64.925-0.44 0-0.88 0.001-1.32 0.004-0.314-0.003-0.766-0.004-1.219-0.004-62.228 0-118.671 24.765-160.012 64.976-42.409 41.319-65.79 96.205-65.79 154.436zM1024 238.080h-182.955v182.955h-73.182v-182.955h-182.955v-73.148h182.955v-182.955h73.148v182.955h182.989v73.148z"  horiz-adv-x="1024" />

    
    <glyph glyph-name="uc-icon-picture" unicode="&#58942;" d="M910.108 896h-737.451c-78.677 0-144.213-65.138-144.213-143.872v-102.684c0-19.731 15.995-35.726 35.726-35.726 19.731 0 35.726 15.995 35.726 35.726v102.628c0 39.367 33.394 72.42 72.761 72.42h737.451c39.367 0 70.884-33.052 70.884-72.42v-141.312c-178.394-8.93-337.030-86.797-451.105-207.284-42.349-41.946-86.040-102.533-118.296-168.183-90.852 68.836-213.276 74.98-311.694 18.318v182.727c-0 19.731-15.995 35.726-35.726 35.726-19.731 0-35.726-15.995-35.726-35.726l0-421.66c-0-78.677 65.536-142.677 144.213-142.677h737.451c78.631 0.097 142.336 63.862 142.336 142.507 0 0.060-0 0.12-0 0.18l0 737.441c0 78.734-63.659 143.872-142.336 143.872zM99.897 14.677v150.471c80.839 73.387 202.866 74.069 282.738 1.707-24.453-67.097-38.623-144.553-38.689-225.31l-171.231 1.907c-39.367 0-72.761 31.858-72.761 71.225zM910.108-56.548h-494.82c1.252 159.346 63.374 308.338 175.9 420.864 104.207 104.835 247.074 171.139 405.413 175.724l-15.724-525.363c0-39.31-31.46-71.225-70.827-71.225zM453.404 617.017c-0.065 74.688-60.594 135.217-135.276 135.282-74.694-0.065-135.223-60.594-135.288-135.276 0.065-74.694 60.594-135.223 135.276-135.288 74.694 0.065 135.223 60.594 135.288 135.276zM254.18 617.017c1.806 33.896 29.731 60.696 63.915 60.696s62.109-26.801 63.908-60.536c0.007-35.431-28.665-64.103-63.879-64.103-35.271 0-63.943 28.672-63.943 63.943z"  horiz-adv-x="1080" />

    
    <glyph glyph-name="uc-icon-photograph" unicode="&#58943;" d="M616.071 620.382c-139.803 0-253.521-112.532-253.521-250.934 0-138.348 113.718-250.934 253.521-250.934s253.521 112.586 253.521 250.934c0 138.402-113.718 250.934-253.521 250.934zM616.071 203.345c-92.645 0-167.99 74.483-167.99 166.104s75.345 166.104 167.99 166.104 167.99-74.483 167.99-166.104-75.345-166.104-167.99-166.104zM1123.382 283.486l2.91 0.216c6.477-16.946 22.602-28.762 41.487-28.762 19.187 0 35.525 12.198 41.683 29.262l3.223 0.309v407.498c0 42.146-34.6 76.369-77.123 76.369h-217.789l-28.564 56.374c-3.18 7.276-33.361 71.249-75.938 71.249h-386.856c-42.577 0-72.704-63.973-75.776-70.764l-28.726-56.859h-217.843c-42.523 0-77.123-34.223-77.123-76.369v-701.548c0-42.146 34.6-76.423 77.123-76.423h1031.491c42.577 0 77.177 34.277 77.177 76.423v89.304c-0.061 24.718-20.113 44.733-44.84 44.733-0.038 0-0.076-0-0.114-0-0.010 0-0.029 0-0.048 0-24.738 0-44.802-20.008-44.894-44.724l-0-57.407c-0.061-10.669-8.724-19.295-19.402-19.295-0.038 0-0.076 0-0.114 0l-967.027-0c-0.032-0-0.070-0-0.108-0-10.678 0-19.341 8.625-19.402 19.289l-0 643.132c0.091 10.646 8.743 19.241 19.401 19.241 0.038 0 0.076-0 0.114-0l225.651 0 16.007 1.024-2.803 11.21 49.368 76.423c5.066 8.677 23.444 33.523 40.637 33.523h309.356c17.192 0 35.571-24.845 40.96-34.061l49.583-76.638v-9.701l238.323 0.808c10.779 0 19.51-8.623 19.51-19.24v-371.011l0.485-13.581zM935.074 607.771c0-34.277 28.025-62.141 62.41-62.141 34.385 0 62.41 27.864 62.41 62.141 0 34.223-28.025 62.087-62.41 62.087-34.439 0-62.41-27.864-62.41-62.087z"  horiz-adv-x="1239" />

    
    <glyph glyph-name="uc-collect-fill" unicode="&#59042;" d="M1015.296 512c-8.704 26.112-31.232 45.568-58.368 49.664l-263.168 40.96-114.176 247.296c-11.776 26.112-37.888 42.496-66.048 42.496s-54.272-16.384-66.048-42.496l-114.176-247.296-263.168-40.96c-26.624-4.096-49.152-23.040-57.856-49.664-8.704-26.112-2.048-55.296 16.896-75.264l192.512-200.704-44.544-278.016c-4.608-28.16 7.168-56.32 30.208-72.704 12.288-9.216 27.136-13.312 41.984-13.312 12.288 0 24.064 3.072 35.328 9.216l229.376 124.416 229.376-124.416c11.264-6.144 23.040-9.216 35.328-9.216 14.848 0 29.696 4.608 41.984 13.312 23.040 16.384 34.304 44.544 29.696 72.704l-44.544 278.016 192.512 200.704c18.944 19.968 25.6 49.152 16.896 75.264z"  horiz-adv-x="1024" />

    
    <glyph glyph-name="PC-check" unicode="&#58988;" d="M512 896C230.4 896 0 665.6 0 384s230.4-512 512-512 512 230.4 512 512S793.6 896 512 896z m-83.2-755.2l-192 185.6 64 70.4S416 281.6 422.4 281.6c12.8 0 339.2 332.8 339.2 332.8L832 544 428.8 140.8z"  horiz-adv-x="1024" />

    
    <glyph glyph-name="PC-grouper" unicode="&#58999;" d="M219.648 603.136S204.8 895.488 512 895.488c0 0 292.352 7.168 292.352-292.352 0 0 0-300.032-219.648-438.784 0 0-73.216-73.216-146.432 0 0.512 0-226.304 131.584-218.624 438.784zM585.216 676.352s-109.568-146.432-365.568-146.432c0 0-73.216 365.568 292.352 365.568 0 0 351.232 22.016 292.352-365.568 0 0-197.12 66.048-219.136 146.432zM0-128s36.352 292.352 292.352 292.352c0 0 146.432-22.016 146.432-146.432 0 0 66.048-102.4 146.432 0 0 0 14.848 146.432 146.432 146.432 0 0 211.968 29.184 292.352-292.352H0z"  horiz-adv-x="1024" />

    
    <glyph glyph-name="PC-warning" unicode="&#59043;" d="M511.997 896C229.23 896 0 666.77 0 384.002s229.23-511.996 511.997-511.996 511.998 229.23 511.998 511.998S794.765 896 511.997 896z m-2.312-831.075c-35.788 1.142-64.935 30.29-66.077 66.077-1.262 39.518 31.036 71.814 70.556 70.55 35.787-1.144 64.932-30.293 66.072-66.08 1.258-39.517-31.035-71.809-70.551-70.547z m71.532 257.977c0-35.187-25.931-63.711-57.92-63.711h-20.283c-31.988 0-57.92 28.523-57.92 63.711L420.39 639.407c0 35.187 25.931 63.711 57.919 63.711h67.375c31.988 0 57.92-28.523 57.92-63.711l-22.387-316.505z"  horiz-adv-x="1025" />

    
    <glyph glyph-name="PC-look" unicode="&#59081;" d="M345.792965 473.021106c30.874372 0 55.573869 24.699497 55.573869 55.573869s-24.699497 55.573869-55.573869 55.573869-55.573869-24.699497-55.57387-55.573869 24.699497-55.573869 55.57387-55.573869zM679.750754 473.021106c30.874372 0 55.573869 24.699497 55.573869 55.573869s-24.699497 55.573869-55.573869 55.573869c-30.874372 0-55.573869-24.699497-55.57387-55.573869s24.699497-55.573869 55.57387-55.573869zM512.514573 896c-283.015075 0-512-229.499497-512-512 0-283.015075 229.499497-512 512-512 283.015075 0 512 229.499497 512 512 0.514573 283.015075-228.984925 512-512 512z m0-954.532663c-244.422111 0-442.532663 198.110553-442.532663 442.532663s198.110553 442.532663 442.532663 442.532663 442.532663-198.110553 442.532663-442.532663c0.514573-244.422111-197.59598-442.532663-442.532663-442.532663zM757.965829 384c-12.349749 0-22.126633-9.776884-22.126633-22.126633 0-122.982915-99.827136-222.81005-222.81005-222.81005s-222.81005 99.827136-222.810051 222.81005c0 12.349749-9.776884 22.126633-22.126633 22.126633s-22.126633-9.776884-22.126633-22.126633c0-147.682412 119.380905-267.063317 267.063317-267.063317s267.063317 119.380905 267.063316 267.063317c0 12.349749-10.291457 22.126633-22.126633 22.126633z"  horiz-adv-x="1029" />

    
    <glyph glyph-name="uc-icon-file" unicode="&#59082;" d="M70.475294 603.858824c0 46.381176 37.948235 84.329412 84.329412 84.329411h843.294118c46.381176 0 84.329412-37.948235 84.329411-84.329411v-584.282353c0-46.381176-37.948235-84.329412-84.329411-84.329412h-843.294118c-46.381176 0-84.329412 37.948235-84.329412 84.329412v584.282353z m949.308235 156.611764h-530.070588c0 72.884706-59.030588 132.517647-132.517647 132.517647h-220.461176c-72.884706 0-132.517647-59.030588-132.517647-132.517647V9.938824c0-72.884706 59.030588-132.517647 132.517647-132.517648h883.049411c72.884706 0 132.517647 59.030588 132.517647 132.517648V627.952941c0 73.487059-59.030588 132.517647-132.517647 132.517647z"  horiz-adv-x="1156" />

    
    </font>
</defs>
</svg>
