<?xml version="1.0" standalone="no"?>
<!DOCTYPE svg PUBLIC "-//W3C//DTD SVG 1.1//EN" "http://www.w3.org/Graphics/SVG/1.1/DTD/svg11.dtd" >
<!--
2013-9-30: Created.
-->
<svg>
<metadata>
Created by iconfont
</metadata>
<defs>

<font id="iconfont" horiz-adv-x="1024" >
  <font-face
    font-family="iconfont"
    font-weight="500"
    font-stretch="normal"
    units-per-em="1024"
    ascent="896"
    descent="-128"
  />
    <missing-glyph />
    
    <glyph glyph-name="arrowRight" unicode="&#58916;" d="M227.995823-69.17217300000004l55.053059-55.050804 508.518058 508.606717L283.048882 892.930081l-55.053059-55.050804 453.561194-453.528284L227.995823-69.17217300000004zM227.995823-69.17217300000004"  horiz-adv-x="1024" />

    
    <glyph glyph-name="refresh" unicode="&#58934;" d="M939.456 639.776c-16.672 5.984-34.976-2.72-40.896-19.36l-24.768-69.344c-28.992 65.312-74.784 122.72-133.088 165.92C555.328 854.272 291.296 816.768 152.32 633.344c-67.264-88.768-95.616-198.176-79.84-308.032 15.84-110.304 74.208-207.776 164.352-274.496 75.424-55.808 163.808-82.752 251.456-82.752 128.032 0 254.56 57.44 336.992 166.272 36.48 48.128 61.472 102.08 74.208 160.416 3.776 17.248-7.136 34.304-24.416 38.08-17.216 3.712-34.304-7.104-38.08-24.416-10.784-49.184-31.872-94.752-62.72-135.456-117.888-155.52-341.92-187.232-499.392-70.72-76.288 56.48-125.664 138.912-139.072 232.16-13.344 92.8 10.656 185.248 67.488 260.288 117.856 155.584 341.792 187.424 499.328 70.848 57.024-42.24 99.84-100.608 122.976-166.624l-109.984 42.944c-16.416 6.368-35.008-1.696-41.44-18.176-6.432-16.48 1.728-35.008 18.176-41.44l161.856-63.2c3.808-1.472 7.744-2.208 11.616-2.208 0.544 0 1.024 0.192 1.568 0.224 1.216-0.128 2.432-0.64 3.648-0.64 13.12 0 25.472 8.16 30.112 21.248l57.632 161.184C964.768 615.52 956.096 633.856 939.456 639.776z"  horiz-adv-x="1024" />

    
    <glyph glyph-name="ok-circle" unicode="&#58935;" d="M512 832C264.96 832 64 630.976 64 384s200.96-448 448-448c246.976 0 448 201.024 448 448S758.976 832 512 832ZM512 0c-212.032 0-384 171.968-384 384s171.968 384 384 384 384-171.968 384-384S724.032 0 512 0ZM760.896 529.152 444.096 212.352 263.104 393.344 217.856 348.096 398.848 167.104 444.096 121.856 489.344 167.104 806.208 483.904Z"  horiz-adv-x="1024" />

    
    <glyph glyph-name="wechat-m3-app" unicode="&#58886;" d="M422.4 115.20000000000005L422.4 115.20000000000005 422.4 294.4 243.2 294.4C147.2 294.4 64 211.20000000000005 64 115.20000000000005 64 19.200000000000045 147.2-64 243.2-64 339.2-64 422.4 19.200000000000045 422.4 115.20000000000005L422.4 115.20000000000005 422.4 115.20000000000005zM486.4 115.20000000000005c0-134.4-108.8-243.2-243.2-243.2S0-19.200000000000045 0 115.20000000000005c0 134.4 108.8 243.2 243.2 243.2l160 0 83.2 0 0-83.2L486.4 115.20000000000005 486.4 115.20000000000005zM601.6 115.20000000000005L601.6 294.4l179.2 0c96 0 179.2-76.8 179.2-179.2 0-96-76.8-179.2-179.2-179.2C684.8-64 601.6 19.200000000000045 601.6 115.20000000000005L601.6 115.20000000000005zM537.6 115.20000000000005c0-134.4 108.8-243.2 243.2-243.2 134.4 0 243.2 108.8 243.2 243.2 0 134.4-108.8 243.2-243.2 243.2L620.8 358.4 537.6 358.4l0-83.2L537.6 115.20000000000005 537.6 115.20000000000005zM422.4 652.8l0-179.2L243.2 473.6C140.8 473.6 64 556.8 64 652.8 64 755.2 140.8 832 243.2 832 339.2 832 422.4 755.2 422.4 652.8L422.4 652.8zM486.4 652.8C486.4 787.2 377.6 896 243.2 896S0 787.2 0 652.8s108.8-243.2 243.2-243.2l160 0 83.2 0L486.4 492.8 486.4 652.8 486.4 652.8zM601.6 652.8l0-179.2 179.2 0c96 0 179.2 76.8 179.2 179.2C960 755.2 883.2 832 780.8 832 684.8 832 601.6 755.2 601.6 652.8L601.6 652.8zM537.6 652.8L537.6 652.8c0 134.4 108.8 243.2 243.2 243.2C915.2 896 1024 787.2 1024 652.8s-108.8-243.2-243.2-243.2L620.8 409.6 537.6 409.6 537.6 492.8 537.6 652.8 537.6 652.8zM537.6 652.8"  horiz-adv-x="1024" />

    
    <glyph glyph-name="praise-fill" unicode="&#58980;" d="M868.354 328.882c56.0475 0 84.0718 168.144 0 168.144L700.206 497.025c168.148 280.243 46.4131 336.29 0 336.29 0-142.374-209.37-301.024-420.363-364.314L279.844 20.62l-56.0475 0L223.796 469.006l56.0475 0 0 28.0294L167.75 497.035c-30.8281 0-56.0475-37.8378-56.0475-84.0769l0-336.291c0-46.2391 25.2194-84.0707 56.0475-84.0707l112.095 0 0 28.0181c238.851-24.8234 155.578-84.0707 392.339-84.0707 56.0475 0 112.095 28.0232 112.095 84.0707 56.0526 0 84.0769 140.119 56.0526 140.119C896.378 160.734 932.281 328.882 868.354 328.882L868.354 328.882ZM868.354 328.882"  horiz-adv-x="1024" />

    
    <glyph glyph-name="praise" unicode="&#58990;" d="M672.183-88.455c-131.101 0-169.062 17.779-213.016 38.367-31.516 14.761-66.854 31.313-154.322 42.633l0-24.949L167.749-32.404c-23.197 0-45.206 13.059-60.385 35.829-13.324 19.985-20.662 45.997-20.662 73.241L86.702 412.959c0 27.244 7.337 53.256 20.661 73.244 15.18 22.772 37.189 35.833 60.386 35.833l137.095 0 0-18.81c91.205 30.877 177.978 75.259 241.939 124.133 38.139 29.143 66.716 58.678 84.938 87.784 18.39 29.374 25.571 57.599 21.346 83.891-2.306 14.347 2.438 30.095 12.69 42.126 9.291 10.903 21.847 17.156 34.448 17.156 28.613 0 70.359-14.717 93.844-56.194 17.614-31.111 21.814-71.47 12.482-119.956-8.828-45.87-30.028-99.6-63.151-160.141l124.973 0c26.048 0 47.994-11.833 61.797-33.319 10.64-16.564 16.265-38.535 16.265-63.538 0-36.064-11.407-73.896-31.514-97.523 0.424-0.688 0.838-1.389 1.242-2.102 7.442-13.137 11.216-30.063 11.216-50.305 0-28.441-7.67-60.894-20.519-86.811-8.778-17.708-19.396-31.269-31.238-40.197 0.483-3.787 0.723-7.871 0.723-12.284 0-25.167-8.115-58.034-20.675-83.732-12.825-26.244-29.532-44.01-48.388-51.92-5.22-25.631-20.443-47.731-44.146-63.533C738.724-79.5 706.43-88.455 672.183-88.455ZM308.777 42.454c96.898-12.273 136.407-30.78 171.598-47.263 40.135-18.799 71.836-33.646 191.808-33.646 41.947 0 87.095 18.485 87.095 59.07l0 25 25 0c5.086 0 11.704 5.229 18.157 14.347 8.636 12.201 16.078 30.109 20.419 49.134 4.482 19.646 3.729 32.25 2.663 35.276 1.028-2.918 6.599-8.638 14.813-8.638l0 50c3.622 0 12.72 6.761 21.713 24.901 9.446 19.057 15.315 43.811 15.315 64.603 0 11.012-1.721 20.364-4.72 25.66-1.69 2.983-2.504 2.983-4.285 2.983l0 50c2.658 0 9.304 4.73 15.817 17.425 7.666 14.939 12.243 35.075 12.243 53.861 0 15.182-2.96 28.15-8.333 36.514-4.657 7.25-10.558 10.343-19.729 10.343L656.05 472.024l22.718 37.863c99.954 166.587 87.87 239.164 71.771 267.599-12.663 22.366-34.252 29.661-47.143 30.695-0.4-0.589-0.747-1.268-0.875-1.765 11.264-71.849-32.079-147.493-125.38-218.787-71.842-54.896-170.163-104.301-272.126-136.989L308.777 42.454ZM167.749 472.035c-14.357 0-31.047-25.806-31.047-59.076l0-336.293c0-33.268 16.689-59.07 31.047-59.07l87.095 0-0.029 454.439L167.749 472.035Z"  horiz-adv-x="1024" />

    
    <glyph glyph-name="wechat-menu" unicode="&#58880;" d="M0 793.6l119.872 0 0-119.872-119.872 0 0 119.872ZM229.76 793.6l794.24 0 0-119.872-794.24 0 0 119.872ZM0 444.032l119.872 0 0-119.872-119.872 0 0 119.872ZM229.76 444.032l794.24 0 0-119.872-794.24 0 0 119.872ZM0 94.27200000000005l119.872 0 0-119.872-119.872 0 0 119.872ZM229.76 94.27200000000005l794.24 0 0-119.872-794.24 0 0 119.872Z"  horiz-adv-x="1024" />

    
    <glyph glyph-name="information-portal" unicode="&#59028;" d="M512.060832-69.88546499999995L72.734416 146.47255399999995c1.470099-1.013861-38.922139 18.452277-67.65497 36.093466 0-26.137347 6.225109-74.113267 29.077544-87.009584L464.206574-110.967129c38.019802-19.121426 54.424079-19.121426 95.607129 0L989.974812 95.55643599999996C1011.134099 106.08031700000004 1018.940832 155.860911 1018.940832 182.57615799999996c-27.607446-14.711129-66.752634-35.870416-67.543446-36.093465l-439.336554-216.35802z m1.247049 904.800316l-1.247049 0.689426c2.605624-3.061861 2.494099-1.703287 1.247049-0.689426zM34.15699 311.914455l430.049584-206.523564c38.019802-19.111287 54.424079-19.111287 95.607129 0L989.863287 312.015842c21.159287 10.53402 28.96602 60.324752 28.96602 87.029861-27.607446-14.711129-66.762772-35.870416-67.543446-36.093465l-439.225029-216.35802-439.326416 216.35802c1.470099-1.024-38.922139 18.442139-67.65497 36.093465 0.111525-26.25901 6.225109-74.113267 29.077544-87.131248z m25.752079 258.970614l426.166495-204.64792c14.356277-7.218693 20.77402-9.256554 24.748357-9.256555 4.430574 0 12.075089 2.291327 27.840633 9.601267l424.787644 203.988911c0.608317 2.017584 1.024 4.744871 1.044277 7.735763 0.030416 4.055446-0.689426 7.837149-1.75398 10.321109L534.386059 830.39303c-10.757069 6.792871-16.181228 8.648238-20.32792 8.607683-5.038891-0.050693-12.906455-2.575208-26.046099-9.530297L61.906376 589.083881c-0.385267-0.506931-0.811089-1.206495-1.216633-2.088554-1.145663-2.534653-1.855366-5.84998-1.875644-9.236277-0.020277-2.798257 0.425822-5.241663 1.084832-6.873981z m-25.752079-42.612594c-33.710891 19.23295-32.69703 79.547564 0 102.065426L464.226851 872.944792c38.009663 20.25695 61.774574 21.392475 95.596991 0l430.049584-242.718416c32.808554-19.121426 31.683168-86.228911 0-101.953901L559.813703 321.748911c-41.18305-19.111287-57.587327-19.111287-95.607129 0L34.177267 528.272475z"  horiz-adv-x="1119" />

    
    <glyph glyph-name="set" unicode="&#58938;" d="M510.19 595.010c-116.42 0-211.12-94.726-211.12-211.142 0-116.415 94.7-211.14 211.12-211.14 36.371 0 72.208 9.41 103.668 27.205 10.677 6.049 14.438 19.62 8.384 30.322-6.028 10.701-19.62 14.458-30.321 8.384-24.761-14.014-53.036-21.423-81.732-21.423-91.88 0-166.627 74.751-166.627 166.651 0 91.902 74.747 166.647 166.627 166.647 91.921 0 166.712-74.746 166.712-166.647 0-28.744-7.448-57.039-21.557-81.888-6.049-10.682-2.312-24.248 8.365-30.322 10.657-6.073 24.272-2.317 30.321 8.36 17.91 31.525 27.364 67.431 27.364 103.85 0 116.436-94.745 211.142-211.206 211.142v0zM1004.926 483.686l-150.118 24.495c-3.292 8.878-6.96 17.706-10.988 26.408l88.874 123.4c6.384 8.854 5.383 21.024-2.317 28.744l-113.32 113.365c-7.699 7.719-19.866 8.72-28.718 2.316l-123.514-88.873c-9.012 4.18-18.176 7.941-27.389 11.322l-24.045 152.298c-1.716 10.81-11.032 18.777-21.981 18.777h-160.353c-10.942 0-20.264-7.967-21.981-18.777l-24.071-152.834c-8.41-3.111-16.75-6.562-24.983-10.323l-125.11 91.013c-8.878 6.447-21.070 5.492-28.813-2.273l-113.364-113.344c-7.765-7.74-8.721-19.979-2.273-28.833l90.388-124.179c-4.447-9.544-8.499-19.24-12.077-29.030l-149.72-23.647c-10.811-1.716-18.777-11.038-18.777-21.981v-160.333c0-10.944 7.965-20.266 18.797-21.976l149.654-23.563c3.426-9.366 7.341-18.727 11.634-28.029l-89.141-122.601c-6.452-8.829-5.496-21.065 2.268-28.809l113.345-113.388c7.719-7.745 19.959-8.72 28.832-2.248l122.489 89.209c8.834-4.116 17.864-7.877 27.029-11.278l24.006-147.496c1.755-10.767 11.057-18.663 21.957-18.663h160.263c10.903 0 20.201 7.896 21.955 18.663l24.007 147.027c9.943 3.648 19.796 7.745 29.409 12.236l120.886-87.070c8.854-6.364 21.024-5.389 28.745 2.312l113.344 113.344c7.719 7.719 8.701 19.866 2.337 28.72l-87.697 121.892c3.806 8.34 7.321 16.814 10.481 25.358l150.074 24.386c10.766 1.754 18.688 11.052 18.688 21.955v160.307c-0.045 10.944-7.941 20.246-18.714 22.001v0zM979.101 320.352l-144.47-23.469c-8.232-1.336-14.996-7.139-17.598-15.040-4.939-15.104-11.101-30.031-18.308-44.38-3.716-7.409-3.026-16.263 1.805-23.002l84.358-117.263-86.587-86.581-116.371 83.827c-6.783 4.895-15.749 5.56-23.178 1.735-15.464-7.967-31.613-14.706-48.053-19.999-7.941-2.583-13.773-9.346-15.104-17.598l-23.095-141.468h-122.444l-23.090 141.892c-1.335 8.208-7.117 14.971-15.015 17.573-15.8 5.182-31.238 11.615-45.899 19.151-7.449 3.806-16.485 3.141-23.268-1.824l-117.954-85.892-86.448 86.494 85.827 118.017c4.915 6.763 5.63 15.705 1.849 23.183-7.877 15.503-14.419 31.278-19.467 46.914-2.583 7.991-9.434 13.861-17.73 15.172l-144.090 22.691v122.311l144.134 22.759c8.276 1.311 15.103 7.143 17.686 15.104 5.27 16.262 11.989 32.392 19.93 47.9 3.83 7.473 3.141 16.46-1.8 23.248l-87.094 119.619 86.513 86.468 120.512-87.652c6.763-4.914 15.685-5.604 23.114-1.868 14.326 7.231 29.163 13.373 44.114 18.244 7.941 2.602 13.749 9.429 15.060 17.686l23.183 147.206h122.33l23.183-146.738c1.311-8.301 7.163-15.152 15.169-17.712 15.666-5.048 31.238-11.456 46.253-19.087 7.409-3.781 16.307-3.091 23.070 1.779l118.93 85.562 86.561-86.607-85.586-118.816c-4.87-6.763-5.56-15.661-1.779-23.095 7.497-14.748 13.837-29.966 18.821-45.293 2.583-7.896 9.366-13.728 17.574-15.059l144.513-23.583v-122.513h-0.063z"  horiz-adv-x="1024" />

    
    <glyph glyph-name="new-circle" unicode="&#58936;" d="M489.739 361.739v-244.87h44.522v244.87h244.87v44.522h-244.87v244.87h-44.522v-244.87h-244.87v-44.522h244.87zM512-105.739c270.475 0 489.739 219.264 489.739 489.739 0 270.475-219.264 489.739-489.739 489.739-270.475 0-489.739-219.264-489.739-489.739 0-270.475 219.264-489.739 489.739-489.739zM512-61.217c-245.887 0-445.217 199.331-445.217 445.217s199.331 445.217 445.217 445.217c245.887 0 445.217-199.331 445.217-445.217 0-245.887-199.331-445.217-445.217-445.217z"  horiz-adv-x="1024" />

    
    <glyph glyph-name="remove-circle" unicode="&#58937;" d="M535.273-128c282.77 0 512 229.23 512 512s-229.23 512-512 512c-282.77 0-512-229.23-512-512 0-282.77 229.23-512 512-512zM535.273-81.455c-257.063 0-465.455 208.391-465.455 465.455 0 257.063 208.391 465.455 465.455 465.455 257.063 0 465.455-208.391 465.455-465.455 0-257.063-208.391-465.455-465.455-465.455zM256 407.273h558.545v-46.545h-558.545v46.545z"  horiz-adv-x="1071" />

    
    <glyph glyph-name="m3-arrow-down" unicode="&#58962;" d="M989.66660396 82.49556385000005c-1.41751941-0.67963259-2.66027615-1.90297125-4.07779554-2.40784118-25.7677843-12.11687822-57.55517155-8.15559111-78.23542046 13.32079881L435.30000724 582.51097125a65.536 65.536 0 0 0 2.64085806 93.98347853 68.79823645 68.79823645 0 0 0 95.90586785-2.60202193L957.5102733 234.98569955000005 1387.38759716 672.16421925c25.96196503 26.48625303 68.87590875 27.1853037 95.90586784 1.7282086A65.73018075 65.73018075 0 0 0 1504.1290585 626.1239656299999c0-16.62187141-6.34971022-33.22432475-19.06854876-46.04025363L1008.38562738 95.48625541000001c-0.87381333-0.87381333-2.29133275-1.22333867-3.16514609-2.25249659-0.71846875-0.69905067-1.24275675-1.39810133-1.94180739-2.2524966-4.07779555-3.98070518-9.00998637-5.88367645-13.59265186-8.48569837h-0.01941808z"  horiz-adv-x="1920" />

    
    <glyph glyph-name="information-portal-fill" unicode="&#58995;" d="M511.885842-71.14916400000004L68.609142 147.12151600000004c1.484058-1.027425-39.270457 18.607804-68.266667 36.4165 0-26.370569 6.278707-74.77369 29.338684-87.787737l433.915719-208.338908c38.357191-19.292754 54.910145-19.292754 96.463769 0L994.090524 95.75027899999998c21.347603 10.616722 29.224526 60.846377 29.224526 87.787737-27.854627-14.84058-67.3534-36.188183-68.152508-36.4165L511.885842-71.14916400000004zM29.681159 532.291639l433.915719-208.338908c38.357191-19.292754 54.910145-19.292754 96.463769 0l433.915719 208.338908c31.964326 15.868004 33.105909 83.56388 0 102.856633L560.060647 880.017837c-34.133333 21.57592-58.106577 20.434337-96.463769 0L29.681159 635.26243c-32.99175-22.717503-34.019175-83.56388 0-102.970791z m483.460424 309.369008l-1.255741 0.684949c2.625641-3.082274 2.511483-1.712375 1.255741-0.684949zM29.681159 314.02095899999995l433.915719-208.338908c38.357191-19.292754 54.910145-19.292754 96.463769 0l433.915719 208.453066c21.347603 10.616722 29.224526 60.846377 29.224526 87.787737-27.854627-14.84058-67.3534-36.188183-68.152508-36.416499L511.885842 147.23567400000002 68.609142 365.506355c1.484058-1.027425-39.270457 18.607804-68.266667 36.416499 0.114158-26.484727 6.278707-74.77369 29.338684-87.901895z"  horiz-adv-x="1024" />

    
    <glyph glyph-name="noData" unicode="&#59035;" d="M114.176 229.88800000000003H46.08c-7.68 0-13.312 6.144-13.312 13.312 0 7.68 6.144 13.312 13.312 13.312h68.096c7.68 0 13.312-6.144 13.312-13.312 0-7.168-6.144-13.312-13.312-13.312zM79.872 196.096c-7.68 0-13.312 6.144-13.312 13.312v68.096c0 7.68 6.144 13.312 13.312 13.312 7.68 0 13.312-6.144 13.312-13.312v-68.096c0.512-7.168-5.632-13.312-13.312-13.312zM158.208 786.944H90.112c-7.68 0-13.312 6.144-13.312 13.312 0 7.168 6.144 13.312 13.312 13.312h68.096c7.68 0 13.312-6.144 13.312-13.312 0-7.168-6.144-13.312-13.312-13.312zM123.904 753.152c-7.68 0-13.312 6.144-13.312 13.312V834.56c0 7.68 6.144 13.312 13.312 13.312 7.168 0 13.312-6.144 13.312-13.312v-68.096c0.512-7.68-5.632-13.312-13.312-13.312z m791.552 24.576h-47.104c-5.12 0-9.216 4.096-9.216 9.216s4.096 9.216 9.216 9.216h47.104c5.12 0 9.216-4.096 9.216-9.216s-4.096-9.216-9.216-9.216zM891.392 754.1759999999999c-5.12 0-9.216 4.096-9.216 9.216v47.104c0 5.12 4.096 9.216 9.216 9.216s9.216-4.096 9.216-9.216v-47.104c0.512-5.12-3.584-9.216-9.216-9.216zM976.384 153.60000000000002h-47.104c-5.12 0-9.216 4.096-9.216 9.216s4.096 9.216 9.216 9.216h47.104c5.12 0 9.216-4.096 9.216-9.216s-4.096-9.216-9.216-9.216zM884.224 475.136h-170.496c-19.456 0-35.328 13.312-35.328 29.696 0 16.384 15.872 29.696 35.328 29.696h170.496c19.456 0 35.328-13.312 35.328-29.696 0-16.384-15.872-29.696-35.328-29.696z m-64.512-113.152h-117.248c-13.312 0-24.064 13.312-24.064 29.696 0 16.384 10.752 29.696 24.064 29.696h117.248c13.312 0 24.064-13.312 24.064-29.696 0.512-16.384-10.752-29.696-24.064-29.696zM984.576 664.576H808.96V793.088H293.888c-70.656 0-128-57.344-128-128v-648.192c-101.888-10.24-165.888-25.088-165.888-40.96 0-30.72 223.744-55.296 500.224-55.296s500.224 24.576 500.224 55.296c0 20.992-104.448 38.912-259.072 48.64L808.96 92.15999999999997v126.976h175.616c22.016 0 39.424 17.92 39.424 39.424V625.152c0 22.016-17.92 39.424-39.424 39.424z m-220.672-553.472L688.64 35.84000000000003H211.456V665.088c0 45.568 37.376 82.944 82.944 82.944h470.016v-83.456H371.2c-22.016 0-39.424-17.92-39.424-39.424v-366.08c0-22.016 17.92-39.424 39.424-39.424v-0.512h393.216v-108.032z m211.968 156.16H379.904V616.96h595.968v-349.696zM943.616 186.36800000000005v-47.104c0-5.12 4.096-9.216 9.216-9.216s9.216 4.096 9.216 9.216v47.104c0 5.12-4.096 9.216-9.216 9.216s-9.216-4.096-9.216-9.216zM546.816 571.904c23.04 0 41.472-5.12 54.784-15.36 13.312-10.24 19.968-25.088 19.968-44.544 0-9.216-2.56-17.408-8.192-25.088-5.632-7.68-13.824-16.384-24.576-25.088-5.632-4.096-10.752-8.704-15.872-13.312-3.072-3.072-6.144-6.144-8.704-9.728-2.048-3.072-3.072-5.632-4.096-8.704-0.512-3.072-1.024-6.656-1.024-9.728 0-12.288-6.144-17.92-18.944-17.92-5.12 0-8.704 0.512-11.776 1.024-2.56 0.512-4.608 1.536-6.656 3.072-1.536 1.536-2.56 3.584-3.072 5.632-0.512 3.072-0.512 5.632-0.512 8.704 0 19.456 12.288 38.4 36.352 57.856l13.824 10.752c3.584 3.072 6.144 5.632 8.192 8.192 2.048 2.56 3.072 5.12 3.584 7.68 0.512 2.56 1.024 5.632 1.024 9.216 0 8.704-3.072 14.848-9.216 19.456-6.144 4.608-14.848 6.656-26.112 6.656s-19.968-2.56-27.136-7.68c-6.656-5.12-10.24-11.264-10.752-18.944-0.512-11.264-7.68-16.896-20.48-16.896-13.312 0-20.48 5.632-20.48 16.384 0 15.36 7.68 29.184 22.528 41.472 15.36 11.264 33.792 16.896 57.344 16.896z m-9.728-187.392c4.096 0 8.192-1.024 11.776-2.56 7.168-3.072 12.8-9.216 16.384-16.384 1.536-3.584 2.56-7.68 2.56-11.776 0-4.096-1.024-8.192-2.56-11.776-3.072-7.168-9.216-12.8-16.384-16.384-3.584-1.536-7.68-2.56-11.776-2.56-4.096 0-8.192 1.024-11.776 2.56-7.168 3.072-12.8 9.216-16.384 16.384-1.536 3.584-2.56 7.68-2.56 11.776 0 4.096 1.024 8.192 2.56 11.776 3.072 7.168 9.216 12.8 16.384 16.384 4.096 2.048 7.68 2.56 11.776 2.56z m148.48-278.528h-389.12c-13.312 0-24.064 10.752-24.064 24.064s10.752 24.064 24.064 24.064H686.08c13.312 0 24.064-10.752 24.064-24.064s-11.264-24.064-24.576-24.064z"  horiz-adv-x="1063" />

    
    <glyph glyph-name="d_formquery" unicode="&#58889;" d="M1011.2 12.8c7.68-7.68 12.8-18.944 12.8-31.232 0-24.064-19.456-44.032-44.032-44.032-12.288 0-23.040 5.12-31.232 12.8l-107.008 117.248c-26.112-15.36-71.168-26.112-103.936-26.112-96.768 0-181.76 84.992-181.76 181.76s84.992 181.76 181.76 181.76 181.76-84.992 181.76-181.76c0-32.256-10.752-77.824-26.112-103.936l117.76-106.496zM741.888 352.768c-67.584 0-132.608-64.512-132.608-132.608 0-67.584 64.512-132.608 132.608-132.608 67.584 0 132.608 64.512 132.608 132.608 0 67.584-65.024 132.608-132.608 132.608zM530.432 509.44l-132.608 2.56v-106.496h132.608zM185.344 512h132.608v-105.984h-132.608zM185.344 326.144h132.608v-105.984h-132.608zM609.792 512h132.608v-79.36h-132.608v79.36zM821.76 829.952h-742.4c-53.248 0-79.36-31.232-79.36-79.36v-636.416c0-55.296 25.088-79.36 79.36-79.36h532.48c-24.064 16.384-46.592 34.816-61.952 53.248h-470.528c-14.848 0-26.624 9.216-26.624 26.624v476.672h795.136l-2.048-150.016c18.944-10.24 37.376-24.576 55.296-41.472v350.208c0 51.712-27.136 79.872-79.36 79.872zM848.384 644.096h-795.136v106.496h795.136v-106.496zM397.824 326.144h105.984v-105.984h-105.984v105.984z"  horiz-adv-x="1024" />

    
    <glyph glyph-name="d_ywscqjcsj" unicode="&#58890;" d="M991.744-13.312h-927.744v825.856c0 17.408-14.336 31.232-32.256 31.232s-31.744-13.824-31.744-31.232v-888.832h991.744c17.92 0 32.256 13.824 32.256 31.232s-14.336 31.744-32.256 31.744zM207.872 196.608h87.040c24.064 0 43.52-19.456 43.52-43.52v-87.040c0-24.064-19.456-43.52-43.52-43.52h-87.040c-24.064 0-43.52 19.456-43.52 43.52v87.040c0.512 24.064 19.968 43.52 43.52 43.52zM468.992 283.648h87.040c24.064 0 43.52-19.456 43.52-43.52v-174.080c0-24.064-19.456-43.52-43.52-43.52h-87.040c-24.064 0-43.52 19.456-43.52 43.52v174.080c0 24.064 19.456 43.52 43.52 43.52zM729.6 414.208h87.040c24.064 0 43.52-19.456 43.52-43.52v-304.128c0-24.064-19.456-43.52-43.52-43.52h-87.040c-24.064 0-43.52 19.456-43.52 43.52v304.128c0 23.552 19.456 43.52 43.52 43.52zM852.48 764.928c-16.896 17.408-44.544 17.408-61.44 0l-245.76-245.76c-16.896-16.896-44.544-16.896-61.44 0l-92.16 92.16c-16.896 16.896-44.544 16.896-61.44 0l-123.392-122.88c-16.896-16.896-16.896-44.544 0-61.44s44.544-16.896 61.44 0l61.44 61.44c16.896 16.896 44.544 16.896 61.44 0l92.16-92.16c16.896-16.896 44.544-16.896 61.44 0l307.712 307.712c16.384 16.384 16.384 44.032 0 60.928z"  horiz-adv-x="1024" />

    
    <glyph glyph-name="d_cbulletin" unicode="&#58891;" d="M527.872 830.976c-12.288 6.144-26.624 4.608-36.864-4.096-0.512-0.512-51.712-42.496-108.544-86.016-99.328-74.752-128-87.552-134.144-89.6h-154.112c-28.672 0-54.272-12.288-71.68-34.816-14.848-19.456-22.528-44.544-22.528-73.216v-318.464c0-59.392 47.104-108.032 104.448-108.032h43.52c19.456 0 35.328 16.384 35.328 36.352s-15.872 36.352-35.328 36.352h-43.52c-18.944 0-34.304 15.872-34.304 35.84v317.952c0 13.312 3.072 35.84 24.064 35.84h156.672c17.92 0 45.568 7.68 165.888 98.816 21.504 16.384 42.496 32.768 60.416 46.592v-675.84c-14.848 12.8-30.72 26.624-47.616 40.448-110.080 92.16-137.216 99.84-155.648 99.84-19.456 0-35.328-16.384-35.328-36.352 0-18.944 14.336-34.304 32.256-36.352 5.12-2.048 31.744-13.824 120.832-89.088 51.2-43.008 96.768-84.992 97.28-84.992 6.656-6.144 14.848-9.216 23.552-9.216 5.12 0 9.728 1.024 14.336 3.072 12.8 5.632 20.48 18.944 20.48 33.28v828.928c0.512 14.336-7.68 26.624-19.456 32.768zM799.232 769.536c-16.896 9.216-38.4 2.56-47.616-14.848-9.216-17.92-2.56-39.424 14.336-49.152 115.712-63.488 187.392-185.856 187.392-320.512 0-134.144-71.68-257.024-187.392-320.512-16.896-9.216-23.552-31.232-14.336-49.152 6.144-12.288 18.432-19.456 31.232-19.456 5.632 0 11.264 1.536 16.384 4.096 138.752 76.8 224.768 223.744 224.768 385.024s-86.016 308.224-224.768 384.512zM803.84 250.368c24.064 40.448 36.864 87.040 36.864 134.656s-12.8 94.208-36.864 134.656c-23.552 39.424-56.832 71.168-96.768 91.648-17.408 9.216-38.4 2.048-47.104-15.872-8.704-17.92-2.048-39.424 15.36-48.64 58.88-30.72 95.232-92.672 95.232-161.792s-36.352-131.072-95.232-161.792c-17.408-9.216-24.064-30.72-15.36-48.64 6.144-12.8 18.432-19.968 31.232-19.968 5.12 0 10.752 1.024 15.872 4.096 39.936 20.48 73.216 52.224 96.768 91.648z"  horiz-adv-x="1024" />

    
    <glyph glyph-name="d_formstatistics" unicode="&#58892;" d="M543.744 183.808l132.608 93.184c5.632 3.584 12.288 5.632 19.456 5.632 7.68 0 14.848-2.56 20.992-6.656l117.248-112.128 130.56 137.216c6.144 4.096 13.824 6.656 21.504 6.656 20.992 0 37.888-16.896 37.888-37.888 0-12.8-6.656-24.576-16.384-31.232l-0.512-0.512-151.040-152.064c-6.144-4.096-13.824-6.656-21.504-6.656s-14.848 2.56-20.992 6.656l-118.784 113.664-150.528-103.936M388.096 461.824h129.536v-103.424h-129.536zM181.248 280.576h129.536v-103.424h-129.536zM181.248 461.824h129.536v-103.424h-129.536zM594.944 461.824h129.536v-103.424h-129.536v103.424zM802.304 772.096h-724.48c-62.976-22.016-77.824-7.168-77.824-77.312v-594.944c0-89.6 14.336-103.424 103.424-103.424h432.128c-20.48 15.872-39.424 33.792-52.224 51.712h-379.904c-29.696 0-51.712 22.016-51.712 51.712v439.296h776.192l-1.536-95.744c17.92-10.24 35.84-23.552 53.248-39.936v290.816c0 70.656-14.848 55.808-77.312 77.824zM827.904 590.848h-776.192v103.936h776.192v-103.936zM388.096 280.576h103.424v-103.424h-103.424v103.424z"  horiz-adv-x="1024" />

    
    <glyph glyph-name="d_doccenter" unicode="&#58893;" d="M911.36 568.32c-11.264 0-45.568 9.216-45.568 20.48v46.592c0 33.792 2.048 70.656-42.496 71.68h-372.736c-11.264 0-20.48 33.792-20.48 45.568s9.216 20.48 20.48 20.48h410.624c77.312 0 70.656-46.080 70.656-102.4v-81.92c0-11.264-9.216-20.48-20.48-20.48zM921.6-66.56h-819.2c-56.32 0-102.4 46.080-102.4 102.4v696.32c0 56.32 46.080 102.4 102.4 102.4h265.728c47.616 0 82.432-12.288 97.28-72.704 12.288-50.688 32.768-122.368 41.472-153.088h414.72c56.32 0 102.4-46.080 102.4-102.4v-471.040c0-55.808-45.568-101.888-102.4-101.888zM135.68 760.32c-30.72 0-71.168-25.088-71.168-55.808v-635.904c3.584-67.072 45.568-71.168 76.288-71.168h742.4c65.536 0 76.288 40.448 76.288 71.168v415.744c-3.584 47.104-43.52 51.712-76.288 52.224h-389.632c-30.72-0.512-40.448 1.536-53.76 28.16-0.512 1.024-27.136 92.672-41.984 153.6-7.68 32.256-24.576 42.496-57.344 42.496h-199.68l-5.12-0.512zM696.832 242.688h-474.624c-17.408 0-31.744 14.336-31.744 31.744s14.336 31.744 31.744 31.744h474.624c17.408 0 31.744-14.336 31.744-31.744 0.512-17.408-13.824-31.744-31.744-31.744zM822.784 102.4h-600.576c-17.408 0-31.744 14.336-31.744 31.744s14.336 31.744 31.744 31.744h600.576c17.408 0 31.744-14.336 31.744-31.744s-14.336-31.744-31.744-31.744z"  horiz-adv-x="1024" />

    
    <glyph glyph-name="d_todoevent" unicode="&#58894;" d="M557.056 203.264c25.088 0 45.056-19.968 45.056-45.056s-19.968-45.056-45.056-45.056-45.056 19.968-45.056 45.056 19.968 45.056 45.056 45.056zM707.584 203.264c25.088 0 45.056-19.968 45.056-45.056s-19.968-45.056-45.056-45.056-45.056 19.968-45.056 45.056 20.48 45.056 45.056 45.056zM858.112 203.264c25.088 0 45.056-19.968 45.056-45.056s-19.968-45.056-45.056-45.056-45.056 19.968-45.056 45.056 20.48 45.056 45.056 45.056zM692.736 474.624c-166.4 0-301.056-134.656-301.056-301.056s134.656-301.056 301.056-301.056 301.056 134.656 301.056 301.056c0 165.888-134.656 301.056-301.056 301.056zM692.736-67.584c-121.344 0-240.64 122.368-240.64 240.64 0 120.32 119.808 240.64 240.64 240.64 123.392 0 240.64-119.296 240.64-240.64s-121.344-240.64-240.64-240.64zM632.32 896h-511.488c-34.816 0-90.624-55.296-90.624-90.112v-843.264c0-34.816 55.808-90.112 90.112-90.112l391.68-0.512c34.816 0-60.416 25.088-60.416 60.416h-325.632c-21.504 0-35.84 30.208-35.84 30.208v843.264s11.776 30.208 32.256 30.208h479.744v-150.528c0-14.336 15.872-30.208 30.208-30.208h150.528v-150.528h60.416v180.224M210.944 654.848h180.736c14.336 0 30.208 15.872 30.208 30.208s-15.872 30.208-30.208 30.208h-180.736c-14.336 0-30.208-15.872-30.208-30.208s15.872-30.208 30.208-30.208zM571.904 564.736c0 14.336-15.872 30.208-30.208 30.208h-330.752c-14.336 0-30.208-15.872-30.208-30.208 0-14.336 15.872-30.208 30.208-30.208h331.264c13.824 0 29.696 15.872 29.696 30.208zM210.944 414.208h180.736c14.336 0 30.208 15.872 30.208 30.208s-15.872 30.208-30.208 30.208h-180.736c-14.336 0-30.208-15.872-30.208-30.208 0-14.336 15.872-30.208 30.208-30.208zM210.944 293.888h120.32c14.336 0 30.208 15.872 30.208 30.208s-15.872 30.208-30.208 30.208h-120.32c-14.336 0-30.208-15.872-30.208-30.208s15.872-30.208 30.208-30.208z"  horiz-adv-x="1024" />

    
    <glyph glyph-name="d_unsentevent" unicode="&#58895;" d="M722.944 173.568v79.36l37.888-38.912c5.632-5.632 13.312-9.216 22.528-9.216 16.384 0 30.208 12.8 30.208 28.16 0 7.168-3.072 13.824-7.68 18.944l-90.112 93.696c-5.632 5.632-13.312 9.216-22.528 9.216-8.704 0-16.896-3.584-22.528-9.216l-90.112-93.696c-4.608-5.12-7.68-11.776-7.68-18.944 0-15.36 13.312-28.16 30.208-28.16 8.704 0 16.896 3.584 22.528 9.216l37.888 38.912v-79.36M662.528 52.736h60.416v-60.416h-60.416v60.416zM662.528 143.36h60.416v-60.416h-60.416v60.416zM692.736 474.624c-166.4 0-301.056-134.656-301.056-301.056s134.656-301.056 301.056-301.056 301.056 134.656 301.056 301.056c0 165.888-134.656 301.056-301.056 301.056zM692.736-67.584c-121.344 0-240.64 117.76-240.64 240.64 0 120.832 119.808 240.64 240.64 240.64 119.296 0 240.64-119.808 240.64-240.64 0-121.856-118.272-240.64-240.64-240.64zM632.32 896h-511.488c-34.816 0-90.624-55.296-90.624-90.112v-843.264c0-34.816 55.808-90.112 90.112-90.112l391.68-0.512c34.816 0-60.416 25.088-60.416 60.416h-331.264c-18.432 0-30.208 30.208-30.208 30.208v843.264s13.312 30.208 35.328 30.208h476.16v-150.528c0-14.336 15.872-30.208 30.208-30.208h150.528v-150.528h59.904v180.224M210.944 654.848h180.736c14.336 0 30.208 15.872 30.208 30.208s-15.872 30.208-30.208 30.208h-180.736c-14.336 0-30.208-15.872-30.208-30.208s15.872-30.208 30.208-30.208zM571.904 564.736c0 14.336-15.872 30.208-30.208 30.208h-330.752c-14.336 0-30.208-15.872-30.208-30.208 0-14.336 15.872-30.208 30.208-30.208h331.264c13.824 0 29.696 15.872 29.696 30.208zM210.944 414.208h180.736c14.336 0 30.208 15.872 30.208 30.208s-15.872 30.208-30.208 30.208h-180.736c-14.336 0-30.208-15.872-30.208-30.208 0-14.336 15.872-30.208 30.208-30.208zM210.944 293.888h120.32c14.336 0 30.208 15.872 30.208 30.208s-15.872 30.208-30.208 30.208h-120.32c-14.336 0-30.208-15.872-30.208-30.208s15.872-30.208 30.208-30.208z"  horiz-adv-x="1024" />

    
    <glyph glyph-name="d_mycollection" unicode="&#58896;" d="M417.949 315.904c-8.192 0-15.36 6.656-15.36 14.848-0.512 8.704 6.144 15.872 14.848 16.384 78.848 4.096 137.216 27.136 173.568 68.608 45.056 51.2 40.448 114.176 40.448 114.688-0.512 8.704 5.632 15.872 14.336 16.896 8.704 0.512 15.872-5.632 16.896-14.336 0-3.072 5.632-75.776-48.128-137.216-41.984-48.128-108.032-75.264-196.096-79.872h-0.512zM376.989 331.264c0-9.728-7.68-17.408-17.408-17.408s-17.408 7.68-17.408 17.408 7.68 17.408 17.408 17.408 17.408-7.68 17.408-17.408zM1021.085 500.224c-9.216 27.648-36.864 46.592-75.264 52.224l-247.808 34.816-68.096 133.12c-9.216 18.432-32.256 25.6-51.2 16.896-18.944-9.216-26.624-31.232-17.408-49.152l76.8-150.528c5.632-10.752 16.384-18.432 28.672-19.968l267.776-37.376c5.12-0.512 9.216-2.048 11.776-2.56-1.536-2.048-4.096-5.12-7.68-8.704l-193.536-182.272c-9.216-8.192-13.312-20.48-10.752-32.768l45.568-257.024c1.024-5.12 1.024-8.704 1.024-11.264-2.56 0.512-6.144 2.048-10.752 4.096l-239.616 121.344c-11.264 5.632-24.576 5.632-35.328 0l-153.088-77.824c-18.432-9.216-25.6-31.744-15.872-49.664s32.768-24.576 51.712-15.36l135.168 68.608 221.696-112.64c17.408-8.704 34.816-13.312 50.688-13.312s30.208 4.096 41.984 12.8c24.576 16.896 34.816 48.128 28.16 84.992l-42.496 238.080 179.2 168.448c27.136 26.624 37.888 57.344 28.672 84.992zM255.133-10.752c-4.608-2.56-8.192-3.584-10.752-4.096 0 2.56 0 6.144 1.024 11.264l45.568 257.024c2.048 11.776-2.048 24.064-10.752 32.768l-194.048 182.272c-3.584 3.584-6.144 6.656-7.68 8.704 2.56 1.024 6.144 2.048 11.776 2.56l267.264 37.376c12.288 1.536 23.040 9.216 28.672 19.968l39.936 78.336c0.512 0.512 0.512 1.024 1.024 1.536l78.848 154.112c2.56 4.608 4.608 7.68 6.144 9.728 1.536-2.048 4.096-5.12 6.144-9.728 9.216-18.432 32.256-25.6 51.2-16.896 18.944 9.216 26.624 31.232 17.408 49.152-17.408 33.792-44.544 53.248-74.752 53.248s-57.344-19.456-74.752-53.248l-78.848-153.6c0-0.512-0.512-0.512-0.512-1.024l-31.744-61.952-247.808-34.816c-38.4-4.608-65.536-24.064-75.264-51.712-9.216-27.648 1.536-58.368 29.184-84.992l179.2-168.448-42.496-238.080c-6.656-36.864 3.584-68.096 28.16-84.992 11.776-8.192 26.624-12.8 41.984-12.8 15.872 0 33.28 4.608 50.688 13.312 18.432 9.216 25.6 31.744 15.872 49.664-9.216 17.92-32.256 25.088-50.688 15.36z"  horiz-adv-x="1024" />

    
    <glyph glyph-name="d_newaffair" unicode="&#58897;" d="M662.528 293.888v-241.152c0-14.336 15.872-30.208 30.208-30.208s30.208 15.872 30.208 30.208v241.152c0 14.336-15.872 30.208-30.208 30.208-14.336-0.512-30.208-16.384-30.208-30.208zM571.904 142.848h240.64c14.336 0 30.208 15.872 30.208 30.208s-15.872 30.208-30.208 30.208h-240.64c-14.336 0-30.208-15.872-30.208-30.208s16.384-30.208 30.208-30.208zM692.736 474.624c-166.4 0-301.056-134.656-301.056-301.056s134.656-301.056 301.056-301.056 301.056 134.656 301.056 301.056c0 165.888-134.656 301.056-301.056 301.056zM692.736-67.584c-119.296 0-240.64 120.32-240.64 240.64 0 117.248 119.808 240.64 240.64 240.64 119.296 0 240.64-122.88 240.64-240.64s-121.344-240.64-240.64-240.64zM632.32 896h-511.488c-34.816 0-90.624-55.296-90.624-90.112v-843.264c0-34.816 55.808-90.112 90.112-90.112l391.68-0.512c34.816 0-60.416 25.088-60.416 60.416h-90.624s-160.768-8.704-240.64 0.512c-34.816 4.096-30.208 30.208-30.208 30.208v842.752s10.752 30.208 29.696 30.208h482.304v-150.528c0-14.336 15.872-30.208 30.208-30.208h150.528v-150.528h59.904v180.224M210.944 654.848h180.736c14.336 0 30.208 15.872 30.208 30.208s-15.872 30.208-30.208 30.208h-180.736c-14.336 0-30.208-15.872-30.208-30.208s15.872-30.208 30.208-30.208zM571.904 564.736c0 14.336-15.872 30.208-30.208 30.208h-330.752c-14.336 0-30.208-15.872-30.208-30.208 0-14.336 15.872-30.208 30.208-30.208h331.264c13.824 0 29.696 15.872 29.696 30.208zM210.944 414.208h180.736c14.336 0 30.208 15.872 30.208 30.208s-15.872 30.208-30.208 30.208h-180.736c-14.336 0-30.208-15.872-30.208-30.208 0-14.336 15.872-30.208 30.208-30.208zM210.944 293.888h120.32c14.336 0 30.208 15.872 30.208 30.208s-15.872 30.208-30.208 30.208h-120.32c-14.336 0-30.208-15.872-30.208-30.208s15.872-30.208 30.208-30.208z"  horiz-adv-x="1024" />

    
    <glyph glyph-name="d_doneevent" unicode="&#58898;" d="M866.304 251.392v-30.208l-181.248-190.976c-4.096-4.608-10.24-7.168-16.896-7.168s-12.288 2.56-16.896 7.168l-102.4 108.032c-4.096 4.608-7.168 10.752-7.168 17.408 0 13.824 10.752 54.784 23.552 54.784 6.656 0 12.288-2.56 16.896-7.168l79.872-90.112 170.496 173.568c4.096 4.608 10.24 7.168 16.896 7.168 13.312 0 23.552-41.472 23.552-54.784 0.512-7.168-2.048 16.896-6.656 12.288zM692.736 474.624c-166.4 0-301.056-134.656-301.056-301.056s134.656-301.056 301.056-301.056 301.056 134.656 301.056 301.056c0 165.888-134.656 301.056-301.056 301.056zM692.736-67.584c-120.32 0-240.64 120.32-240.64 240.64 0 118.784 120.32 240.64 240.64 240.64 118.272 0 240.64-121.344 240.64-240.64 0-120.832-121.856-240.64-240.64-240.64zM632.32 896h-511.488c-34.816 0-90.624-55.296-90.624-90.112v-843.264c0-34.816 55.808-90.112 90.112-90.112l391.68-0.512c34.816 0-60.416 25.088-60.416 60.416h-331.264c-18.432 0-30.208 30.208-30.208 30.208v843.264s11.264 30.208 30.208 30.208h481.792v-150.528c0-14.336 15.872-30.208 30.208-30.208h150.528v-150.528h59.904v180.224M210.944 654.848h180.736c14.336 0 30.208 15.872 30.208 30.208s-15.872 30.208-30.208 30.208h-180.736c-14.336 0-30.208-15.872-30.208-30.208s15.872-30.208 30.208-30.208zM571.904 564.736c0 14.336-15.872 30.208-30.208 30.208h-330.752c-14.336 0-30.208-15.872-30.208-30.208 0-14.336 15.872-30.208 30.208-30.208h331.264c13.824 0 29.696 15.872 29.696 30.208zM210.944 414.208h180.736c14.336 0 30.208 15.872 30.208 30.208s-15.872 30.208-30.208 30.208h-180.736c-14.336 0-30.208-15.872-30.208-30.208 0-14.336 15.872-30.208 30.208-30.208zM210.944 293.888h120.32c14.336 0 30.208 15.872 30.208 30.208s-15.872 30.208-30.208 30.208h-120.32c-14.336 0-30.208-15.872-30.208-30.208s15.872-30.208 30.208-30.208z"  horiz-adv-x="1024" />

    
    <glyph glyph-name="d_ywscqxxgl" unicode="&#58899;" d="M179.712 322.56c-18.432 0-33.28 14.848-33.28 33.28 0 8.704 3.584 16.896 9.728 23.552 6.144 6.144 14.336 9.728 23.552 9.728h219.136c18.432 0 33.28-14.848 33.28-33.28s-14.848-33.28-33.28-33.28h-219.136zM203.264 539.648c-31.232 0-56.32 14.848-56.32 33.28s25.6 33.28 56.32 33.28h491.52c31.232 0 56.32-14.848 56.32-33.28s-25.6-33.28-56.32-33.28h-491.52zM152.064-120.832c-83.968 0-152.064 69.12-152.064 154.624v707.584c0.512 85.504 68.608 154.624 152.576 154.624h693.248c83.968 0 152.064-69.12 152.064-154.624v-297.984h-0.512v-0.512c0-18.432-14.848-33.28-33.28-33.28-8.704 0-16.896 3.584-23.552 9.728s-9.728 14.336-9.728 23.552l0.512 298.496c0 48.64-38.4 88.576-86.016 88.576h-693.248c-47.104 0-86.016-39.424-86.016-88.576v-707.584c0-48.64 38.4-88.576 86.016-88.576l182.272 0.512c17.92-0.512 31.744-14.336 32.256-32.256 0.512-18.432-14.336-33.28-32.256-33.792l-182.272-0.512zM484.352-128c-6.144 0-11.776 2.56-15.872 6.656s-6.656 9.728-6.656 15.872v0.512c0 12.288 10.24 22.016 22.528 22.016h14.336v364.544c0 43.008 34.816 77.824 77.824 77.824h147.456c43.008 0 77.824-34.816 77.824-77.824v-32.768h106.496c43.008 0 77.824-34.816 77.824-77.824v-253.952h14.848c6.144 0 11.776-2.56 15.872-6.656s6.656-9.728 6.656-15.872v-0.512c0-12.288-10.24-22.016-22.528-22.016h-516.608zM757.248-82.944v364.544c0 17.92-14.848 32.768-32.768 32.768h-147.456c-17.92 0-32.768-14.848-32.768-32.768v-364.544h212.992zM941.568-82.944v253.952c0 17.92-14.848 32.768-32.768 32.768h-106.496v-286.72h139.264zM594.944-17.408c-6.144 0-11.776 2.56-15.872 6.656s-6.656 9.728-6.656 15.872v0.512c0 12.288 10.24 22.016 22.016 22.016h112.128c6.144 0 11.776-2.56 15.872-6.656s6.656-9.728 6.144-15.872v-0.512c0-12.288-10.24-22.016-22.016-22.016h-111.616zM852.992-17.408c-12.288 0-22.016 10.24-22.016 22.528v0.512c0 12.288 10.24 22.016 22.016 22.016h37.376c6.144 0 11.776-2.56 15.872-6.656s6.656-9.728 6.656-15.872v-0.512c0-12.288-10.24-22.016-22.528-22.016h-37.376zM594.944 93.184c-6.144 0-11.776 2.56-15.872 6.656s-6.656 9.728-6.656 15.872v0.512c0 12.288 10.24 22.016 22.016 22.016h114.688v-0.512c4.608-1.024 8.704-3.072 12.288-6.656 4.096-4.096 6.656-9.728 6.656-15.872 0-12.288-9.728-22.528-22.528-22.528h-110.592v0.512zM853.504 93.184c-12.288 0-22.528 9.728-22.528 22.528v0.512c0 12.288 10.24 22.016 22.016 22.016h46.592l-1.536-1.536c8.192-3.072 14.336-11.776 14.336-20.992v-0.512c0-12.288-10.24-22.016-22.528-22.016h-36.352zM595.456 203.776c-12.288 0-22.528 9.728-22.528 22.528v0.512c0 12.288 10.24 22.016 22.016 22.016h111.104c12.288 0 22.528-9.728 22.528-22.528 0-12.288-9.728-22.528-22.528-22.528h-110.592z"  horiz-adv-x="1024" />

    
    <glyph glyph-name="d_cnews" unicode="&#58900;" d="M909.312 832h-794.624c-63.488 0-114.688-53.76-114.688-119.808v-655.872c0-66.048 51.2-119.808 114.688-119.808h795.136c62.976 0 114.688 53.76 114.688 119.808v655.872c-0.512 66.048-51.712 119.808-115.2 119.808zM958.976 55.808c0-28.672-22.016-51.712-49.152-51.712h-795.136c-27.136 0-49.152 23.040-49.152 51.712v656.384c0 28.672 22.016 51.712 49.152 51.712h795.136c27.136 0 49.152-23.040 49.152-51.712v-656.384zM110.080 659.456h718.336v-70.656h-718.336zM501.76 515.072h326.656v-70.656h-326.656zM501.76 343.040h326.656v-70.144h-326.656zM501.76 172.032h267.776v-70.144h-267.776zM110.080 514.048h310.272v-412.16h-310.272z"  horiz-adv-x="1024" />

    
    <glyph glyph-name="d_sentevent" unicode="&#58901;" d="M572.416 203.264h169.984l-38.912 37.888c-5.632 5.632-9.216 13.312-9.216 22.528 0 16.384 12.8 30.208 28.16 30.208 7.168 0 13.824-3.072 18.944-7.68l93.184-90.112c5.632-5.632 9.216-13.312 9.216-22.528 0-8.704-3.584-16.896-9.216-22.528l-93.184-90.112c-5.12-4.608-11.776-7.68-18.944-7.68-15.36 0-28.16 13.312-28.16 30.208 0 8.704 3.584 16.896 9.216 22.528l38.912 37.888h-169.984M692.736 474.624c-166.4 0-301.056-134.656-301.056-301.056s134.656-301.056 301.056-301.056 301.056 134.656 301.056 301.056c0 165.888-134.656 301.056-301.056 301.056zM692.736-67.584c-120.32 0-240.64 119.808-240.64 240.64 0 117.76 121.344 240.64 240.64 240.64 119.808 0 240.64-122.368 240.64-240.64 0-119.808-120.832-240.64-240.64-240.64zM632.32 896h-511.488c-34.816 0-90.624-55.296-90.624-90.112v-843.264c0-34.816 55.808-90.112 90.112-90.112l391.68-0.512c34.816 0-60.416 25.088-60.416 60.416h-330.752c-18.944 0-30.72 30.208-30.72 30.208v843.264s11.776 30.208 32.256 30.208h479.744v-150.528c0-14.336 15.872-30.208 30.208-30.208h150.528v-150.528h59.904v180.224M210.944 654.848h180.736c14.336 0 30.208 15.872 30.208 30.208s-15.872 30.208-30.208 30.208h-180.736c-14.336 0-30.208-15.872-30.208-30.208s15.872-30.208 30.208-30.208zM571.904 564.736c0 14.336-15.872 30.208-30.208 30.208h-330.752c-14.336 0-30.208-15.872-30.208-30.208 0-14.336 15.872-30.208 30.208-30.208h331.264c13.824 0 29.696 15.872 29.696 30.208zM210.944 414.208h180.736c14.336 0 30.208 15.872 30.208 30.208s-15.872 30.208-30.208 30.208h-180.736c-14.336 0-30.208-15.872-30.208-30.208 0-14.336 15.872-30.208 30.208-30.208zM210.944 293.888h120.32c14.336 0 30.208 15.872 30.208 30.208s-15.872 30.208-30.208 30.208h-120.32c-14.336 0-30.208-15.872-30.208-30.208s15.872-30.208 30.208-30.208z"  horiz-adv-x="1024" />

    
    <glyph glyph-name="formIcon1" unicode="&#58902;" d="M933.888 865.792h-843.776c-66.048 0-90.112-23.552-90.112-90.112v-782.848c0-66.56 24.064-90.112 90.112-90.112h843.264c66.56 0 90.112 24.064 90.112 90.112v782.848c0.512 66.56-23.552 90.112-89.6 90.112zM963.584-7.68c0-33.28 3.072-30.208-30.208-30.208h-843.264c-33.28 0-30.208-3.072-30.208 30.208v753.152c0 33.28-3.072 30.208 30.208 30.208h843.264c33.28 0 30.208 3.072 30.208-30.208v-753.152zM30.208 594.944h963.584v-60.416h-963.584v60.416zM301.056 715.264h90.112v-60.416h-90.112v60.416zM120.32 715.264h90.112v-60.416h-90.112v60.416zM481.792 715.264h421.888v-60.416h-421.888v60.416zM180.736 474.112h210.944v-451.584h-210.944v451.584zM451.584 233.472h391.68v-210.944h-391.68v210.944zM451.584 474.112h391.68v-180.736h-391.68v180.736z"  horiz-adv-x="1024" />

    
    <glyph glyph-name="formIcon5" unicode="&#58903;" d="M933.888 865.792h-843.776c-66.048 0-90.112-23.552-90.112-90.112v-782.848c0-66.56 24.064-90.112 90.112-90.112h843.264c66.56 0 90.112 24.064 90.112 90.112v782.848c0.512 66.56-23.552 90.112-89.6 90.112zM963.584-7.68c0-33.28 3.072-30.208-30.208-30.208h-843.264c-33.28 0-30.208-3.072-30.208 30.208v753.152c0 33.28-3.072 30.208 30.208 30.208h843.264c33.28 0 30.208 3.072 30.208-30.208v-753.152zM30.208 594.944h963.584v-60.416h-963.584v60.416zM301.056 715.264h90.112v-60.416h-90.112v60.416zM120.32 715.264h90.112v-60.416h-90.112v60.416zM481.792 715.264h421.888v-60.416h-421.888v60.416zM241.152 564.736h60.416v-632.32h-60.416v632.32zM241.152 293.888h753.152v-60.416h-753.152v60.416z"  horiz-adv-x="1024" />

    
    <glyph glyph-name="formIcon3" unicode="&#58904;" d="M933.888 865.792h-843.776c-66.048 0-90.112-23.552-90.112-90.112v-782.848c0-66.56 24.064-90.112 90.112-90.112h843.264c66.56 0 90.112 24.064 90.112 90.112v782.848c0.512 66.56-23.552 90.112-89.6 90.112zM963.584-7.68c0-33.28 3.072-30.208-30.208-30.208h-843.264c-33.28 0-30.208-3.072-30.208 30.208v753.152c0 33.28-3.072 30.208 30.208 30.208h843.264c33.28 0 30.208 3.072 30.208-30.208v-753.152zM30.208 594.944h963.584v-60.416h-963.584v60.416zM301.056 715.264h90.112v-60.416h-90.112v60.416zM120.32 715.264h90.112v-60.416h-90.112v60.416zM481.792 715.264h421.888v-60.416h-421.888v60.416zM180.736 444.416h150.528v-150.528h-150.528v150.528zM451.584 203.264h391.68v-150.528h-391.68v150.528zM451.584 444.416h391.68v-150.528h-391.68v150.528zM180.736 203.264h150.528v-150.528h-150.528v150.528z"  horiz-adv-x="1024" />

    
    <glyph glyph-name="formIcon4" unicode="&#58905;" d="M933.888 865.792h-843.776c-66.048 0-90.112-23.552-90.112-90.112v-782.848c0-66.56 24.064-90.112 90.112-90.112h843.264c66.56 0 90.112 24.064 90.112 90.112v782.848c0.512 66.56-23.552 90.112-89.6 90.112zM963.584-7.68c0-33.28 3.072-30.208-30.208-30.208h-843.264c-33.28 0-30.208-3.072-30.208 30.208v753.152c0 33.28-3.072 30.208 30.208 30.208h843.264c33.28 0 30.208 3.072 30.208-30.208v-753.152zM30.208 594.944h963.584v-60.416h-963.584v60.416zM301.056 715.264h90.112v-60.416h-90.112v60.416zM120.32 715.264h90.112v-60.416h-90.112v60.416zM481.792 715.264h421.888v-60.416h-421.888v60.416zM692.736 444.416h150.528v-150.528h-150.528v150.528zM180.736 203.264h391.68v-150.528h-391.68v150.528zM180.736 444.416h391.68v-150.528h-391.68v150.528zM692.736 203.264h150.528v-150.528h-150.528v150.528z"  horiz-adv-x="1024" />

    
    <glyph glyph-name="formIcon2" unicode="&#58906;" d="M933.888 865.792h-843.776c-66.048 0-90.112-23.552-90.112-90.112v-782.848c0-66.56 24.064-90.112 90.112-90.112h843.264c66.56 0 90.112 24.064 90.112 90.112v782.848c0.512 66.56-23.552 90.112-89.6 90.112zM963.584-7.68c0-33.28 3.072-30.208-30.208-30.208h-843.264c-33.28 0-30.208-3.072-30.208 30.208v753.152c0 33.28-3.072 30.208 30.208 30.208h843.264c33.28 0 30.208 3.072 30.208-30.208v-753.152zM30.208 594.944h963.584v-60.416h-963.584v60.416zM301.056 715.264h90.112v-60.416h-90.112v60.416zM120.32 715.264h90.112v-60.416h-90.112v60.416zM481.792 715.264h421.888v-60.416h-421.888v60.416zM632.32 474.112h210.944v-451.584h-210.944v451.584zM180.736 233.472h391.68v-210.944h-391.68v210.944zM180.736 474.112h391.68v-180.736h-391.68v180.736z"  horiz-adv-x="1024" />

    
    <glyph glyph-name="formIcon6" unicode="&#58907;" d="M933.888 865.792h-843.776c-66.048 0-90.112-23.552-90.112-90.112v-782.848c0-66.56 24.064-90.112 90.112-90.112h843.264c66.56 0 90.112 24.064 90.112 90.112v782.848c0.512 66.56-23.552 90.112-89.6 90.112zM963.584-7.68c0-33.28 3.072-30.208-30.208-30.208h-843.264c-33.28 0-30.208-3.072-30.208 30.208v753.152c0 33.28-3.072 30.208 30.208 30.208h843.264c33.28 0 30.208 3.072 30.208-30.208v-753.152zM30.208 594.944h963.584v-60.416h-963.584v60.416zM301.056 715.264h90.112v-60.416h-90.112v60.416zM120.32 715.264h90.112v-60.416h-90.112v60.416zM481.792 715.264h421.888v-60.416h-421.888v60.416zM722.944 564.736h60.416v-632.32h-60.416v632.32zM30.208 293.888h753.152v-60.416h-753.152v60.416z"  horiz-adv-x="1024" />

    
    <glyph glyph-name="formIcon7" unicode="&#58908;" d="M933.888 865.792h-843.776c-66.048 0-90.112-23.552-90.112-90.112v-782.848c0-66.56 24.064-90.112 90.112-90.112h843.264c66.56 0 90.112 24.064 90.112 90.112v782.848c0.512 66.56-23.552 90.112-89.6 90.112zM963.584-7.68c0-33.28 3.072-30.208-30.208-30.208h-843.264c-33.28 0-30.208-3.072-30.208 30.208v753.152c0 33.28-3.072 30.208 30.208 30.208h843.264c33.28 0 30.208 3.072 30.208-30.208v-753.152zM30.208 594.944h963.584v-60.416h-963.584v60.416zM301.056 715.264h90.112v-60.416h-90.112v60.416zM120.32 715.264h90.112v-60.416h-90.112v60.416zM481.792 715.264h421.888v-60.416h-421.888v60.416zM180.736 474.112h210.944v-210.944h-210.944v210.944zM241.152 414.208h90.112v-90.112h-90.112v90.112zM180.736 233.472h210.944v-210.944h-210.944v210.944zM241.152 173.056h90.112v-90.112h-90.112v90.112zM451.584 414.208h391.68v-90.112h-391.68v90.112zM451.584 173.056h391.68v-90.112h-391.68v90.112z"  horiz-adv-x="1024" />

    
    <glyph glyph-name="formIcon9" unicode="&#58909;" d="M180.736 384h662.528v-60.416h-662.528v60.416zM180.736 263.68h662.528v-60.416h-662.528v60.416zM180.736 142.848h391.68v-60.416h-391.68v60.416zM933.888 865.792h-843.776c-66.048 0-90.112-23.552-90.112-90.112v-782.848c0-66.56 24.064-90.112 90.112-90.112h843.264c66.56 0 90.112 24.064 90.112 90.112v782.848c0.512 66.56-23.552 90.112-89.6 90.112zM963.584-7.68c0-33.28 3.072-30.208-30.208-30.208h-843.264c-33.28 0-30.208-3.072-30.208 30.208v753.152c0 33.28-3.072 30.208 30.208 30.208h843.264c33.28 0 30.208 3.072 30.208-30.208v-753.152zM30.208 594.944h963.584v-60.416h-963.584v60.416zM301.056 715.264h90.112v-60.416h-90.112v60.416zM120.32 715.264h90.112v-60.416h-90.112v60.416zM481.792 715.264h421.888v-60.416h-421.888v60.416z"  horiz-adv-x="1024" />

    
    <glyph glyph-name="formIcon8" unicode="&#58910;" d="M933.888 865.792h-843.776c-66.048 0-90.112-23.552-90.112-90.112v-782.848c0-66.56 24.064-90.112 90.112-90.112h843.264c66.56 0 90.112 24.064 90.112 90.112v782.848c0.512 66.56-23.552 90.112-89.6 90.112zM963.584-7.68c0-33.28 3.072-30.208-30.208-30.208h-843.264c-33.28 0-30.208-3.072-30.208 30.208v753.152c0 33.28-3.072 30.208 30.208 30.208h843.264c33.28 0 30.208 3.072 30.208-30.208v-753.152zM30.208 594.944h963.584v-60.416h-963.584v60.416zM301.056 715.264h90.112v-60.416h-90.112v60.416zM120.32 715.264h90.112v-60.416h-90.112v60.416zM481.792 715.264h421.888v-60.416h-421.888v60.416zM662.528 474.112h210.944v-210.944h-210.944v210.944zM722.944 414.208h90.112v-90.112h-90.112v90.112zM662.528 233.472h210.944v-210.944h-210.944v210.944zM722.944 173.056h90.112v-90.112h-90.112v90.112zM150.528 414.208h391.68v-90.112h-391.68v90.112zM150.528 173.056h391.68v-90.112h-391.68v90.112z"  horiz-adv-x="1024" />

    
    <glyph glyph-name="formIcon0" unicode="&#58911;" d="M241.152 384h542.208v-60.416h-542.208v60.416zM210.944 263.68h602.112v-60.416h-602.112v60.416zM270.848 142.848h481.792v-60.416h-481.792v60.416zM933.888 865.792h-843.776c-66.048 0-90.112-23.552-90.112-90.112v-782.848c0-66.56 24.064-90.112 90.112-90.112h843.264c66.56 0 90.112 24.064 90.112 90.112v782.848c0.512 66.56-23.552 90.112-89.6 90.112zM963.584-7.68c0-33.28 3.072-30.208-30.208-30.208h-843.264c-33.28 0-30.208-3.072-30.208 30.208v753.152c0 33.28-3.072 30.208 30.208 30.208h843.264c33.28 0 30.208 3.072 30.208-30.208v-753.152zM30.208 594.944h963.584v-60.416h-963.584v60.416zM301.056 715.264h90.112v-60.416h-90.112v60.416zM120.32 715.264h90.112v-60.416h-90.112v60.416zM481.792 715.264h421.888v-60.416h-421.888v60.416z"  horiz-adv-x="1024" />

    
    <glyph glyph-name="flow-underway" unicode="&#58912;" d="M292.864 456.704c-40.96 0-72.704-32.768-72.704-72.704s32.768-72.704 72.704-72.704c40.96 0 72.704 32.768 72.704 72.704S332.8 456.704 292.864 456.704zM512 456.704c-40.96 0-72.704-32.768-72.704-72.704s32.768-72.704 72.704-72.704c40.96 0 72.704 32.768 72.704 72.704 1.024 39.936-31.744 72.704-72.704 72.704zM732.16 456.704c-40.96 0-72.704-32.768-72.704-72.704s32.768-72.704 72.704-72.704c40.96 0 72.704 32.768 72.704 72.704s-32.768 72.704-72.704 72.704zM1024 384c0-282.624-228.864-512-512-512C229.376-128 0 100.86400000000003 0 384 0 666.624 229.376 896 512 896s512-229.376 512-512z m-93.696 0c0 112.128-43.008 216.576-122.368 295.424-79.36 79.36-183.808 122.368-295.936 122.368s-216.576-43.008-295.424-122.368c-78.848-79.36-122.368-184.32-122.368-295.424s43.008-216.576 122.368-295.424c79.36-79.36 183.808-122.368 295.424-122.368 112.128 0 216.576 43.008 295.424 122.368 78.848 78.848 122.88 183.296 122.88 295.424z"  horiz-adv-x="1024" />

    
    <glyph glyph-name="flow-ended" unicode="&#58913;" d="M770.56 30.20799999999997c-74.752-55.296-165.376-84.992-258.56-84.992-241.664 0-438.784 196.608-438.784 438.784 0 241.664 196.608 438.784 438.784 438.784s438.784-196.608 438.784-438.784c0-37.888-5.12-74.24-14.336-109.056-23.552-58.368 45.056-87.04 67.072-32.256 12.8 45.056 20.48 92.16 20.48 141.312C1024 666.112 794.112 896 512 896S0 666.112 0 384s229.888-512 512-512c113.664 0 218.624 37.888 303.616 100.864 37.376 37.376-10.24 84.48-45.056 57.344zM769.024 542.72a42.9568 42.9568 0 0 1-60.928 0l-261.632-261.632L312.32 415.744c-16.896 16.896-43.52 17.92-58.88 2.56-15.872-15.872-14.848-41.984 2.56-58.88l153.6-153.6c6.656-6.656 15.36-10.24 23.552-11.776 16.896-10.752 38.4-8.704 52.736 5.12l283.648 283.648c16.384 16.384 16.384 43.52-0.512 59.904z"  horiz-adv-x="1024" />

    
    <glyph glyph-name="flow-terminate" unicode="&#58914;" d="M768 347.648H256c-18.432 0-36.352 14.848-36.352 36.352 0 18.432 14.848 36.352 36.352 36.352h512c18.432 0 36.352-14.848 36.352-36.352 0-22.016-14.336-36.352-36.352-36.352zM512 896C230.4 896 0 665.6 0 384s230.4-512 512-512 512 230.4 512 512S793.6 896 512 896z m0-950.784c-241.152 0-438.784 197.632-438.784 438.784S270.848 822.784 512 822.784s438.784-197.632 438.784-438.784-197.632-438.784-438.784-438.784z"  horiz-adv-x="1024" />

    
    <glyph glyph-name="d_formtemplate" unicode="&#58915;" d="M918.08 864H105.92000000000002C65.12 864 32 830.88 32 790.0799999999999V607.2c0-40.800000000000004 33.120000000000005-73.92 73.92-73.92h812.16c40.800000000000004 0 73.92 33.120000000000005 73.92 73.92V790.0799999999999C992 830.88 958.88 864 918.08 864z m-36.96-247.68H142.88c-15.36 0-27.84 12.479999999999999-27.84 27.84V753.12c0 15.36 12.479999999999999 27.84 27.84 27.84h737.76c15.36 0 27.84-12.479999999999999 27.84-27.84v-108.96000000000001c0.48-15.36-12-27.84-27.36-27.84z m-518.4000000000001-156.96H105.92000000000002C65.12 458.88 32 425.76 32 384.96v-407.03999999999996C32-62.879999999999995 65.12-96 105.92000000000002-96h256.8c40.800000000000004 0 73.92 33.120000000000005 73.92 73.92V384.96c0 40.800000000000004-33.120000000000005 73.92-73.92 74.4z m-36.96-472.32H142.88c-15.36 0-27.84 12.479999999999999-27.84 27.84V348c0 15.36 12.479999999999999 27.84 27.84 27.84h182.88c15.36 0 27.84-12.479999999999999 27.84-27.84v-333.12c0-15.36-12.479999999999999-27.84-27.84-27.84z m623.52 447.84000000000003H536c-23.52 0-42.72-19.2-42.239999999999995-42.239999999999995a41.595 41.595 0 0 1 41.76-40.800000000000004H948.8c23.52 0 42.72 19.2 42.239999999999995 42.239999999999995-0.48 22.56-19.2 40.800000000000004-41.76 40.800000000000004z m0-424.32H536c-23.52 0-42.72-19.2-42.239999999999995-42.239999999999995a41.595 41.595 0 0 1 41.76-40.800000000000004H948.8c23.52 0 42.72 19.2 42.239999999999995 42.239999999999995-0.48 22.56-19.2 40.800000000000004-41.76 40.800000000000004z m0 212.16H536c-23.52 0-42.72-19.2-42.239999999999995-42.239999999999995a41.595 41.595 0 0 1 41.76-40.800000000000004H948.8c23.52 0 42.72 19.2 42.239999999999995 42.239999999999995-0.48 22.56-19.2 40.800000000000004-41.76 40.800000000000004z"  horiz-adv-x="1024" />

    
    <glyph glyph-name="d_formthemespace" unicode="&#58917;" d="M30.826-95.649h126.39v127.98H30.826v-127.98z m158 0h126.39v255.96h-126.39v-255.96z m927.297 110.064L919.558 208.84199999999998c-22.786 22.537-56.926 24.997-83.531 9.701L730.87 322.553c55.423 60.882 89.43 141.194 89.43 229.584 0 189.82-155.602 343.7-347.532 343.7-191.93 0-347.532-153.88-347.532-343.7 0-157.508 107.095-290.236 253.174-330.898V-95.64999999999998H504.8V209.88599999999997c65.09 5.956 124.86 29.84 174.597 66.35L786.873 169.92999999999995c-15.463-26.32-12.987-60.072 9.799-82.609l196.59-194.427c27.16-26.861 71.15-26.861 98.309 0l24.55 24.293c27.161 26.834 27.161 70.394 0.002 97.228zM504.8 297.76800000000003v54.51H378.41v-39.372c-97.688 37.215-167.008 130.925-167.008 240.636 0 40.183 10.088 77.717 26.659 111.603 19.256-17.89 48.68-45.506 48.68-46.966 0 30.05 92.46 121.507 120.7 121.507-1.45 0-28.819 27.549-46.943 45.979 33.928 15.983 71.467 25.671 111.56 25.671 143.933 0 260.628-115.413 260.628-257.795 0-131.385-99.406-239.84-227.886-255.773z"  horiz-adv-x="1147" />

    
    <glyph glyph-name="d_csurvey" unicode="&#58918;" d="M32.077 42.20600000000002h632.83c39.757-32.894 87.677-55.595 140.072-64.422H32.077C14.397-22.293999999999983 0-7.8559999999999945 0 9.956000000000017c0 17.731 14.397 32.25 32.077 32.25zM274.54 511.691c10.636 0 19.28-8.668 19.28-19.336v-379.871c0-10.668-8.644-19.336-19.28-19.336H147.51c-10.643 0-19.28 8.668-19.28 19.336V492.355c0 10.668 8.637 19.336 19.28 19.336h127.03zM518.758 895.969c10.638 0 19.28-8.668 19.28-19.336v-764.15c0-10.667-8.642-19.335-19.28-19.335h-126.95c-10.636 0-19.278 8.668-19.278 19.336V876.633c0 10.754 8.642 19.336 19.279 19.336h126.949z m97.911-415.648V660.5029999999999c0 10.676 8.642 19.336 19.28 19.336h126.95c10.642 0 19.28-8.66 19.28-19.336v-70.437c-66.396-16.684-124.308-56.078-165.51-109.745zM870.732 122.67499999999995c-89.512 0-162.065 72.764-162.065 162.537 0 89.77 72.553 162.535 162.065 162.535 89.513 0 162.067-72.764 162.067-162.535 0-89.773-72.554-162.537-162.067-162.537z m388.85-151.628l-155.591 132.69c-16.076 14.525-33.274 21.185-47.195 20.54 36.716 43.164 58.876 99.078 58.876 160.29 0 136.463-110.233 247.016-246.3 247.016s-246.3-110.553-246.3-247.015c0-136.382 110.233-247.014 246.3-247.014 60.957 0 116.793 22.224 159.826 59.046-0.64-13.881 6-31.13 20.483-47.332l132.307-156.042c22.637-25.27 59.596-27.353 82.232-4.73 22.558 22.781 20.561 59.848-4.638 82.55z"  horiz-adv-x="1292" />

    
    <glyph glyph-name="d_salary" unicode="&#58919;" d="M649.18857125 560.1371428125L558.6285715624999 422.9485715625c-0.96 1.691428125-92.4342853125 137.142856875-92.43428625 137.142856875H406.9485715625l122.1028565625-175.3142859375v-10.9714284375H426.8342853125v-41.919999375h106.3314290625v-90.51428625h48.822856875v90.51428625h105.2800003125v41.919999375h-105.69142875v10.9714284375l127.542856875 175.3600003125h-59.8857140625z m320.777143125-470.445714375h-101.5314290625V716.06857125C868.4342853124999 797.76 801.05142875 864 717.9885715625 864H209.1885715625C118.99428593749997 864 44.48000000000002 798.0342853125001 32.822856875000014 712.457143125a20.8000003125 20.8000003125 0 0 1 20.8457146875-23.405715h186.8800003125V49.82857124999998c0-80.3200003125 66.24000000000001-145.4628571875 147.9314278125-145.4628571875h334.7200003125c4.8 0 9.508571250000001 0.27428531250000004 14.171428125 0.6857146875h85.1200003125c86.2171425 0 157.44 75.84 168.68571468749997 161.00571375a21.119999999999997 21.119999999999997 0 0 1-21.21142875 23.6342859375z m-452.7542859375-3.3828571875a18.9257146875 18.9257146875 0 0 1-19.062856875-18.788571562500003v-18.102856875c0-51.5200003125-35.10857156249999-54.62857125-87.04000031250001-56.457142499999996h-3.4285715625c-53.71428562499999 0-93.165714375 32.822857500000005-93.165714375 85.6228565625V715.29142875c-1.82857125 30.765714374999998-28.937143125 65.69142843750001-52.3428571875 65.69142843750001l41.691429375-0.5485715624999999h388.2514284375c54.948571875 0 99.65714249999999-43.931428125000004 99.65714249999999-97.965714375v-596.16h-274.56z"  horiz-adv-x="1024" />

    
    <glyph glyph-name="d_officthemespace" unicode="&#58920;" d="M980.48 247.85066633333338c-0.128-13.44 0-88.234667 0-132.906666 0-44.629333-44.672-44.245333-44.672-44.245334H87.296S42.666667 78.33600033333335 42.666667 118.74133333333339V247.89333333333332C42.666667 294.14400033333334 87.296 307.2000003333334 87.296 307.2000003333334h223.36c44.288 0 70.272 34.346667 70.272 162.005333 0 69.76-105.984 69.717333-105.984 221.44 0 195.242667 213.589333 199.253333 213.589333 199.253333h52.224s216.021333-4.010667 209.493334-199.253333c-3.925333-118.016-112.512-156.074667-112.512-221.44 0-126.72 27.349333-162.005333 74.837333-162.005333h223.232c0 0.384 44.672-10.581333 44.672-59.392z m-77.952-34.048c0 27.178667-47.530667 20.650667-47.530667 20.352-24.533333 0.298667-193.450667 0-245.76 0-67.712 0-55.936 141.226667-55.936 247.04 0 2.816-4.010667 15.786667 14.933334 46.805334 19.029333 30.976 97.749333 81.749333 101.290666 138.24 8.618667 138.453333-139.861333 147.797333-139.861333 147.797333h-36.138667s-138.496-4.266667-138.496-147.84c0-45.568 65.706667-83.797333 94.506667-129.322667 9.813333-15.573333 5.802667-40.618667 6.272-55.466666 5.973333-178.602667 0-235.946667-53.973333-247.253334H183.893333s-51.882667 8.021333-51.882666-20.352c0 0-2.816-17.706667 0-44.202666 2.773333-26.453333 36.096-20.736 36.096-20.736h686.933333s45.226667-5.162667 47.488 16.554666c2.218667 21.717333 0 26.88 0 48.384z m-770.56-320.213333h759.168v88.576H132.010667v-88.576z"  horiz-adv-x="1024" />

    
    <glyph glyph-name="d_scheduledconference" unicode="&#58921;" d="M888.6857140625 771.0552382291667H135.31428593750002C76.34285749999998 771.0552382291667 54.85714250000001 749.8438094791667 54.85714250000001 689.8666666666667v-705.3714281250001c0-59.9771428125 21.4857140625-81.18857156249999 80.45714343750001-81.18857156249999h752.9142853124999c59.42857125 0 80.4571425 21.668571562500002 80.45714343750001 81.18857156249999V689.8666666666667c0.4571428125 59.9771428125-21.02857125 81.18857156249999-80.000000625 81.18857156249999z m0.4571428125-765.074285625c0-28.068571875 2.5600003125-25.4628571875-25.234285312500003-25.4628571875H159.63428562500002c-27.794285625 0-25.234285312500003-2.6057146875-25.234285312500003 25.4628571875V640.7238091666667c0 28.0228575-2.5600003125 25.4628571875 25.234285312500003 25.4628571875h704.2742859375c27.794285625 0 25.234285312500003 2.5600003125 25.234285312500003-25.4628571875V5.980952604166646zM428.2057146875 819.9695238541667H283.42857125v-99.74857125h470.4V819.9695238541667h-126.62857125000001V862.6666666666667H428.2057146875zM557.7142859375 529.2723813541667l-37.1657146875 46.994285624999996L349.2571428125 427.92380979166666 274.88 492.3809519791667 237.7142853125 445.29523854166666l111.588571875-96.5942859375zM557.7142859375 451.2380951041667h274.28571375v-68.5714284375h-274.28571375zM557.7142859375 222.66666635416675h274.28571375v-68.5714284375h-274.28571375zM301.3942859375 262.1638094791666c9.0057140625 8.2285715625 17.234285625 8.777143124999998 25.965714375-1.2799996875l122.9714278125-121.4628571875c8.9142853125-8.868571874999999 13.302856875-21.21142875 1.8285721875-32.685714374999996l-11.885715-10.7428575c-11.2457146875-11.291428125-21.394285312500003-3.2914284375-29.0285709375 3.4742859375L285.7142853125 230.07238104166663c-5.66857125 10.788571874999999 0.36571406250000005 16.182856875000002 6.080000625 22.08l9.6 10.0571428125zM301.3942859375 96.5409522916666c9.0057140625-8.1828571875 17.234285625-8.777143124999998 25.965714375 1.3257140625000001l122.9714278125 121.4628571875c8.9142853125 8.8228575 13.302856875 21.165714375 1.8285721875 32.685714374999996l-11.885715 10.7428575c-11.2457146875 11.2457146875-21.394285312500003 3.2457140625000003-29.0285709375-3.5200003125L285.7142853125 128.63238072916658c-5.66857125-10.788571874999999 0.36571406250000005-16.137142500000003 6.080000625-22.08l9.6-10.011428437500001z"  horiz-adv-x="1024" />

    
    <glyph glyph-name="d_conferencethemespace" unicode="&#58922;" d="M1040.104727 57.390544999999975l-0.186182 7.726546c-31.790545 179.2-180.968727 309.248-354.676363 309.248h-24.669091a271.220364 271.220364 0 0 1 122.926545 69.585454l2.420364 2.46691a260.514909 260.514909 0 0 1 20.014545 346.018909C756.642909 853.969455 685.428364 891.159273 609.885091 895.069091V895.534545l-12.8-0.046545h-7.307636l-5.399273-0.093091V895.069091a263.959273 263.959273 0 0 1-200.192-108.357818c-74.379636-99.607273-66.746182-242.967273 16.989091-332.660364l3.072-4.794182a268.613818 268.613818 0 0 1 127.255272-74.938182h-21.317818c-177.757091 0-328.005818-133.492364-357.236363-317.486545-7.214545-45.940364 5.259636-92.625455 34.164363-128.186182a149.876364 149.876364 0 0 1 116.177455-56.180363h586.379636c45.149091 0 87.784727 20.852364 116.922182 57.250909 29.230545 36.305455 41.425455 83.223273 33.512727 127.627636zM596.433455 459.869091a176.221091 176.221091 0 0 0-128.837819 56.785454c-54.877091 57.250909-60.183273 146.432-12.8 212.014546a175.616 175.616 0 0 0 142.289455 72.610909 175.476364 175.476364 0 0 0 138.891636-69.12c51.479273-64.698182 45.707636-160.442182-13.172363-218.158545l-2.234182-2.327273c-34.397091-33.373091-78.475636-51.805091-124.136727-51.805091z m-86.295273-179.665455h173.940363c131.258182 0 243.153455-97.838545 266.24-233.006545l1.024-4.375273c3.351273-19.362909-1.629091-38.912-13.777454-53.76-10.752-14.289455-28.206545-22.481455-47.895273-22.481454H304.546909c-19.642182 0-35.467636 7.726545-47.290182 23.319272-11.403636 12.846545-16.616727 31.883636-14.336 51.944728 20.619636 138.100364 133.026909 238.312727 267.217455 238.312727zM295.191273 426.589091c-67.863273 3.351273-121.018182 61.486545-121.018182 132.421818 0 58.647273 37.701818 111.057455 91.694545 127.441455a38.446545 38.446545 0 0 1 22.993455 19.223272 41.239273 41.239273 0 0 1 3.258182 30.487273c-5.538909 20.061091-28.299636 33.326545-47.616 27.461818-86.807273-26.298182-147.362909-110.452364-147.362909-204.613818 0-62.231273 25.925818-121.157818 71.214545-161.652364l2.513455-2.327272-3.025455-1.536C64.512 340.573091 0.372364 232.773818 0.372364 112.17454499999997c0-22.155636 17.268364-40.215273 38.539636-40.215272 21.224727 0 38.493091 18.059636 38.493091 40.215272 0 126.370909 94.766545 228.864 215.691636 233.285819a33.28 33.28 0 0 1 19.083637 6.469818 40.354909 40.354909 0 0 1 19.688727 32.581818 41.099636 41.099636 0 0 1-9.960727 28.997818 37.655273 37.655273 0 0 1-26.717091 13.079273zM1042.338909 393.495273l-3.025454 1.536 2.513454 2.327272a216.576 216.576 0 0 1 71.261091 161.652364c0 94.161455-60.602182 178.315636-147.223273 204.567273-19.409455 6.050909-42.216727-7.214545-47.802182-27.368727a41.099636 41.099636 0 0 1 3.258182-30.487273c4.933818-9.448727 13.125818-16.290909 23.04-19.269818 53.946182-16.384 91.694545-68.840727 91.694546-127.488 0-70.888727-53.154909-129.024-121.064728-132.375273a37.748364 37.748364 0 0 1-26.670545-13.079273 41.192727 41.192727 0 0 1-9.960727-28.997818 40.168727 40.168727 0 0 1 18.478545-31.790545 35.141818 35.141818 0 0 1 20.014546-7.261091c121.111273-4.421818 215.970909-106.914909 215.970909-233.285819 0-22.155636 17.314909-40.168727 38.539636-40.168727 21.224727 0 38.493091 18.013091 38.493091 40.168727 0 120.599273-64.139636 228.398545-167.517091 281.320728z"  horiz-adv-x="1210" />

    
    <glyph glyph-name="d_conferenceroom" unicode="&#58923;" d="M12.593 708.58c0-46.197 37.098-83.643 82.865-83.643 45.761 0 82.86 37.445 82.86 83.644 0 46.193-37.098 83.641-82.86 83.641-45.767 0-82.865-37.449-82.865-83.641z m308.973-523.898l-143.248 69.78V557.597c0 19.162-15.39 34.695-34.373 34.695h-96.98c-18.985 0-34.372-15.533-34.372-34.695v-313.729c0-15.68 10.3-28.92 24.442-33.227l216.468-88.38v-195.426c0-19.16 15.39-34.693 34.373-34.693h20.988c18.983 0 34.37 15.533 34.37 34.693v225.6c0.005 14.634-8.975 27.147-21.668 32.247z m524.105 523.899c0-46.198 37.107-83.644 82.867-83.644 45.767 0 82.867 37.445 82.867 83.644 0 46.193-37.1 83.641-82.867 83.641-45.76 0-82.867-37.449-82.867-83.641z m131.36-116.288h-96.98c-18.98 0-34.38-15.534-34.38-34.695v-303.136l-143.24-69.78c-12.693-5.1-21.673-17.613-21.673-32.247v-225.599c0-19.16 15.393-34.693 34.373-34.693h20.994c18.98 0 34.366 15.533 34.366 34.693V122.26199999999994l216.466 88.38c14.147 4.307 24.447 17.547 24.447 33.227V557.597c0 19.162-15.393 34.696-34.373 34.696zM461.252 289.34799999999996h-20.38c-18.983 0-34.373-15.533-34.373-34.7v-236.62c0-19.16 15.39-34.693 34.373-34.693h20.38c18.981 0 34.373 15.534 34.373 34.694V254.64800000000002c0 19.167-15.39 34.7-34.373 34.7z m121.873 0H562.74c-18.987 0-34.374-15.533-34.374-34.7v-236.62c0-19.16 15.387-34.693 34.374-34.693h20.386c18.98 0 34.374 15.534 34.374 34.694V254.64800000000002c0 19.167-15.394 34.7-34.374 34.7zM429.134 792.222c0-46.193 37.1-83.641 82.865-83.641 45.766 0 82.863 37.448 82.863 83.641 0 46.197-37.097 83.643-82.863 83.643s-82.865-37.446-82.865-83.643zM261.789 334.428h500.416c16.52 0 29.906 13.52 29.906 30.197 0 16.67-13.386 30.191-29.906 30.191H625.27V635.121c0 19.163-15.38 34.696-34.36 34.696H433.09c-18.984 0-34.372-15.533-34.372-34.696v-240.305H261.79c-16.52 0-29.913-13.521-29.913-30.191 0.003-16.677 13.393-30.197 29.913-30.197z"  horiz-adv-x="1024" />

    
    <glyph glyph-name="d_onlineRecord" unicode="&#58924;" d="M512.1152-95.03999999999996a20.0064 20.0064 0 0 0-14.860800000000001 6.5664C483.008-72.57600000000002 147.96800000000002 303.5136 147.96800000000002 499.2 147.96800000000002 700.0319999999999 311.3216 863.5008 512.1152 863.5008c200.832 0 364.18559999999997-163.4304 364.18559999999997-364.3392 0-195.6096-335.0784-571.7375999999999-349.3632-587.6351999999999a19.968 19.968 0 0 0-14.8224-6.6048z m0 877.824c-160.0128 0-290.2272-130.4064-290.2272-290.688 0-142.0032 246.52799999999996-410.112 290.2272-410.112s290.2272 268.1856 290.2272 410.112c0 160.2816-130.176 290.688-290.2272 290.688z m166.8096-459.8784h-54.336l0.038400000000000004 7.7568c0 69.4272-41.2032 117.888-109.824 117.888-68.6976 0-112.2816-49.152-112.2816-118.656v-6.9888H343.616v6.9888a173.184 173.184 0 0 0 94.5792 155.904 118.7328 118.7328 0 0 0-39.9744 88.81920000000001c0 65.0112 52.3008 117.888 116.544 117.888 64.32000000000001 0 116.6208-52.876799999999996 116.6208-117.888a118.656 118.656 0 0 0-40.0512-88.7808 173.184 173.184 0 0 0 94.65599999999999-155.0592l-0.384-7.4112-6.6432-0.4224h-0.038400000000000004zM452.2496 574.7712c0-35.0592 28.032-63.55199999999999 62.5152-63.55199999999999 34.483200000000004 0 62.59199999999999 28.5312 62.59199999999999 63.55199999999999s-28.108800000000002 63.55199999999999-62.59199999999999 63.55199999999999c-34.483200000000004-0.038400000000000004-62.5152-28.5312-62.5152-63.55199999999999z"  horiz-adv-x="1024" />

    
    <glyph glyph-name="d_schedule" unicode="&#58925;" d="M133.28270222222227 731.1621688888888V857.4407111111111c0 17.418239999999997 14.092515555555556 31.516444444444446 31.565368888888887 31.516444444444446 17.47399111111111 0 31.55399111111111-14.098204444444443 31.55399111111111-31.516444444444446v-126.27740444444446c0-17.467164444444446-14.081137777777776-31.565368888888887-31.55399111111111-31.565368888888887-17.472853333333333 0-31.565368888888887 14.097066666666668-31.565368888888887 31.565368888888887z m536.5213866666667-31.565368888888887c17.47399111111111 0 31.55399111111111 14.097066666666668 31.55399111111111 31.565368888888887V857.4407111111111c0 17.418239999999997-14.079999999999998 31.516444444444446-31.55399111111111 31.516444444444446-17.472853333333333 0-31.54375111111111-14.098204444444443-31.54375111111111-31.516444444444446v-126.27740444444446c0-17.467164444444446 14.070897777777779-31.565368888888887 31.54375111111111-31.565368888888887z m347.15192888888885-568.0355555555556c0-139.48245333333335-113.05073777777778-252.51612444444442-252.47744-252.51612444444442-139.43125333333333 0-252.4558222222222 113.0336711111111-252.4558222222222 252.51612444444442C512.0227555555556 270.9390222222222 625.0473244444444 384 764.4785777777778 384 903.90528 384 1016.9560177777778 270.9390222222222 1016.9560177777778 131.56124444444447z m-63.12049777777778 0c0 104.39224888888889-84.91349333333332 189.3523911111111-189.35808 189.3523911111111-104.4434488888889 0-189.3592177777778-84.95900444444445-189.3592177777778-189.3523911111111 0-104.49237333333333 84.91576888888888-189.3592177777778 189.3592177777778-189.3592177777778 104.44458666666667 0 189.35808 84.86684444444445 189.35808 189.3592177777778zM259.5214222222222 510.23872H133.28270222222227V384h126.23872V510.23872z m-126.23872-315.59680000000003h126.23872V320.91363555555563H133.28270222222227v-126.27171555555555zM322.64192 384h126.25919999999999V510.23872h-126.25919999999999V384z m0-189.35808h126.25919999999999V320.91363555555563h-126.25919999999999v-126.27171555555555z m-252.47744-56.82403555555555v435.54133333333334h694.3140977777778v-126.23985777777779h63.142115555555556v246.2037333333333c0 38.370417777777774-30.594844444444444 69.42720000000001-68.40092444444444 69.42720000000001h-26.29404444444444v-31.586986666666665c0-34.83079111111111-28.289706666666664-63.11936-63.12049777777778-63.11936-34.852408888888895 0-63.12049777777778 28.28856888888889-63.12049777777778 63.11936v31.586986666666665H227.96743111111113v-31.586986666666665c0-34.83079111111111-28.321564444444444-63.11936-63.11936-63.11936s-63.12049777777778 28.28856888888889-63.12049777777778 63.11936v31.586986666666665h-26.316799999999997c-37.69571555555556 0-68.36792888888888-31.05678222222222-68.36792888888888-69.42720000000001V137.8190222222222c0-38.23843555555555 30.67221333333333-69.41354666666666 68.36906666666667-69.41354666666666h373.4892088888889V131.56124444444447H75.41191111111112c-2.844444444444444 0-5.248568888888889 2.9354666666666667-5.248568888888889 6.257777777777777zM638.2592000000001 384V510.23872H512.0227555555556V384h126.23872z m220.90183111111108-252.43875555555556h-94.68586666666667v94.64604444444444c0 17.451235555555556-14.134613333333332 31.586986666666665-31.55399111111111 31.586986666666665-17.471715555555555 0-31.565368888888887-14.136888888888889-31.565368888888887-31.586986666666665v-126.23872c0-17.456924444444443 14.093653333333332-31.56423111111111 31.565368888888887-31.56423111111111h126.23872c17.419377777777775 0 31.55399111111111 14.108444444444444 31.55399111111111 31.56423111111111 0 17.471715555555555-14.133475555555556 31.592675555555555-31.55285333333333 31.592675555555555z m0 0"  horiz-adv-x="1024" />

    
    <glyph glyph-name="d_collaborationthemespace" unicode="&#58926;" d="M506.312 642.844c0 67.508-25.316 130.797-71.727 177.21C383.953 870.641 324.884 896 253.156 896c-67.508 0-130.797-25.358-177.21-75.947C25.317 773.6 0 710.31 0 642.844c0-71.728 25.316-130.84 75.947-181.429 37.973-37.973 84.385-63.289 135.016-71.727v-139.236c-25.315-8.438-50.63-21.096-71.727-42.193-33.754-37.973-54.85-84.385-54.85-135.016 0-54.85 21.096-97.043 54.85-135.017 37.973-37.973 84.385-54.85 135.016-54.85 54.85 0 97.044 16.835 135.017 54.85 37.973 37.974 54.85 80.166 54.85 135.017 0 12.658 0 29.535-4.219 42.193L767.907 301.03999999999996c25.315-25.315 59.07-37.931 97.043-37.931 42.192 0 75.947 12.658 105.481 42.193 29.535 29.534 42.193 63.289 42.193 105.481 0 37.931-12.658 75.947-42.193 105.482-29.534 25.316-63.289 42.193-105.481 42.193-37.974 0-75.947-16.877-105.482-42.193 0-4.262-4.22-8.439-8.438-12.658l-244.718 101.22v38.016z m-29.535-122.359l244.718-92.824c-4.22-8.396-4.22-12.657-4.22-16.835 0-16.877 4.22-29.534 8.439-42.192L417.707 195.60199999999998c-4.219 4.261-8.438 8.438-8.438 12.7-33.754 29.492-67.508 46.412-113.92 50.589V389.688c54.85 8.438 97.043 33.754 139.236 71.727 16.877 21.097 33.754 37.974 42.192 59.07z"  horiz-adv-x="1024" />

    
    <glyph glyph-name="d_newtask" unicode="&#58927;" d="M736.0914284375 683.2457146874999c24.7771425 0 44.891428125 20.114285625 44.8914290625 44.84571375V817.82857125a44.891428125 44.891428125 0 0 1-89.7828571875 0v-89.7371428125c0-24.7771425 20.114285625-44.8457146875 44.891428125-44.84571375z m-224.4571425 0c24.7771425 0 44.891428125 20.114285625 44.891428125 44.84571375V817.82857125a44.891428125 44.891428125 0 0 1-89.7828571875 0v-89.7371428125c0-24.7771425 20.114285625-44.8457146875 44.8914290625-44.84571375zM900.70857125 773.1657140625h-74.834285625v-44.982856874999996c0-49.6457146875-40.22857125-89.9200003125-89.7828571875-89.9200003125a89.87428593749999 89.87428593749999 0 0 0-89.7828571875 89.9200003125v44.982856874999996h-44.891428125v-44.982856874999996c0-49.6457146875-40.182856875-89.9200003125-89.7828571875-89.9200003125A89.87428593749999 89.87428593749999 0 0 0 421.85142874999997 728.2285715625001v44.982856874999996h-44.8914290625v-44.982856874999996c0-49.6457146875-40.182856875-89.9200003125-89.7828571875-89.9200003125A89.87428593749999 89.87428593749999 0 0 0 197.4857140625 728.2285715625001v44.982856874999996H122.6057140625A44.9371425 44.9371425 0 0 1 77.7142859375 728.1828571875v-779.2457146875c0-24.7771425 20.114285625-44.9371425 44.891428125-44.9371425h778.0571428125c24.822856875 0 44.9371425 20.114285625 44.9371434375 44.9371425V728.2285715625001a44.9371425 44.9371425 0 0 1-44.8914290625 44.982856874999996zM836.57142875 19.200000000000045H186.69714312500003c-24.2742853125 0-43.931428125000004 24.7771425-43.9314290625 55.4057146875 0 30.62857125 19.6571428125 55.451428125 43.8857146875 55.451428125h649.965714375c24.228571875 0 43.8857146875-24.822856875 43.88571375-55.451428125s-19.6571428125-55.4057146875-43.88571375-55.4057146875z m-8.777143124999998 207.6799996875H195.4742853125c-29.119999687500002 0-52.70857125 24.822856875-52.70857125 55.4514290625s23.5885715625 55.4057146875 52.70857125 55.405713750000004h632.3657146874998c29.074285312500002 0 52.70857125-24.822856875 52.70857125-55.405713750000004 0-30.62857125-23.6342859375-55.451428125-52.70857125-55.4514290625z m0 207.0857146875H195.4742853125c-29.119999687500002 0-52.70857125 24.822856875-52.70857125 55.405713750000004 0 30.62857125 23.5885715625 55.451428125 52.70857125 55.4514290625h632.3657146874998c29.074285312500002 0 52.70857125-24.86857125 52.70857125-55.4514290625 0-30.62857125-23.6342859375-55.451428125-52.70857125-55.451428125zM287.17714249999995 683.2457146874999c24.822856875 0 44.9371425 20.114285625 44.9371434375 44.84571375V817.82857125a44.891428125 44.891428125 0 0 1-89.7828571875 0v-89.7371428125c0-24.7771425 20.114285625-44.8457146875 44.84571375-44.84571375z"  horiz-adv-x="1024" />

    
    <glyph glyph-name="d_collaborationcube" unicode="&#58928;" d="M98.108952 16.188951999999972V895.073524H0v-975.335619h1150.439619v96.451047H98.157714zM294.521905 116.297143a105.22819 105.22819 0 0 1 84.650666 167.740952l107.178667 184.466286a106.398476 106.398476 0 0 1 37.497905 0l107.178667-184.515048a105.22819 105.22819 0 0 1 84.699428-167.643428 105.179429 105.179429 0 0 1 81.627429 171.495619l191.829333 319.390476a105.276952 105.276952 0 0 1 112.64 104.838095c0 58.12419-47.152762 105.22819-105.325714 105.228191-58.12419 0-105.325714-47.104-105.325715-105.179429 0-29.696 12.385524-56.466286 32.182858-75.580952l-187.245715-311.929905a105.618286 105.618286 0 0 1-44.178285-0.731429l-105.374477 181.394286a105.22819 105.22819 0 0 1-81.432381 171.788191 105.179429 105.179429 0 0 1-81.432381-171.739429l-105.423238-181.443048a105.22819 105.22819 0 0 1-129.072762-102.4c0-58.12419 47.152762-105.179429 105.325715-105.179428z"  horiz-adv-x="1170" />

    
    <glyph glyph-name="d_contacts" unicode="&#58929;" d="M195.20000000000005-95.0817393750001c-50.3373909375 0-91.3252171875 42.9913040625-91.3252171875 95.91652218750001v99.13043437500001h75.92347781250001v-88.4869565625c0-18.824347500000002 15.986086874999998-33.2243475 26.7965221875-33.2243475h662.441739375a26.713043437499998 26.713043437499998 0 0 1 20.118260625 11.9791303125c4.8417393749999995 8.598260625 5.6765221875 19.2834778125 5.6765212499999995 38.4V735.36c0 18.7826090625 2.7130434375 57.3913040625-49.3773909375 57.3913040625H195.20000000000005c-10.7269565625 0-15.443477812500001-5.968695937500001-15.443477812500001-24.7930434375v-104.598260625H103.87478281249997V768c0 52.8834778125 40.98782625 95.91652218750001 91.36695656250001 95.91652218750001h683.9373909375c50.379130312499996 0 91.3252171875-42.9913040625 91.3252171875-95.91652218750001V0.8347828124999523c0-52.925217187499996-40.9043475-95.91652218750001-91.3252171875-95.91652218750001H195.20000000000005zM243.36695656249998 516.5217393749999c0-18.198260625-15.65217375-32.973913124999996-34.9356525-32.973913124999996H88.05565249999995c-19.241739375 0-34.85217375 14.7756525-34.852174687499996 32.973913124999996 0 18.24 15.610434374999999 32.973913124999996 34.852174687499996 32.973913124999996h120.37565156250001c19.2834778125 0 34.9356525-14.733913125 34.9356525-32.973913124999996z m0-138.8243484375c0-18.24-15.65217375-32.973913124999996-34.9356525-32.973913124999996H88.05565249999995c-19.241739375 0-34.85217375 14.733913125-34.852174687499996 32.973913124999996 0 18.198260625 15.610434374999999 32.973913124999996 34.852174687499996 32.973913124999996h120.37565156250001c19.2834778125 0 34.9356525-14.7756525 34.9356525-32.973913124999996z m0-137.8643475c0-18.24-15.65217375-32.973913124999996-34.9356525-32.973913124999996H88.05565249999995c-19.241739375 0-34.85217375 14.733913125-34.852174687499996 32.973913124999996 0 18.24 15.610434374999999 32.973913124999996 34.852174687499996 32.973913124999996h120.37565156250001c19.2834778125 0 34.9356525-14.733913125 34.9356525-32.973913124999996z m560.7234778125-67.70086968749999c-11.3530434375 81.558260625-67.6173909375 149.42608687499998-144.41739093750002 180.521739375 44.6191303125 28.9252171875 74.0452171875 77.63478281249999 74.0452171875 132.8556525-0.250434375 89.029565625-76.0486959375 160.98782625-169.75304343750003 160.9878253125-93.8713040625 0-169.7113040625-71.9165221875-169.7113040625-160.9878253125 0-55.1373909375 29.426086875-103.8886959375 74.170434375-132.8556525-76.00695656250001-30.8869565625-131.89565249999998-97.7113040625-143.874781875-178.226086875-3.4226090625000003-23.04-0.66782625-6.5947828125-1.1686959375000001-9.5165221875-0.45913031249999997-2.9217393749999996 0 4.173913125 0 2.0869565625v-5.426086875c0-12.5634778125 17.6556525-22.789565624999998 31.012173750000002-22.7895646875s36.396522187500004 4.8 39.8608696875 25.0017384375c12.521739375 89.6556525 68.9947828125 139.3252171875 164.7026090625 142.3721746875 2.170434375 0 4.3408696875-0.250434375 6.5113040625-0.2504353125 2.253913125 0 4.382609062499999 0.250434375 6.5947828125 0.2504353125 95.70782625-3.0469565625 155.01913031249998-53.8434778125 167.04-142.3721746875 0.7930434375000001-13.690434375 21.787826250000002-25.0434778125 35.1443475-25.0434778125 13.3565221875 0 30.970434375000004 11.6869565625 30.970434375000004 24.250434375v1.92a24.0834778125 24.0834778125 0 0 1-1.1269565625 7.2208696875000005z m-233.4469565625 222.3026090625c-2.2121737500000003 0-4.2991303125 0.2086959375-6.72 0.208695-2.2121737500000003 0-4.5913040625-0.2086959375-6.678260625-0.208695-50.0869565625 3.2556525-89.86434750000001 42.6573909375-89.86434750000001 91.07478281249999 0 50.5043475 43.158260625 91.28347781250001 96.333913125 91.28347781250001 53.3426090625 0 96.45913031250001-40.8208696875 96.45913031250001-91.28347781250001 0-48.2086959375-39.4434778125-87.8191303125-89.5304353125-91.07478281249999zM103.87478281249997 662.8591303125c0-17.8643475 18.7826090625-32.68173937500001 37.690434375-32.68173937500001s38.650434375 14.650434375 38.6504353125 32.5565221875c0 17.906086875-23.1652171875 32.5565221875-42.0730434375 32.55652125-18.907826250000003 0-34.226086875-14.525217187500001-34.226086875-32.4313040625zM103.87478281249997 100.88347781250002c0-17.906086875 15.36-32.389565625 34.26782625-32.389564687500005 18.907826250000003 0 41.238260625 13.189565625 41.238260625 31.095652499999996s-18.7826090625 33.474782812499996-37.73217375 33.474781875000005c-18.907826250000003 0-37.773913125-14.2747828125-37.773913125-32.1808696875z"  horiz-adv-x="1024" />

    
    <glyph glyph-name="d_cbbs" unicode="&#58930;" d="M909.3903125 117.2109375c53.331562500000004 79.07906249999999 81.466875 171.4078125 81.466875 267.43125C990.85625 649.0237500000001 775.7834375 863.986875 511.5059375 863.986875 247.2340625 863.9878125 32.160312499999975 648.9140625 32.160312499999975 384.530625c0-264.384375 215.0728125-479.35125 479.34562500000004-479.35125 84.1846875 0 167.06437499999998 22.160625000000003 239.6203125 64.08937499999999 153.81-59.30625 173.90625-50.0765625 185.85375-44.533125000000005l4.671562499999999 2.1703125 3.91125 3.3656249999999996c8.578125 7.280625 17.488125 14.88375 13.9003125 41.7121875-3.583125 26.503125-19.440937499999997 72.665625-50.0728125 145.22718749999999z m-84.39750000000001 9.45l8.360624999999999-19.5515625c14.773124999999999-34.4315625 30.091874999999998-73.42875 40.299375-102.21375-31.0659375 9.560625-74.079375 24.8746875-112.42125 39.976875l-17.488125 6.841875-15.8578125-9.995625c-64.63312499999999-40.839375-139.4709375-62.454375-216.268125-62.454375-223.5459375 0-405.3778125 181.831875-405.3778125 405.376875 0 223.5403125 181.831875 405.373125 405.3778125 405.373125 223.543125 0 405.376875-181.83281250000002 405.376875-405.3778125 0-87.4396875-27.3721875-170.7534375-79.2965625-240.92249999999999l-12.705-17.053125zM282.09875 384.530625c0-29.034374999999997 23.540625-52.574999999999996 52.574999999999996-52.574999999999996 29.0334375 0 52.569375 23.540625 52.569375 52.574999999999996S363.70624999999995 437.09999999999997 334.671875 437.09999999999997c-29.038125 0-52.574999999999996-23.5359375-52.574999999999996-52.5703125zM457.19562499999995 384.530625c0-29.034374999999997 23.540625-52.574999999999996 52.574999999999996-52.574999999999996s52.574999999999996 23.540625 52.574999999999996 52.574999999999996-23.540625 52.5703125-52.574999999999996 52.5703125-52.574999999999996-23.5359375-52.574999999999996-52.5703125zM634.25 384.530625c0-29.034374999999997 23.540625-52.574999999999996 52.574999999999996-52.574999999999996s52.569375 23.540625 52.569375 52.574999999999996-23.5359375 52.5703125-52.569375 52.5703125c-29.034374999999997 0-52.574999999999996-23.5359375-52.574999999999996-52.5703125z"  horiz-adv-x="1024" />

    
    <glyph glyph-name="d_newmeeting" unicode="&#58931;" d="M1014.122 896H23.048C9.878 896 0 886.122 0 872.952v-85.608c0-13.17 9.878-23.048 23.048-23.048h32.926v-609.132H23.048C9.878 155.164 0 145.28599999999994 0 132.11599999999999v-23.048c0-13.17 9.878-23.049 23.048-23.049h480.72v-154.752c-9.877-3.293-16.463-16.463-16.463-29.634 0-16.463 13.17-29.633 29.634-29.633s29.633 9.878 29.633 29.633c0 13.17-6.585 23.049-16.463 29.634V86.019h69.145c0 9.878-3.293 19.756-3.293 32.926 0 16.463 0 29.634 3.293 42.804H98.778V764.296h839.614v-451.087c16.463-9.878 29.634-19.756 42.804-36.219V764.296h32.926c13.17 0 23.048 9.878 23.048 23.048V872.952c0 13.17-9.877 23.048-23.048 23.048zM368.772 451.498h424.746c9.877 0 16.463 6.586 16.463 16.463s-6.586 16.463-16.463 16.463H368.772c-9.878 0-16.463-6.585-16.463-16.463 0-6.585 9.877-16.463 16.463-16.463z m0 181.094h424.746c9.877 0 16.463 6.585 16.463 16.463s-6.586 16.463-16.463 16.463H368.772c-9.878 0-16.463-6.586-16.463-16.463s9.877-16.463 16.463-16.463z m-72.438 52.681c0 9.878-6.585 16.463-16.463 16.463h-72.437c-9.878 0-16.463-6.585-16.463-16.463v-72.437c0-9.878 6.585-16.463 16.463-16.463h72.437c9.878 0 16.463 6.585 16.463 16.463v72.437z m0-181.093c0 9.878-6.585 16.463-16.463 16.463h-72.437c-9.878 0-16.463-6.585-16.463-16.463v-72.437c0-9.878 6.585-16.463 16.463-16.463h72.437c9.878 0 16.463 6.585 16.463 16.463V504.18z m-16.463-161.338h-72.437c-9.878 0-16.463-6.585-16.463-16.463v-72.437c0-9.878 6.585-16.463 16.463-16.463h72.437c9.878 0 16.463 6.585 16.463 16.463V326.38c0 9.878-6.585 16.463-16.463 16.463z m543.28-36.218H372.064c-9.878 0-16.463-6.585-16.463-16.463s6.585-16.463 16.463-16.463h342.431c-52.681-36.219-88.9-95.486-88.9-164.63 0-108.656 88.9-197.557 197.556-197.557s197.556 88.9 197.556 197.557c-3.292 111.948-92.193 197.556-197.556 197.556z m0-362.187c-92.193 0-167.923 75.73-167.923 167.923 0 82.315 59.267 148.167 134.997 164.63h3.293c3.292 0 6.585 0 6.585 3.293h19.756c92.192 0 167.922-75.73 167.922-167.923s-75.73-167.923-164.63-167.923zM918.637 135.40800000000002h-72.438v75.73c0 6.585-6.585 13.17-13.17 13.17H809.98c-6.586 0-13.17-6.585-13.17-13.17v-75.73h-72.438c-6.585 0-13.17-6.585-13.17-13.17v-23.048c0-6.585 6.585-13.17 13.17-13.17h72.437v-75.73c0-6.586 6.585-13.171 13.17-13.171h23.049c6.585 0 13.17 6.585 13.17 13.17v75.73h72.438c6.585 0 13.17 6.586 13.17 13.17v23.049c0 6.585-6.585 13.17-13.17 13.17z"  horiz-adv-x="1053" />

    
    <glyph glyph-name="d_alltodoevent" unicode="&#58932;" d="M89.60000000000002 590.1973330000001h844.8V513.653333H89.60000000000002zM202.368 404H322.133333v-122.79466699999998H202.368V404z m613.333333 0v-122.79466699999998H390.10133300000007V404h425.5999999999999zM202.70933300000002 217.80266700000004h119.72266699999999v-122.79466699999998H202.66666700000002v122.79466699999998z m616.32 0v-122.79466699999998H390.10133300000007v122.79466699999998h428.928zM42.666667000000075 694.944a128 128 0 0 0 128.042666 128H853.333333a128.170667 128.170667 0 0 0 128.042667-128v-674.986667A128 128 0 0 0 853.290667-107.99999999999989H170.66666700000002A128.170667 128.170667 0 0 0 42.666667000000075 19.999999999999886V694.9013330000001z m78.08-25.386666999999996v-625.408a85.33333299999998 85.33333299999998 0 0 1 85.248-85.162666h612.010666c46.933333 0 85.248 38.144 85.248 85.162666V669.557333a85.33333299999998 85.33333299999998 0 0 1-85.248 85.162667H205.994667c-46.933333 0-85.248-38.144-85.248-85.162667zM298.410667 883.616h422.4v-212.99199999999993h-422.4z"  horiz-adv-x="1024" />

    
    <glyph glyph-name="d_bigshow" unicode="&#58933;" d="M732.577185-124.96592600999998c-156.103111 0-297.908148 60.567704-399.322074 170.62874101-103.765333 112.564148-157.468444 269.19822199-143.663407 418.929778 6.940444 25.63792599 15.815111 47.559111 36.257185 47.559111 14.14636999 0 28.141037-11.15022201 49.303704-28.065185 47.028148-37.546667 134.447407-107.48207399 309.930666-109.795556 53.816889 0 138.24 32.047407 227.593482 65.953185 106.723556 40.504889 217.088 82.375111 303.141926 82.375111 54.689185 0 94.625185-17.749333 118.632296-52.79288901 31.85777799-46.383407 19.64563001-183.637333-49.189926-313.95081399-54.802963-103.765333-185.723259-278.224593-446.577778-280.803556l-6.106074-0.03792601z m-371.29481501 219.43940701c92.008296-99.821037 228.731259-181.36177799 370.53629701-181.361777h5.65096299c236.050963 2.351407 354.721185 160.65422199 404.44207401 254.78636999 60.795259 115.067259 71.49036999 234.647704 45.359407 272.76325901-18.849185 27.45836999-48.924444 25.979259-93.980444 25.97926-77.558519 0-168.580741-37.546667-267.90874101-75.245037-86.546963-32.843852-180.33777799-69.290667-235.40622199-69.290667-173.776593 2.275556-262.25777799 52.33777801-308.754963 89.50518501-14.14636999 11.264-37.05362999 35.271111-42.970074 35.27111099-12.212148-134.25777801 28.70992599-250.007704 123.069629-352.407704zM1240.10192601 389.499259c-9.481481 5.23377799-21.579852 5.916444-37.091556-0.303407-70.54222199-28.444444-220.19792599-216.670815-406.528-266.657185-171.766519-46.08-495.312593 37.546667-544.88177701 50.896592 81.161481-170.552889 252.207407-303.028148 487.120592-300.752592 365.68177801 3.602963 507.259259 358.4 501.38074101 516.816592zM165.622519 602.9084439999999c73.045333 12.17422201 97.886815 72.969481 100.958814 54.765037 3.03407401-18.204444 5.15792599-123.410963-67.925333-135.62311101C125.534815 509.91407401 3.18577801 606.32177801 0.11377801 624.5262220100001c-3.03407401 18.204444 92.425481-33.75407401 165.50874099-21.61777801zM889.780148 748.961185c-28.444444 0-44.562963-13.956741-47.900444-41.528889-4.93037001-41.225481 22.186667-46.762667 66.863407-52.413629 21.61777801-2.730667 42.059852-5.30963001 54.423704-16.23229701 13.577481-11.946667 26.017185-26.965333 35.65037-40.04977699-0.18962999 37.77422201-4.854519 89.088-23.627852 112.03318499-17.180444 21.086815-55.523556 38.191407-85.409185 38.19140701zM991.497481 569.268148l0.265482 34.967704c0 4.399407 1.327407 108.35437001 41.908148 149.124741 23.210667 23.248593 67.318519 40.808296 102.665482 40.808296 41.604741 0 67.128889-23.66577801 68.190814-63.336296 1.782519-65.005037-55.18222201-66.825481-92.918518-68.039112-17.332148-0.530963-35.309037-1.13777799-43.083852-6.712888-29.202963-21.048889-56.168296-58.026667-56.433778-58.405926l-20.593778-28.44444501z m133.30963 183.713185c-23.134815 0-49.152-11.908741-60.90903701-23.400296-14.184296-13.880889-20.707556-44.752593-23.36236999-68.152889 7.585185 8.15407399 17.180444 17.44592601 27.38251799 24.61392599 9.367704 6.561185 23.74163001 6.97837001 39.063704 7.47140701 31.478519 0.98607399 50.744889 3.03407401 49.98637001 30.985482-0.530963 18.887111-11.37777799 28.48236999-32.161185 28.48237zM1008.298667 791.779556c-20.935111 0-37.92592599 16.877037-37.925926 37.584592a37.812148 37.812148 0 0 0 37.925926 37.584593c20.935111 0 37.92592599-16.839111 37.925926-37.54666701a37.812148 37.812148 0 0 0-37.925926-37.62251799z m0 52.717037a15.24622201 15.24622201 0 0 1-15.284148-15.132445c0-8.343704 6.826667-15.17036999 15.284148-15.17037001 8.419556 0 15.284148 6.826667 15.284148 15.17037001 0 8.343704-6.826667 15.17036999-15.284148 15.170371z"  horiz-adv-x="1251" />

    
    <glyph glyph-name="personal-center-fill" unicode="&#59056;" d="M511.381545 894.377822c279.521584 0 506.930693-227.409109 506.930693-506.930693 0-279.511446-227.409109-506.930693-506.930693-506.930693a506.798891 506.798891 0 0 0-383.310575 175.17497A506.626535 506.626535 0 0 0 4.450851 387.447129c0 279.521584 227.409109 506.930693 506.930694 506.930693z m0-965.581307c113.349703 0 217.006891 41.54804 297.132356 109.922851-0.212911 0.811089-0.719842 1.449822-0.861782 2.291327-23.967683 144.779406-148.064317 249.876277-295.094495 249.876277A298.359129 298.359129 0 0 1 217.067723 36.54970300000002c82.021386-68.790495 185.719129-107.74305 294.303683-107.74305z m0 410.380673c88.824396 0 161.102574 72.26804 161.102574 161.102574 0 88.844673-72.278178 161.122851-161.102574 161.122852-88.854812 0-161.13299-72.288317-161.132991-161.122852s72.288317-161.102574 161.132991-161.102574z"  horiz-adv-x="1024" />

    
    <glyph glyph-name="backlog" unicode="&#59057;" d="M486.815683 286.851802l79.162297 317.825267 56.167921-25.174178-75.177822-301.826535c38.891723-17.681743 65.931406-56.857347 65.931406-102.329029 0-62.02804-50.307802-112.335842-112.366257-112.335842-62.068594 0-112.376396 50.307802-112.376396 112.335842 0 57.384554 43.068832 104.731881 98.648713 111.504475zM510.671842 895.188911c279.967683 0 506.930693-226.96301 506.930693-506.930693s-226.96301-506.930693-506.930693-506.930693-506.930693 226.96301-506.930693 506.930693 226.96301 506.930693 506.930693 506.930693z m0-42.176634c-256.628594 0-464.693228-208.064634-464.693228-464.754059 0-256.689426 208.064634-464.754059 464.693228-464.75406 256.618455 0 464.683089 208.064634 464.683089 464.75406 0 256.689426-208.064634 464.754059-464.683089 464.754059zM166.800475 408.535446h-42.247604C124.552871 605.5794060000001 322.762772 774.336634 510.68198 774.336634c193.191287 0 386.108832-166.597703 386.108832-365.801188h-42.247604c0 174.434851-172.741703 323.624554-343.861228 323.624554-165.938693 0-343.871366-151.491168-343.871366-323.624554z m333.732753-163.028911a70.159208 70.159208 0 0 1-70.128792-70.159208A70.159208 70.159208 0 0 1 500.533228 105.18811900000003a70.159208 70.159208 0 0 1 70.118653 70.159208 70.159208 70.159208 0 0 1-70.118653 70.159208z"  horiz-adv-x="1024" />

    
    <glyph glyph-name="personal-center" unicode="&#59058;" d="M512 894.377822c-279.521584 0-506.930693-227.409109-506.930693-506.930693a506.626535 506.626535 0 0 1 123.620119-331.755723A506.798891 506.798891 0 0 1 512-119.483564c279.521584 0 506.930693 227.419248 506.930693 506.930693 0 279.521584-227.409109 506.930693-506.930693 506.930693z m0-965.581307c-108.584554 0-212.272158 38.952554-294.303683 107.743049a298.359129 298.359129 0 0 0 295.479762 254.347406c147.030178 0 271.126812-105.086733 295.094495-249.876277 0.141941-0.841505 0.648871-1.480238 0.871921-2.291327C729.01703-29.655445999999984 625.339564-71.203485 512-71.203485z m0 410.380673c-88.854812 0-161.122851 72.26804-161.122851 161.102574 0 88.844673 72.26804 161.122851 161.122851 161.122852 88.824396 0 161.102574-72.288317 161.102574-161.122852S600.824396 339.177188 512 339.177188z m337.69695-261.008475C819.960396 195.24942599999997 732.514851 285.777109 621.091485 321.90099c60.030733 36.843723 100.291168 102.906931 100.291168 178.378772 0 115.458535-93.91398 209.402931-209.382653 209.402931-115.468673 0-209.402931-93.944396-209.402931-209.402931 0-75.877386 40.696396-142.244752 101.274614-178.97695-111.656554-36.904554-198.656-128.719842-227.551049-245.536951-3.649901 3.923644-7.614099 7.482297-11.142337 11.547882A458.376871 458.376871 0 0 0 53.349386 387.447129C53.349386 640.354851 259.102416 846.11802 512 846.11802S970.650614 640.354851 970.650614 387.447129c0-119.230099-46.110416-227.632158-120.953664-309.278416z"  horiz-adv-x="1024" />

    
    <glyph glyph-name="backlog-fill" unicode="&#59059;" d="M481.35097 275.080871c-60.649188-7.380911-107.621386-59.037149-107.621386-121.63295 0-67.65497 54.880317-122.525149 122.575842-122.525149 67.705663 0 122.58598 54.870178 122.58598 122.525149 0 49.608238-29.503366 92.342495-71.923327 111.616l82.021386 329.231208-61.277782 27.455366-86.360713-346.669624zM507.366653 892.623842c279.957545 0 506.930693-226.952871 506.930694-506.930693 0-279.98796-226.973149-506.930693-506.930694-506.930694-279.947406 0-506.930693 226.942733-506.930693 506.930694 0 279.977822 226.983287 506.930693 506.930693 506.930693z m-375.128712-484.828515c0 187.767129 194.113901 352.996119 375.128712 352.996119 186.682297 0 375.128713-162.724752 375.128713-352.985981h46.090139c0 217.270495-210.447208 398.99501-421.218852 398.99501-204.972356 0-421.208713-184.066535-421.208712-398.99501h46.08z m364.077623-177.821149a76.526257 76.526257 0 0 0 76.495842-76.526257 76.526257 76.526257 0 0 0-76.495842-76.526258 76.526257 76.526257 0 0 0-76.50598 76.526258 76.526257 76.526257 0 0 0 76.50598 76.526257z"  horiz-adv-x="1024" />

    
    <glyph glyph-name="dot" unicode="&#59063;" d="M512 896C229.668571 896 0 666.3314290000001 0 384s229.668571-512 512-512 512 229.668571 512 512-229.668571 512-512 512z m0-950.564571A439.003429 439.003429 0 0 0 73.435429 384 439.003429 439.003429 0 0 0 512 822.564571 439.003429 439.003429 0 0 0 950.564571 384 439.076571 439.076571 0 0 0 512-54.564571z m0 622.226285A183.881143 183.881143 0 0 1 328.338286 384 183.881143 183.881143 0 0 1 512 200.33828600000004 183.881143 183.881143 0 0 1 695.661714 384 183.881143 183.881143 0 0 1 512 567.6617140000001z"  horiz-adv-x="1024" />

    
    <glyph glyph-name="radio-out" unicode="&#59067;" d="M512 896C229.69344 896 0 666.30656 0 384c0-282.33728 229.66272-512 512-512s512 229.66272 512 512c0 282.30656-229.66272 512-512 512z m0-950.528C270.1824-54.52800000000002 73.472 142.21312 73.472 384 73.472 625.8176000000001 270.1824 822.528 512 822.528c241.78688 0 438.528-196.7104 438.528-438.528 0-241.78688-196.74112-438.528-438.528-438.528z"  horiz-adv-x="1024" />

    
    <glyph glyph-name="spread" unicode="&#59155;" d="M889.792 612a70.112 70.112 0 0 0-70.208 70A70.112 70.112 0 0 0 889.792 752 70.112 70.112 0 0 0 960 682a70.112 70.112 0 0 0-70.208-70z m0-300a70.112 70.112 0 0 0-70.208 70 70.112 70.112 0 0 0 70.208 70A70.112 70.112 0 0 0 960 382a70.112 70.112 0 0 0-70.208-70z m0-280a70.112 70.112 0 0 0-70.208 70 70.112 70.112 0 0 0 70.208 70A70.112 70.112 0 0 0 960 102 70.112 70.112 0 0 0 889.792 32zM120 732h590.08a56 56 0 0 0 56-56v-8a56 56 0 0 0-56-56H120a56 56 0 0 0-56 56v8a56 56 0 0 0 56 56zM120 432h590.08a56 56 0 0 0 56-56v-8a56 56 0 0 0-56-56H120A56 56 0 0 0 64 368v8A56 56 0 0 0 120 432z m0-280h590.08a56 56 0 0 0 56-56v-8a56 56 0 0 0-56-56H120A56 56 0 0 0 64 88V96a56 56 0 0 0 56 56z"  horiz-adv-x="1024" />

    
    <glyph glyph-name="Addmore" unicode="&#58941;" d="M548.25 896C265.165 896 34.304 666.47 34.304 384s229.99-512 513.946-512c283.033 0 513.024 229.53 513.024 512S831.284 896 548.25 896z m0-952.474c-243.252 0-441.396 197.735-441.396 440.474S304.998 824.474 548.198 824.474c243.303 0 441.447-197.735 441.447-440.474S791.5-56.474 548.25-56.474z m236.185 481.076H584.5V624.998a35.84 35.84 0 0 1-36.25 36.199A35.84 35.84 0 0 1 512 624.998v-199.526H312.064a35.84 35.84 0 0 1-36.25-36.198 35.84 35.84 0 0 1 36.25-36.148H512V153.6a35.84 35.84 0 0 1 36.25-36.198A35.84 35.84 0 0 1 584.5 153.6V353.126h199.935a35.84 35.84 0 0 1 36.25 36.148c0 20.326-15.872 35.328-36.25 35.328z"  horiz-adv-x="1075" />

    
    <glyph glyph-name="publication" unicode="&#59030;" d="M512.40754708 698.15094317H554.45283037v-566.08301866h-42.04528329V698.15094317zM554.45283037-66h-42.04528329c0 50.77358526-46.98679219 92.10566074-104.6886794 92.10566074H62v42.30000001h345.71886768C488.54905684 68.32075487999998 554.45283037 8.03773622999995 554.45283037-66zM553.60377354-66h-42.8773588c0 74.25849023 67.10943427 134.64339609 149.65471758 134.64339609H1012.94339609v-42.38490586H660.26226377c-58.83962256-0.10188721-106.64150977-41.41698135-106.64150889-92.25849023z m-116.72830196 205.60754707H62V834h341.96603731c82.52830195 0 149.63773623-60.38490586 149.63773623-134.64339609h-42.8773588c0 50.85849023-47.92075488 92.27547158-106.76037744 92.27547158H104.87735878v-609.75849023h331.98113145v-42.26603818zM995.96226377 137.77358526H633.39811279v42.48679218h321.09622646V791.51320781H665.22075488c-56.92075489 0-103.2452833-41.53584903-103.2452833-92.51320781H520.49056572C520.49056572 773.46226377 585.39245293 834 665.22075488 834H995.96226377v-696.22641474z"  horiz-adv-x="1081" />

    
    <glyph glyph-name="publication2" unicode="&#59033;" d="M528-48h-39.616c0 47.84-44.272 86.784-98.64 86.784H64v39.856h325.744C465.904 78.55999999999995 528 21.75999999999999 528-48zM527.2-48h-40.4c0 69.968 63.232 126.864 141.008 126.864H960v-39.936H627.696c-55.44-0.096-100.48-39.024-100.48-86.928zM496 144H64V800h277.168C421.12 800 496 742.96 496 672.8V144zM524.704 144V672.8c0 70.16 61.808 127.2 141.152 127.2h284.624v-656H524.704z"  horiz-adv-x="1024" />

    
    </font>
</defs>
</svg>
