<?xml version="1.0" encoding="UTF-8"?>
<svg width="31px" height="34px" viewBox="0 0 31 34" version="1.1" xmlns="http://www.w3.org/2000/svg" xmlns:xlink="http://www.w3.org/1999/xlink">
    <!-- Generator: Sketch 39.1 (31720) - http://www.bohemiancoding.com/sketch -->
    <title>Shape Copy 4</title>
    <desc>Created with Sketch.</desc>
    <defs></defs>
    <g id="表单查询统计" stroke="none" stroke-width="1" fill="none" fill-rule="evenodd">
        <g id="表单查询" transform="translate(-26.000000, -285.000000)" fill="#4299FF">
            <path d="M38.2067434,293.459595 L31.5085383,293.459595 C30.8127939,293.459595 30.2483341,292.916779 30.2483341,292.247713 C30.2483341,291.578647 30.8127939,291.035832 31.5085383,291.035832 L38.2067434,291.035832 C38.9024878,291.035832 39.4669475,291.578647 39.4669475,292.247713 C39.4669475,292.916779 38.9024878,293.459595 38.2067434,293.459595 L38.2067434,293.459595 Z M36.1178651,297.401412 C36.1178651,296.732346 35.5534053,296.189531 34.8576609,296.189531 L31.5085383,296.189531 C30.8127939,296.189531 30.2483341,296.732346 30.2483341,297.401412 C30.2483341,298.070478 30.8127939,298.613293 31.5085383,298.613293 L34.8576208,298.613293 C35.5534053,298.613332 36.1178651,298.070478 36.1178651,297.401412 L36.1178651,297.401412 Z M31.5085383,300.054023 C30.8127939,300.054023 30.2483341,300.596839 30.2483341,301.265905 C30.2483341,301.934971 30.8127939,302.477786 31.5085383,302.477786 L33.1839021,302.477786 C33.8796465,302.477786 34.4441062,301.934971 34.4441062,301.265905 C34.4441062,300.596839 33.8796465,300.054023 33.1839021,300.054023 L31.5085383,300.054023 L31.5085383,300.054023 Z M56.1379111,312.695319 L53.1727721,309.892804 C54.3345128,308.414223 54.9695501,306.60269 54.9695501,304.737524 C54.9695501,300.024081 50.9821402,296.18953 46.0807131,296.18953 C41.179286,296.18953 37.1919162,300.024043 37.1919162,304.737485 C37.1919162,309.450928 41.1793261,313.285478 46.0807532,313.285478 C46.3826838,313.285478 46.6813242,313.271279 46.9750696,313.24288 C47.6675239,313.179755 48.1745667,312.586432 48.1073194,311.92053 C48.0416771,311.253046 47.4197603,310.744918 46.7322412,310.831696 C46.5172987,310.850641 46.300671,310.861677 46.0807933,310.861677 C42.5692501,310.861677 39.7124048,308.114378 39.7124048,304.737485 C39.7124048,301.360593 42.5692501,298.613293 46.0807933,298.613293 C49.5923365,298.613293 52.4491819,301.360593 52.4491819,304.737485 C52.4491819,306.20345 51.9027777,307.620488 51.0002761,308.639868 L50.5490052,309.050144 C50.3012415,309.27579 50.1584815,309.589834 50.1551914,309.919621 C50.1519012,310.247826 50.2881211,310.565034 50.5325946,310.795388 L54.3723093,314.424781 C54.6168229,314.656755 54.9367691,314.771932 55.2551102,314.771932 C55.5816367,314.771932 55.9065581,314.650427 56.1543218,314.409 C56.6416638,313.932474 56.6350835,313.165556 56.1379111,312.695319 L56.1379111,312.695319 Z M48.7447033,316.181099 C48.4034113,315.721897 47.7666888,314.866619 46.5180001,314.866619 C45.2692713,314.866619 44.6309439,315.721897 44.289652,316.181099 C44.2371301,316.250513 44.1682378,316.342037 44.1091356,316.413072 C44.0517186,316.342076 43.9827862,316.250552 43.9302643,316.181099 C43.5889723,315.721897 42.95229,314.866619 41.7035612,314.866619 C40.4548323,314.866619 39.8197951,315.721897 39.4785031,316.182681 C39.4276263,316.250552 39.361984,316.338912 39.3045671,316.409908 C39.245505,316.338912 39.1798627,316.250513 39.1289859,316.181099 C38.7876939,315.721897 38.1510116,314.866619 36.9022828,314.866619 C35.653554,314.866619 35.0185167,315.721897 34.6772248,316.182681 C34.626348,316.250552 34.5607056,316.338912 34.5032887,316.408326 C34.4458717,316.338912 34.3802294,316.250513 34.3293526,316.182681 C33.9880606,315.721897 33.3530234,314.866619 32.1058995,314.866619 C30.8571707,314.866619 30.2204883,315.721897 29.8791964,316.182681 C29.8283196,316.250552 29.7643223,316.33733 29.7069054,316.406744 C29.6494884,316.33733 29.5854911,316.250513 29.5362594,316.184263 C29.3395732,315.918681 29.0259265,315.53611 28.5730506,315.247223 L28.5730506,288.78875 C28.5730506,288.036032 29.209733,287.423801 29.9924254,287.423801 L53.0602169,287.423801 C53.8429494,287.423801 54.4795917,288.03607 54.4795917,288.78875 L54.4795917,295.230111 C54.4795917,295.899177 55.0440514,296.441993 55.7397958,296.441993 C56.4355402,296.441993 57,295.899177 57,295.230111 L57,288.78875 C57,286.699482 55.232753,285 53.0601768,285 L29.9923451,285 C27.8197688,285 26.0525219,286.699482 26.0525219,288.78875 L26.0525219,315.831672 C26.0349878,315.908611 26,315.979299 26,316.061176 C26,316.592377 26.3288937,317.020286 26.8100969,317.179373 C26.9346006,317.231656 27.0733482,317.252453 27.2149045,317.263488 C27.2760129,317.312029 27.3987913,317.47671 27.4817671,317.588645 C27.823059,318.049429 28.4580963,318.90625 29.7052202,318.90625 C30.953949,318.90625 31.5889863,318.050972 31.9302782,317.591771 C31.981155,317.522356 32.0467973,317.433958 32.1042143,317.364543 C32.1616312,317.433958 32.2272736,317.522356 32.2781504,317.590189 C32.6194423,318.04939 33.2544796,318.90625 34.5032084,318.90625 C35.7519372,318.90625 36.3869745,318.050972 36.7282664,317.590189 C36.7791432,317.522317 36.8447454,317.433958 36.9022025,317.362961 C36.9612645,317.433958 37.0269069,317.522356 37.0777837,317.591771 C37.4190756,318.050972 38.0557579,318.90625 39.3044868,318.90625 C40.5532156,318.90625 41.1882529,318.050972 41.5295448,317.590189 C41.5804216,317.522317 41.647709,317.432376 41.705126,317.361379 C41.7625429,317.432376 41.8298303,317.522317 41.8823522,317.591771 C42.2236441,318.050972 42.8603265,318.90625 44.1090553,318.90625 C45.3577841,318.90625 45.9961115,318.050972 46.3374034,317.591771 C46.3899253,317.522356 46.4588177,317.430832 46.5179198,317.359797 C46.5753368,317.430794 46.6442693,317.522317 46.6967912,317.591771 C47.0380831,318.050972 47.6747654,318.90625 48.9251393,318.90625 C49.6208837,318.90625 50.2345752,318.379216 50.2345752,317.71015 C50.2346556,317.041084 49.7177423,316.515632 49.0219979,316.515632 C48.9629359,316.473034 48.8316512,316.296275 48.7447033,316.181099 Z" id="Shape-Copy-4"></path>
        </g>
    </g>
</svg>