<?xml version="1.0" encoding="UTF-8"?>
<svg width="33px" height="34px" viewBox="0 0 33 34" version="1.1" xmlns="http://www.w3.org/2000/svg" xmlns:xlink="http://www.w3.org/1999/xlink">
    <!-- Generator: Sketch 39.1 (31720) - http://www.bohemiancoding.com/sketch -->
    <title>Shape Copy 2</title>
    <desc>Created with Sketch.</desc>
    <defs></defs>
    <g id="表单查询统计" stroke="none" stroke-width="1" fill="none" fill-rule="evenodd">
        <g id="表单统计" transform="translate(-25.000000, -219.000000)" fill="#77BA6A">
            <path d="M56.215789,252.016337 L27.282331,252.016337 L26.2337435,252.016337 L26.2072926,252.016337 C25.5403532,252.016337 25,251.470315 25,250.795819 L25,250.769368 L25,249.660321 L25,220.152502 C25,219.515792 25.512013,219 26.1411655,219 C26.7722074,219 27.282331,219.515792 27.282331,220.152502 L27.282331,222.852378 L28.497181,222.852378 C28.9657391,222.852378 29.3454978,223.235916 29.3454978,223.710142 C29.3454978,224.184368 28.9657391,224.569795 28.497181,224.569795 L27.282331,224.569795 L27.282331,230.033786 L28.497181,230.033786 C28.9657391,230.033786 29.3454978,230.417323 29.3454978,230.891549 C29.3454978,231.365775 28.9657391,231.751202 28.497181,231.751202 L27.282331,231.751202 L27.282331,237.215193 L28.497181,237.215193 C28.9657391,237.215193 29.3454978,237.598731 29.3454978,238.072957 C29.3454978,238.547183 28.9657391,238.93072 28.497181,238.93072 L27.282331,238.93072 L27.282331,244.396601 L28.497181,244.396601 C28.9657391,244.396601 29.3454978,244.780138 29.3454978,245.254364 C29.3454978,245.72859 28.9657391,246.112128 28.497181,246.112128 L27.282331,246.112128 L27.282331,249.660321 L56.215789,249.660321 C56.8600563,249.660321 57.381516,250.187449 57.381516,250.837384 C57.381516,251.489209 56.8600563,252.016337 56.215789,252.016337 L56.215789,252.016337 Z M51.9194142,248.090274 C50.4457237,248.090274 49.2497671,246.882981 49.2497671,245.394176 L49.2497671,225.085586 C49.2497671,223.596781 50.4457237,222.389488 51.9194142,222.389488 C53.3931048,222.389488 54.587172,223.596781 54.587172,225.085586 L54.587172,245.394176 C54.587172,246.882981 53.3931048,248.090274 51.9194142,248.090274 L51.9194142,248.090274 Z M43.5099313,248.090274 C42.0362408,248.090274 40.8402842,246.882981 40.8402842,245.394176 L40.8402842,230.088577 C40.8402842,228.599771 42.0362408,227.392479 43.5099313,227.392479 C44.9836219,227.392479 46.1776891,228.599771 46.1776891,230.088577 L46.1776891,245.394176 C46.1776891,246.882981 44.9836219,248.090274 43.5099313,248.090274 L43.5099313,248.090274 Z M35.1004484,248.090274 C33.6267578,248.090274 32.4308012,246.882981 32.4308012,245.394176 L32.4308012,234.993321 C32.4308012,233.504516 33.6267578,232.297223 35.1004484,232.297223 C36.5741389,232.297223 37.7682061,233.504516 37.7682061,234.993321 L37.7682061,245.394176 C37.7682061,246.882981 36.5741389,248.090274 35.1004484,248.090274 L35.1004484,248.090274 Z" id="Shape-Copy-2"></path>
        </g>
    </g>
</svg>